<?xml version='1.0' encoding='UTF-8' standalone='no'?>
<!-- Created with Fritzing (http://www.fritzing.org/) -->
<svg xmlns="http://www.w3.org/2000/svg" xmlns:svg="http://www.w3.org/2000/svg" version="1.2" baseProfile="tiny"  x="0in" y="0in" height="0.961961in" viewBox="0 0 193.701 69.2612" width="2.69029in">
 <g transform="matrix(-1, 0, 0, 1, 193.701, 0)">
  <g partID="57411">
   <g id="silkscreen0">
    <rect fill="none" stroke="black" x="0.288" y="0.288" height="68.6852" stroke-width="0.576" width="193.125"/>
   </g>
  </g>
  <g partID="57410">
   <g id="board">
    <rect fill="none" stroke="black" id="boardoutline" x="0.288" y="0.288" height="68.6852" stroke-width="0.5" fill-opacity="0.5" width="193.125"/>
   </g>
  </g>
  <g partID="57411">
   <g id="silkscreen0">
    <rect fill="none" stroke="black" x="0.288" y="0.288" height="68.6852" stroke-width="0.576" width="193.125"/>
   </g>
  </g>
  <g partID="854306001">
   <g transform="translate(14.239,10.1064)">
    <g transform="matrix(0,1,-1,0,0,0)">
     <g id="silkscreen0" flipped="1">
      <g transform="matrix(-1, 0, 0, 1, 43.56, 0)">
       <g>
        <g>
         <g gorn="0.2">
          <line class="other" stroke="black" stroke-linecap="round" y1="14.8819" y2="14.8819" stroke-width="0.36" x1="43.38" x2="0.18"/>
          <line class="other" stroke="black" stroke-linecap="round" y1="14.8819" y2="21.9685" stroke-width="0.36" x1="0.18" x2="0.18"/>
          <line class="other" stroke="black" stroke-linecap="round" y1="21.9685" y2="21.9685" stroke-width="0.36" x1="0.18" x2="3.78"/>
          <line class="other" stroke="black" stroke-linecap="round" y1="21.9685" y2="21.9685" stroke-width="0.36" x1="3.78" x2="10.98"/>
          <line class="other" stroke="black" stroke-linecap="round" y1="21.9685" y2="21.9685" stroke-width="0.36" x1="10.98" x2="18.18"/>
          <line class="other" stroke="black" stroke-linecap="round" y1="21.9685" y2="21.9685" stroke-width="0.36" x1="18.18" x2="25.38"/>
          <line class="other" stroke="black" stroke-linecap="round" y1="21.9685" y2="21.9685" stroke-width="0.36" x1="25.38" x2="32.58"/>
          <line class="other" stroke="black" stroke-linecap="round" y1="21.9685" y2="21.9685" stroke-width="0.36" x1="32.58" x2="39.78"/>
          <line class="other" stroke="black" stroke-linecap="round" y1="21.9685" y2="21.9685" stroke-width="0.36" x1="39.78" x2="43.38"/>
          <line class="other" stroke="black" stroke-linecap="round" y1="21.9685" y2="14.8819" stroke-width="0.36" x1="43.38" x2="43.38"/>
          <line class="other" stroke="black" stroke-linecap="round" y1="21.9685" y2="38.9764" stroke-width="0.36" x1="39.78" x2="39.78"/>
          <line class="other" stroke="black" stroke-linecap="round" y1="21.9685" y2="38.9764" stroke-width="0.36" x1="32.58" x2="32.58"/>
          <line class="other" stroke="black" stroke-linecap="round" y1="21.9685" y2="38.9764" stroke-width="0.36" x1="25.38" x2="25.38"/>
          <line class="other" stroke="black" stroke-linecap="round" y1="21.9685" y2="38.9764" stroke-width="0.36" x1="18.18" x2="18.18"/>
          <line class="other" stroke="black" stroke-linecap="round" y1="21.9685" y2="38.9764" stroke-width="0.36" x1="10.98" x2="10.98"/>
          <line class="other" stroke="black" stroke-linecap="round" y1="21.9685" y2="38.9764" stroke-width="0.36" x1="3.78" x2="3.78"/>
         </g>
        </g>
       </g>
      </g>
     </g>
    </g>
   </g>
  </g>
  <g partID="854305991">
   <g transform="translate(178.535,39.2664)">
    <g transform="matrix(0,-1,1,0,0,0)">
     <g id="silkscreen0" flipped="1">
      <g transform="matrix(-1, 0, 0, 1, 29.16, 0)">
       <g>
        <g>
         <g>
          <line class="other" stroke="black" stroke-linecap="round" y1="14.8819" y2="14.8819" stroke-width="0.36" x1="28.98" x2="0.18"/>
          <line class="other" stroke="black" stroke-linecap="round" y1="14.8819" y2="21.9685" stroke-width="0.36" x1="0.18" x2="0.18"/>
          <line class="other" stroke="black" stroke-linecap="round" y1="21.9685" y2="21.9685" stroke-width="0.36" x1="0.18" x2="3.78"/>
          <line class="other" stroke="black" stroke-linecap="round" y1="21.9685" y2="21.9685" stroke-width="0.36" x1="3.78" x2="10.98"/>
          <line class="other" stroke="black" stroke-linecap="round" y1="21.9685" y2="21.9685" stroke-width="0.36" x1="10.98" x2="18.18"/>
          <line class="other" stroke="black" stroke-linecap="round" y1="21.9685" y2="21.9685" stroke-width="0.36" x1="18.18" x2="25.38"/>
          <line class="other" stroke="black" stroke-linecap="round" y1="21.9685" y2="21.9685" stroke-width="0.36" x1="25.38" x2="28.98"/>
          <line class="other" stroke="black" stroke-linecap="round" y1="21.9685" y2="14.8819" stroke-width="0.36" x1="28.98" x2="28.98"/>
          <line class="other" stroke="black" stroke-linecap="round" y1="21.9685" y2="38.9764" stroke-width="0.36" x1="25.38" x2="25.38"/>
          <line class="other" stroke="black" stroke-linecap="round" y1="21.9685" y2="38.9764" stroke-width="0.36" x1="18.18" x2="18.18"/>
          <line class="other" stroke="black" stroke-linecap="round" y1="21.9685" y2="38.9764" stroke-width="0.36" x1="10.98" x2="10.98"/>
          <line class="other" stroke="black" stroke-linecap="round" y1="21.9685" y2="38.9764" stroke-width="0.36" x1="3.78" x2="3.78"/>
         </g>
        </g>
       </g>
      </g>
     </g>
    </g>
   </g>
  </g>
  <g partID="854306000" id="partLabel">
   <g transform="translate(4.3528,2.1032)">
    <g fill="#000000" font-weight="normal" font-size="5" font-style="normal" stroke="none" font-family="'OCRA'" id="silkscreen0Label" fill-opacity="1">
     <text x="0" y="3.75">JP1</text>
    </g>
   </g>
  </g>
  <g partID="854305990" id="partLabel">
   <g transform="translate(179.116,2.77)">
    <g fill="#000000" font-weight="normal" font-size="5" font-style="normal" stroke="none" font-family="'OCRA'" id="silkscreen0Label" fill-opacity="1">
     <text x="0" y="3.75">JP2</text>
    </g>
   </g>
  </g>
  <g partID="59350">
   <g transform="translate(177.503,-8.9652)">
    <g transform="matrix(0,1,-1,0,0,0)">
     <g id="copper0">
      <circle r="1.98" fill="white" stroke="white" id="connector0pad" connectorname="+" cx="19.98" stroke-width="1.44" cy="41.58"/>
      <path fill="white" d="m17.64,39.24,4.68,0,0,4.68,-4.68,0,0,-4.68zM18.36,41.58a1.62,1.62,0,1,0,3.24,0,1.62,1.62,0,1,0,-3.24,0z" stroke="white" stroke-width="0.72"/>
      <circle r="1.98" fill="white" stroke="white" id="connector1pad" connectorname="-" cx="63.18" stroke-width="1.44" cy="41.58"/>
      <path fill="white" d="m60.84,39.24,4.68,0,0,4.68,-4.68,0,0,-4.68zM61.56,41.58a1.62,1.62,0,1,0,3.24,0,1.62,1.62,0,1,0,-3.24,0z" stroke="white" stroke-width="0.72"/>
     </g>
    </g>
   </g>
  </g>
  <g partID="64040">
   <g transform="translate(66.5792,31.8864)">
    <g transform="matrix(-2.22045e-16,-1,1,-2.22045e-16,0,0)">
     <g id="copper0">
      <circle r="1.98" fill="white" stroke="white" id="connector0pin" cx="3.6" stroke-width="2.16" cy="8.208"/>
      <circle fill="white" r="1.98" stroke="white" id="connector1pin" cx="10.8" stroke-width="2.16" cy="8.208"/>
      <circle r="1.98" fill="white" stroke="white" id="connector2pin" cx="18" stroke-width="2.16" cy="8.208"/>
     </g>
    </g>
   </g>
  </g>
  <g partID="66230">
   <g transform="translate(21.6872,10.7904)">
    <g id="copper0">
     <g id="copper1">
      <!-- <rect width="55" x="10" y="15.5" fill="none" height="55" stroke="rgb(255, 191, 0)" stroke-width="20" />  -->
      <circle fill="white" r="1.98" stroke="white" id="connector0pin" cx="2.7" stroke-width="2.16" cy="3.096"/>
      <circle fill="white" r="1.98" stroke="white" id="connector1pin" cx="31.5" stroke-width="2.16" cy="3.096"/>
     </g>
    </g>
   </g>
  </g>
  <g partID="854101270">
   <g transform="translate(19.3472,30.4464)">
    <g id="copper0" gorn="0.3.0">
     <rect fill="white" stroke="white" x="2.952" id="square" y="2.952" height="4.176" stroke-width="2.16" gorn="0.3.0.0" width="4.176"/>
     <circle fill="white" r="2.088" stroke="white" id="connector0pin" cx="5.04" stroke-width="2.16" cy="5.04" gorn="0.3.0.1"/>
     <circle fill="white" r="2.088" stroke="white" id="connector1pin" cx="5.04" stroke-width="2.16" cy="12.24" gorn="0.3.0.2"/>
    </g>
   </g>
  </g>
  <g partID="87730">
   <g transform="translate(67.5872,34.0464)">
    <g transform="matrix(0,1,-1,0,0,0)">
     <g id="copper0">
      <rect fill="white" stroke="white" x="6.408" y="12.168" height="4.464" stroke-width="2.16" width="4.464"/>
      <circle fill="white" r="2.232" stroke="white" id="connector0pad" cx="8.64" stroke-width="2.16" cy="14.4"/>
      <circle fill="white" r="2.232" stroke="white" id="connector1pad" cx="15.84" stroke-width="2.16" cy="14.4"/>
      <circle fill="white" r="2.232" stroke="white" id="connector2pad" cx="23.04" stroke-width="2.16" cy="14.4"/>
     </g>
    </g>
   </g>
  </g>
  <g partID="854101540">
   <g transform="translate(49.0832,25.5864)">
    <g transform="matrix(0,1,-1,0,0,0)">
     <g id="copper0">
      <g id="copper1">
       <!-- <rect width="55" x="10" y="15.5" fill="none" height="55" stroke="rgb(255, 191, 0)" stroke-width="20" />  -->
       <circle fill="white" r="1.98" stroke="white" id="connector0pin" cx="2.7" stroke-width="2.16" cy="3.096"/>
       <circle fill="white" r="1.98" stroke="white" id="connector1pin" cx="31.5" stroke-width="2.16" cy="3.096"/>
      </g>
     </g>
    </g>
   </g>
  </g>
  <g partID="854185230">
   <g transform="translate(35.6912,59.7864)">
    <g transform="matrix(0,-1,1,0,0,0)">
     <g id="copper0">
      <g id="copper1">
       <!-- <rect width="55" x="10" y="15.5" fill="none" height="55" stroke="rgb(255, 191, 0)" stroke-width="20" />  -->
       <circle fill="white" r="1.98" stroke="white" id="connector0pin" cx="2.7" stroke-width="2.16" cy="3.096"/>
       <circle fill="white" r="1.98" stroke="white" id="connector1pin" cx="31.5" stroke-width="2.16" cy="3.096"/>
      </g>
     </g>
    </g>
   </g>
  </g>
  <g partID="854185400">
   <g transform="translate(96.1071,61.1847)">
    <g transform="matrix(-0.707107,-0.707107,0.707107,-0.707107,0,0)">
     <g id="copper0">
      <g id="copper1">
       <!-- <rect width="55" x="10" y="15.5" fill="none" height="55" stroke="rgb(255, 191, 0)" stroke-width="20" />  -->
       <circle fill="white" r="1.98" stroke="white" id="connector0pin" cx="2.7" stroke-width="2.16" cy="3.096"/>
       <circle fill="white" r="1.98" stroke="white" id="connector1pin" cx="31.5" stroke-width="2.16" cy="3.096"/>
      </g>
     </g>
    </g>
   </g>
  </g>
  <g partID="854306000">
   <g transform="translate(14.239,10.1064)">
    <g transform="matrix(0,1,-1,0,0,0)">
     <g id="copper0" flipped="1">
      <g transform="matrix(-1, 0, 0, 1, 43.56, 0)">
       <g>
        <g>
         <g gorn="0.1">
          <rect fill="white" stroke="white" id="connector3pad" stroke-linecap="round" x="23.9627" y="2.51767e-15" connectorname="4" height="8.50394" stroke-width="0.72" gorn="0.1.0" width="2.83465"/>
          <rect fill="white" stroke="white" id="connector4pad" stroke-linecap="round" x="31.1627" y="2.51767e-15" connectorname="5" height="8.50394" stroke-width="0.72" gorn="0.1.1" width="2.83465"/>
          <rect fill="white" stroke="white" id="connector5pad" stroke-linecap="round" x="38.3627" y="2.51767e-15" connectorname="6" height="8.50394" stroke-width="0.72" gorn="0.1.2" width="2.83465"/>
          <rect fill="white" stroke="white" id="connector2pad" stroke-linecap="round" x="16.7627" y="2.51767e-15" connectorname="3" height="8.50394" stroke-width="0.72" gorn="0.1.3" width="2.83465"/>
          <rect fill="white" stroke="white" id="connector1pad" stroke-linecap="round" x="9.56268" y="2.51767e-15" connectorname="2" height="8.50394" stroke-width="0.72" gorn="0.1.4" width="2.83465"/>
          <rect fill="white" stroke="white" id="connector0pad" stroke-linecap="round" x="2.36268" y="2.51767e-15" connectorname="1" height="8.50394" stroke-width="0.72" gorn="0.1.5" width="2.83465"/>
          <circle r="1.98425" fill="white" stroke="white" id="nonconn0" cx="7.38" stroke-width="0.72" cy="18.4252" gorn="0.1.6"/>
          <circle r="1.98425" fill="white" stroke="white" id="nonconn1" cx="36.18" stroke-width="0.72" cy="18.4252" gorn="0.1.7"/>
          <g id="copper0" gorn="0.1.8">
           <circle r="1.98425" fill="white" stroke="white" id="nonconn2" cx="7.38" stroke-width="0.72" cy="18.4252" gorn="0.1.8.0"/>
           <circle r="1.98425" fill="white" stroke="white" id="nonconn3" cx="36.18" stroke-width="0.72" cy="18.4252" gorn="0.1.8.1"/>
          </g>
         </g>
         <g gorn="0.1.8">
          <circle r="1.98425" fill="white" stroke="white" id="nonconn2" cx="7.38" stroke-width="0.72" cy="18.4252" gorn="0.1.8.0"/>
          <circle r="1.98425" fill="white" stroke="white" id="nonconn3" cx="36.18" stroke-width="0.72" cy="18.4252" gorn="0.1.8.1"/>
         </g>
        </g>
       </g>
      </g>
     </g>
    </g>
   </g>
  </g>
  <g partID="854305990">
   <g transform="translate(178.535,39.2664)">
    <g transform="matrix(0,-1,1,0,0,0)">
     <g id="copper0" flipped="1">
      <g transform="matrix(-1, 0, 0, 1, 29.16, 0)">
       <g>
        <g>
         <g>
          <rect fill="white" stroke="white" id="connector3pad" x="23.9627" stroke-linecap="round" connectorname="4" y="2.51767e-15" height="8.50394" stroke-width="0.72" width="2.83465"/>
          <rect fill="white" stroke="white" id="connector2pad" x="16.7627" stroke-linecap="round" connectorname="3" y="2.51767e-15" height="8.50394" stroke-width="0.72" width="2.83465"/>
          <rect fill="white" stroke="white" id="connector1pad" x="9.56268" stroke-linecap="round" connectorname="2" y="2.51767e-15" height="8.50394" stroke-width="0.72" width="2.83465"/>
          <rect fill="white" stroke="white" id="connector0pad" x="2.36268" stroke-linecap="round" connectorname="1" y="2.51767e-15" height="8.50394" stroke-width="0.72" width="2.83465"/>
          <circle r="1.98425" fill="white" stroke="white" id="nonconn0" cx="7.38" stroke-width="0.72" cy="18.4252"/>
          <circle r="1.98425" fill="white" stroke="white" id="nonconn1" cx="21.78" stroke-width="0.72" cy="18.4252"/>
          <g id="copper0">
           <circle r="1.98425" fill="white" stroke="white" id="nonconn2" cx="7.38" stroke-width="0.72" cy="18.4252"/>
           <circle r="1.98425" fill="white" stroke="white" id="nonconn3" cx="21.78" stroke-width="0.72" cy="18.4252"/>
          </g>
         </g>
         <g>
          <circle r="1.98425" fill="white" stroke="white" id="nonconn2" cx="7.38" stroke-width="0.72" cy="18.4252"/>
          <circle r="1.98425" fill="white" stroke="white" id="nonconn3" cx="21.78" stroke-width="0.72" cy="18.4252"/>
         </g>
        </g>
       </g>
      </g>
     </g>
    </g>
   </g>
  </g>
 </g>
</svg>
