<?xml version='1.0' encoding='UTF-8' standalone='no'?>
<!-- Created with Fritzing (http://www.fritzing.org/) -->
<svg xmlns="http://www.w3.org/2000/svg" xmlns:svg="http://www.w3.org/2000/svg" version="1.2" baseProfile="tiny"  x="0in" y="0in" height="0.961961in" viewBox="0 0 193.701 69.2612" width="2.69029in">
 <g partID="57410">
  <g  id="board">
   <rect fill="none"  stroke="black" id="boardoutline" x="0.288" y="0.288" height="68.6852" stroke-width="0.5" fill-opacity="0.5" width="193.125"/>
  </g>
 </g>
 <g partID="59350">
  <g transform="translate(177.503,-8.9652)">
   <g transform="matrix(0,1,-1,0,0,0)">
    <g  id="copper0">
     <g r="1.98" fill="none"  stroke="black" id="0" connectorname="+" cx="19.98" stroke-width="0.72" cy="41.58"/>
     <g fill="black" d="m17.64,39.24,4.68,0,0,4.68,-4.68,0,0,-4.68zM18.36,41.58a1.62,1.62,0,1,0,3.24,0,1.62,1.62,0,1,0,-3.24,0z"  stroke="none" id="1" stroke-width="0"/>
     <g r="1.98" fill="none"  stroke="black" id="2" connectorname="-" cx="63.18" stroke-width="0.72" cy="41.58"/>
     <g fill="black" d="m60.84,39.24,4.68,0,0,4.68,-4.68,0,0,-4.68zM61.56,41.58a1.62,1.62,0,1,0,3.24,0,1.62,1.62,0,1,0,-3.24,0z"  stroke="none" id="3" stroke-width="0"/>
    </g>
   </g>
  </g>
 </g>
 <g partID="64040">
  <g transform="translate(66.5792,31.8864)">
   <g transform="matrix(-2.22045e-16,-1,1,-2.22045e-16,0,0)">
    <g  id="copper0">
     <g r="1.98" fill="none"  stroke="black" id="4" cx="3.6" stroke-width="1.44" cy="8.208"/>
     <g fill="none" r="1.98"  stroke="black" id="5" cx="10.8" stroke-width="1.44" cy="8.208"/>
     <g r="1.98" fill="none"  stroke="black" id="6" cx="18" stroke-width="1.44" cy="8.208"/>
    </g>
   </g>
  </g>
 </g>
 <g partID="66230">
  <g transform="translate(21.6872,10.7904)">
   <g  id="copper0">
    <g  id="copper1">
     <!-- <rect width="55" x="10" y="15.5" fill="none" height="55" stroke="rgb(255, 191, 0)" stroke-width="20" />  -->
     <g fill="none" r="1.98"  stroke="black" id="7" cx="2.7" stroke-width="1.44" cy="3.096"/>
     <g fill="none" r="1.98"  stroke="black" id="8" cx="31.5" stroke-width="1.44" cy="3.096"/>
    </g>
   </g>
  </g>
 </g>
 <g partID="854101270">
  <g transform="translate(19.3472,30.4464)">
   <g  id="copper0" gorn="0.3.0">
    <g fill="none"  stroke="black" x="2.952" id="9" y="2.952" height="4.176" stroke-width="1.44" gorn="0.3.0.0" width="4.176"/>
    <g fill="none" r="2.088"  stroke="black" id="10" cx="5.04" stroke-width="1.44" cy="5.04" gorn="0.3.0.1"/>
    <g fill="none" r="2.088"  stroke="black" id="11" cx="5.04" stroke-width="1.44" cy="12.24" gorn="0.3.0.2"/>
   </g>
  </g>
 </g>
 <g partID="87730">
  <g transform="translate(67.5872,34.0464)">
   <g transform="matrix(0,1,-1,0,0,0)">
    <g  id="copper0">
     <g fill="none"  stroke="black" x="6.408" id="12" y="12.168" height="4.464" stroke-width="1.44" width="4.464"/>
     <g fill="none" r="2.232"  stroke="black" id="13" cx="8.64" stroke-width="1.44" cy="14.4"/>
     <g fill="none" r="2.232"  stroke="black" id="14" cx="15.84" stroke-width="1.44" cy="14.4"/>
     <g fill="none" r="2.232"  stroke="black" id="15" cx="23.04" stroke-width="1.44" cy="14.4"/>
    </g>
   </g>
  </g>
 </g>
 <g partID="854101540">
  <g transform="translate(49.0832,25.5864)">
   <g transform="matrix(0,1,-1,0,0,0)">
    <g  id="copper0">
     <g  id="copper1">
      <!-- <rect width="55" x="10" y="15.5" fill="none" height="55" stroke="rgb(255, 191, 0)" stroke-width="20" />  -->
      <g fill="none" r="1.98"  stroke="black" id="16" cx="2.7" stroke-width="1.44" cy="3.096"/>
      <g fill="none" r="1.98"  stroke="black" id="17" cx="31.5" stroke-width="1.44" cy="3.096"/>
     </g>
    </g>
   </g>
  </g>
 </g>
 <g partID="854185230">
  <g transform="translate(35.6912,59.7864)">
   <g transform="matrix(0,-1,1,0,0,0)">
    <g  id="copper0">
     <g  id="copper1">
      <!-- <rect width="55" x="10" y="15.5" fill="none" height="55" stroke="rgb(255, 191, 0)" stroke-width="20" />  -->
      <g fill="none" r="1.98"  stroke="black" id="18" cx="2.7" stroke-width="1.44" cy="3.096"/>
      <g fill="none" r="1.98"  stroke="black" id="19" cx="31.5" stroke-width="1.44" cy="3.096"/>
     </g>
    </g>
   </g>
  </g>
 </g>
 <g partID="854185400">
  <g transform="translate(96.1071,61.1847)">
   <g transform="matrix(-0.707107,-0.707107,0.707107,-0.707107,0,0)">
    <g  id="copper0">
     <g  id="copper1">
      <!-- <rect width="55" x="10" y="15.5" fill="none" height="55" stroke="rgb(255, 191, 0)" stroke-width="20" />  -->
      <g fill="none" r="1.98"  stroke="black" id="20" cx="2.7" stroke-width="1.44" cy="3.096"/>
      <g fill="none" r="1.98"  stroke="black" id="21" cx="31.5" stroke-width="1.44" cy="3.096"/>
     </g>
    </g>
   </g>
  </g>
 </g>
 <g partID="854306000">
  <g transform="translate(14.239,10.1064)">
   <g transform="matrix(0,1,-1,0,0,0)">
    <g id="copper0" flipped="1">
     <g transform="matrix(-1, 0, 0, 1, 43.56, 0)">
      <g>
       <g>
        <g gorn="0.1">
         <rect fill="black" stroke="none" id="22" stroke-linecap="round" x="23.9627" y="2.51767e-15" connectorname="4" height="8.50394" stroke-width="0" gorn="0.1.0" width="2.83465"/>
         <rect fill="black" stroke="none" id="23" stroke-linecap="round" x="31.1627" y="2.51767e-15" connectorname="5" height="8.50394" stroke-width="0" gorn="0.1.1" width="2.83465"/>
         <rect fill="black" stroke="none" id="24" stroke-linecap="round" x="38.3627" y="2.51767e-15" connectorname="6" height="8.50394" stroke-width="0" gorn="0.1.2" width="2.83465"/>
         <rect fill="black" stroke="none" id="25" stroke-linecap="round" x="16.7627" y="2.51767e-15" connectorname="3" height="8.50394" stroke-width="0" gorn="0.1.3" width="2.83465"/>
         <rect fill="black" stroke="none" id="26" stroke-linecap="round" x="9.56268" y="2.51767e-15" connectorname="2" height="8.50394" stroke-width="0" gorn="0.1.4" width="2.83465"/>
         <rect fill="black" stroke="none" id="27" stroke-linecap="round" x="2.36268" y="2.51767e-15" connectorname="1" height="8.50394" stroke-width="0" gorn="0.1.5" width="2.83465"/>
         <circle r="1.98425" fill="black" stroke="black" id="28" cx="7.38" stroke-width="0" cy="18.4252" gorn="0.1.6"/>
         <circle r="1.98425" fill="black" stroke="black" id="29" cx="36.18" stroke-width="0" cy="18.4252" gorn="0.1.7"/>
         <g id="copper0" gorn="0.1.8">
          <circle r="1.98425" fill="black" stroke="black" id="30" cx="7.38" stroke-width="0" cy="18.4252" gorn="0.1.8.0"/>
          <circle r="1.98425" fill="black" stroke="black" id="31" cx="36.18" stroke-width="0" cy="18.4252" gorn="0.1.8.1"/>
         </g>
        </g>
        <g gorn="0.1.8">
         <circle r="1.98425" fill="black" stroke="black" id="32" cx="7.38" stroke-width="0" cy="18.4252" gorn="0.1.8.0"/>
         <circle r="1.98425" fill="black" stroke="black" id="33" cx="36.18" stroke-width="0" cy="18.4252" gorn="0.1.8.1"/>
        </g>
       </g>
      </g>
     </g>
    </g>
   </g>
  </g>
 </g>
 <g partID="854305990">
  <g transform="translate(178.535,39.2664)">
   <g transform="matrix(0,-1,1,0,0,0)">
    <g id="copper0" flipped="1">
     <g transform="matrix(-1, 0, 0, 1, 29.16, 0)">
      <g>
       <g>
        <g>
         <rect fill="black" stroke="none" id="34" x="23.9627" stroke-linecap="round" connectorname="4" y="2.51767e-15" height="8.50394" stroke-width="0" width="2.83465"/>
         <rect fill="black" stroke="none" id="35" x="16.7627" stroke-linecap="round" connectorname="3" y="2.51767e-15" height="8.50394" stroke-width="0" width="2.83465"/>
         <rect fill="black" stroke="none" id="36" x="9.56268" stroke-linecap="round" connectorname="2" y="2.51767e-15" height="8.50394" stroke-width="0" width="2.83465"/>
         <rect fill="black" stroke="none" id="37" x="2.36268" stroke-linecap="round" connectorname="1" y="2.51767e-15" height="8.50394" stroke-width="0" width="2.83465"/>
         <circle r="1.98425" fill="black" stroke="black" id="38" cx="7.38" stroke-width="0" cy="18.4252"/>
         <circle r="1.98425" fill="black" stroke="black" id="39" cx="21.78" stroke-width="0" cy="18.4252"/>
         <g id="copper0">
          <circle r="1.98425" fill="black" stroke="black" id="40" cx="7.38" stroke-width="0" cy="18.4252"/>
          <circle r="1.98425" fill="black" stroke="black" id="41" cx="21.78" stroke-width="0" cy="18.4252"/>
         </g>
        </g>
        <g>
         <circle r="1.98425" fill="black" stroke="black" id="42" cx="7.38" stroke-width="0" cy="18.4252"/>
         <circle r="1.98425" fill="black" stroke="black" id="43" cx="21.78" stroke-width="0" cy="18.4252"/>
        </g>
       </g>
      </g>
     </g>
    </g>
   </g>
  </g>
 </g>
</svg>
