G04 MADE WITH FRITZING*
G04 WWW.FRITZING.ORG*
G04 DOUBLE SIDED*
G04 HOLES PLATED*
G04 CONTOUR ON CENTER OF CONTOUR VECTOR*
%ASAXBY*%
%FSLAX23Y23*%
%MOIN*%
%OFA0B0*%
%SFA1.0B1.0*%
%ADD10R,2.690290X0.961961X2.674290X0.945961*%
%ADD11C,0.008000*%
%ADD12C,0.005000*%
%ADD13R,0.001000X0.001000*%
%LNSILK0*%
G90*
G70*
G54D11*
X4Y958D02*
X2686Y958D01*
X2686Y4D01*
X4Y4D01*
X4Y958D01*
D02*
G54D12*
X2686Y419D02*
X2686Y819D01*
G54D13*
X94Y935D02*
X96Y935D01*
X119Y935D02*
X144Y935D01*
X171Y935D02*
X188Y935D01*
X93Y934D02*
X98Y934D01*
X118Y934D02*
X147Y934D01*
X169Y934D02*
X188Y934D01*
X93Y933D02*
X98Y933D01*
X118Y933D02*
X148Y933D01*
X169Y933D02*
X188Y933D01*
X92Y932D02*
X98Y932D01*
X118Y932D02*
X149Y932D01*
X169Y932D02*
X188Y932D01*
X92Y931D02*
X98Y931D01*
X118Y931D02*
X150Y931D01*
X169Y931D02*
X188Y931D01*
X92Y930D02*
X98Y930D01*
X118Y930D02*
X151Y930D01*
X169Y930D02*
X188Y930D01*
X92Y929D02*
X98Y929D01*
X118Y929D02*
X151Y929D01*
X170Y929D02*
X188Y929D01*
X92Y928D02*
X98Y928D01*
X118Y928D02*
X125Y928D01*
X144Y928D02*
X152Y928D01*
X182Y928D02*
X188Y928D01*
X92Y927D02*
X98Y927D01*
X118Y927D02*
X125Y927D01*
X145Y927D02*
X152Y927D01*
X182Y927D02*
X188Y927D01*
X92Y926D02*
X98Y926D01*
X118Y926D02*
X125Y926D01*
X146Y926D02*
X152Y926D01*
X182Y926D02*
X188Y926D01*
X2522Y926D02*
X2523Y926D01*
X2546Y926D02*
X2570Y926D01*
X2598Y926D02*
X2624Y926D01*
X92Y925D02*
X98Y925D01*
X118Y925D02*
X125Y925D01*
X146Y925D02*
X152Y925D01*
X182Y925D02*
X188Y925D01*
X2520Y925D02*
X2524Y925D01*
X2545Y925D02*
X2573Y925D01*
X2597Y925D02*
X2626Y925D01*
X92Y924D02*
X98Y924D01*
X118Y924D02*
X125Y924D01*
X146Y924D02*
X152Y924D01*
X182Y924D02*
X188Y924D01*
X2520Y924D02*
X2525Y924D01*
X2545Y924D02*
X2575Y924D01*
X2596Y924D02*
X2627Y924D01*
X92Y923D02*
X98Y923D01*
X118Y923D02*
X125Y923D01*
X146Y923D02*
X152Y923D01*
X182Y923D02*
X188Y923D01*
X2519Y923D02*
X2525Y923D01*
X2545Y923D02*
X2576Y923D01*
X2596Y923D02*
X2628Y923D01*
X92Y922D02*
X98Y922D01*
X118Y922D02*
X125Y922D01*
X146Y922D02*
X152Y922D01*
X182Y922D02*
X188Y922D01*
X2519Y922D02*
X2525Y922D01*
X2545Y922D02*
X2577Y922D01*
X2596Y922D02*
X2629Y922D01*
X92Y921D02*
X98Y921D01*
X118Y921D02*
X125Y921D01*
X146Y921D02*
X152Y921D01*
X182Y921D02*
X188Y921D01*
X2519Y921D02*
X2525Y921D01*
X2545Y921D02*
X2578Y921D01*
X2596Y921D02*
X2629Y921D01*
X92Y920D02*
X98Y920D01*
X118Y920D02*
X125Y920D01*
X146Y920D02*
X152Y920D01*
X182Y920D02*
X188Y920D01*
X2519Y920D02*
X2525Y920D01*
X2545Y920D02*
X2578Y920D01*
X2597Y920D02*
X2629Y920D01*
X92Y919D02*
X98Y919D01*
X118Y919D02*
X125Y919D01*
X146Y919D02*
X152Y919D01*
X182Y919D02*
X188Y919D01*
X2519Y919D02*
X2525Y919D01*
X2545Y919D02*
X2552Y919D01*
X2570Y919D02*
X2579Y919D01*
X2623Y919D02*
X2629Y919D01*
X92Y918D02*
X98Y918D01*
X118Y918D02*
X125Y918D01*
X146Y918D02*
X152Y918D01*
X182Y918D02*
X188Y918D01*
X2519Y918D02*
X2525Y918D01*
X2545Y918D02*
X2552Y918D01*
X2572Y918D02*
X2579Y918D01*
X2623Y918D02*
X2629Y918D01*
X92Y917D02*
X98Y917D01*
X118Y917D02*
X125Y917D01*
X146Y917D02*
X152Y917D01*
X182Y917D02*
X188Y917D01*
X2519Y917D02*
X2525Y917D01*
X2545Y917D02*
X2552Y917D01*
X2573Y917D02*
X2579Y917D01*
X2623Y917D02*
X2629Y917D01*
X92Y916D02*
X98Y916D01*
X118Y916D02*
X125Y916D01*
X146Y916D02*
X152Y916D01*
X182Y916D02*
X188Y916D01*
X2519Y916D02*
X2525Y916D01*
X2545Y916D02*
X2552Y916D01*
X2573Y916D02*
X2579Y916D01*
X2623Y916D02*
X2629Y916D01*
X92Y915D02*
X98Y915D01*
X118Y915D02*
X125Y915D01*
X146Y915D02*
X152Y915D01*
X182Y915D02*
X188Y915D01*
X2519Y915D02*
X2525Y915D01*
X2545Y915D02*
X2552Y915D01*
X2573Y915D02*
X2579Y915D01*
X2623Y915D02*
X2629Y915D01*
X92Y914D02*
X98Y914D01*
X118Y914D02*
X125Y914D01*
X146Y914D02*
X152Y914D01*
X182Y914D02*
X188Y914D01*
X2519Y914D02*
X2525Y914D01*
X2545Y914D02*
X2552Y914D01*
X2573Y914D02*
X2579Y914D01*
X2623Y914D02*
X2629Y914D01*
X92Y913D02*
X98Y913D01*
X118Y913D02*
X125Y913D01*
X146Y913D02*
X152Y913D01*
X182Y913D02*
X188Y913D01*
X2519Y913D02*
X2525Y913D01*
X2545Y913D02*
X2552Y913D01*
X2573Y913D02*
X2579Y913D01*
X2623Y913D02*
X2629Y913D01*
X92Y912D02*
X98Y912D01*
X118Y912D02*
X125Y912D01*
X146Y912D02*
X152Y912D01*
X182Y912D02*
X188Y912D01*
X2519Y912D02*
X2525Y912D01*
X2545Y912D02*
X2552Y912D01*
X2573Y912D02*
X2579Y912D01*
X2623Y912D02*
X2629Y912D01*
X92Y911D02*
X98Y911D01*
X118Y911D02*
X125Y911D01*
X146Y911D02*
X152Y911D01*
X182Y911D02*
X188Y911D01*
X2519Y911D02*
X2525Y911D01*
X2545Y911D02*
X2552Y911D01*
X2573Y911D02*
X2579Y911D01*
X2623Y911D02*
X2629Y911D01*
X92Y910D02*
X98Y910D01*
X118Y910D02*
X125Y910D01*
X145Y910D02*
X152Y910D01*
X182Y910D02*
X188Y910D01*
X2519Y910D02*
X2525Y910D01*
X2545Y910D02*
X2552Y910D01*
X2573Y910D02*
X2579Y910D01*
X2623Y910D02*
X2629Y910D01*
X92Y909D02*
X98Y909D01*
X118Y909D02*
X125Y909D01*
X143Y909D02*
X151Y909D01*
X182Y909D02*
X188Y909D01*
X2519Y909D02*
X2525Y909D01*
X2545Y909D02*
X2552Y909D01*
X2573Y909D02*
X2579Y909D01*
X2623Y909D02*
X2629Y909D01*
X92Y908D02*
X98Y908D01*
X118Y908D02*
X151Y908D01*
X182Y908D02*
X188Y908D01*
X2519Y908D02*
X2525Y908D01*
X2545Y908D02*
X2552Y908D01*
X2573Y908D02*
X2579Y908D01*
X2623Y908D02*
X2629Y908D01*
X92Y907D02*
X98Y907D01*
X118Y907D02*
X151Y907D01*
X182Y907D02*
X188Y907D01*
X2519Y907D02*
X2525Y907D01*
X2545Y907D02*
X2552Y907D01*
X2573Y907D02*
X2579Y907D01*
X2623Y907D02*
X2629Y907D01*
X92Y906D02*
X98Y906D01*
X118Y906D02*
X150Y906D01*
X182Y906D02*
X188Y906D01*
X2519Y906D02*
X2525Y906D01*
X2545Y906D02*
X2552Y906D01*
X2573Y906D02*
X2579Y906D01*
X2623Y906D02*
X2629Y906D01*
X73Y905D02*
X77Y905D01*
X92Y905D02*
X98Y905D01*
X118Y905D02*
X149Y905D01*
X182Y905D02*
X188Y905D01*
X197Y905D02*
X201Y905D01*
X2519Y905D02*
X2525Y905D01*
X2545Y905D02*
X2552Y905D01*
X2573Y905D02*
X2579Y905D01*
X2623Y905D02*
X2629Y905D01*
X72Y904D02*
X77Y904D01*
X92Y904D02*
X98Y904D01*
X118Y904D02*
X148Y904D01*
X182Y904D02*
X188Y904D01*
X197Y904D02*
X202Y904D01*
X2519Y904D02*
X2525Y904D01*
X2545Y904D02*
X2552Y904D01*
X2573Y904D02*
X2579Y904D01*
X2623Y904D02*
X2629Y904D01*
X72Y903D02*
X78Y903D01*
X92Y903D02*
X98Y903D01*
X118Y903D02*
X146Y903D01*
X182Y903D02*
X188Y903D01*
X196Y903D02*
X202Y903D01*
X2519Y903D02*
X2525Y903D01*
X2545Y903D02*
X2552Y903D01*
X2573Y903D02*
X2579Y903D01*
X2623Y903D02*
X2629Y903D01*
X72Y902D02*
X78Y902D01*
X92Y902D02*
X98Y902D01*
X118Y902D02*
X143Y902D01*
X182Y902D02*
X188Y902D01*
X196Y902D02*
X202Y902D01*
X2519Y902D02*
X2525Y902D01*
X2545Y902D02*
X2552Y902D01*
X2573Y902D02*
X2579Y902D01*
X2600Y902D02*
X2629Y902D01*
X72Y901D02*
X78Y901D01*
X92Y901D02*
X98Y901D01*
X118Y901D02*
X125Y901D01*
X182Y901D02*
X188Y901D01*
X196Y901D02*
X202Y901D01*
X2519Y901D02*
X2525Y901D01*
X2545Y901D02*
X2552Y901D01*
X2572Y901D02*
X2579Y901D01*
X2598Y901D02*
X2629Y901D01*
X72Y900D02*
X78Y900D01*
X92Y900D02*
X98Y900D01*
X118Y900D02*
X125Y900D01*
X182Y900D02*
X188Y900D01*
X196Y900D02*
X202Y900D01*
X2519Y900D02*
X2525Y900D01*
X2545Y900D02*
X2552Y900D01*
X2571Y900D02*
X2579Y900D01*
X2597Y900D02*
X2629Y900D01*
X72Y899D02*
X78Y899D01*
X92Y899D02*
X98Y899D01*
X118Y899D02*
X125Y899D01*
X182Y899D02*
X188Y899D01*
X196Y899D02*
X202Y899D01*
X2519Y899D02*
X2525Y899D01*
X2545Y899D02*
X2578Y899D01*
X2597Y899D02*
X2628Y899D01*
X72Y898D02*
X78Y898D01*
X92Y898D02*
X98Y898D01*
X118Y898D02*
X125Y898D01*
X182Y898D02*
X188Y898D01*
X196Y898D02*
X202Y898D01*
X2519Y898D02*
X2525Y898D01*
X2545Y898D02*
X2578Y898D01*
X2596Y898D02*
X2627Y898D01*
X72Y897D02*
X78Y897D01*
X92Y897D02*
X98Y897D01*
X118Y897D02*
X125Y897D01*
X182Y897D02*
X188Y897D01*
X196Y897D02*
X202Y897D01*
X2519Y897D02*
X2525Y897D01*
X2545Y897D02*
X2577Y897D01*
X2596Y897D02*
X2626Y897D01*
X72Y896D02*
X78Y896D01*
X92Y896D02*
X98Y896D01*
X118Y896D02*
X125Y896D01*
X182Y896D02*
X188Y896D01*
X196Y896D02*
X202Y896D01*
X2500Y896D02*
X2503Y896D01*
X2519Y896D02*
X2525Y896D01*
X2545Y896D02*
X2576Y896D01*
X2596Y896D02*
X2624Y896D01*
X72Y895D02*
X78Y895D01*
X92Y895D02*
X98Y895D01*
X118Y895D02*
X125Y895D01*
X182Y895D02*
X188Y895D01*
X196Y895D02*
X202Y895D01*
X2499Y895D02*
X2504Y895D01*
X2519Y895D02*
X2525Y895D01*
X2545Y895D02*
X2575Y895D01*
X2596Y895D02*
X2602Y895D01*
X72Y894D02*
X78Y894D01*
X92Y894D02*
X98Y894D01*
X118Y894D02*
X125Y894D01*
X182Y894D02*
X188Y894D01*
X196Y894D02*
X202Y894D01*
X2499Y894D02*
X2505Y894D01*
X2519Y894D02*
X2525Y894D01*
X2545Y894D02*
X2574Y894D01*
X2596Y894D02*
X2602Y894D01*
X72Y893D02*
X78Y893D01*
X92Y893D02*
X98Y893D01*
X118Y893D02*
X125Y893D01*
X182Y893D02*
X188Y893D01*
X196Y893D02*
X202Y893D01*
X2499Y893D02*
X2505Y893D01*
X2519Y893D02*
X2525Y893D01*
X2545Y893D02*
X2571Y893D01*
X2596Y893D02*
X2602Y893D01*
X72Y892D02*
X78Y892D01*
X92Y892D02*
X98Y892D01*
X118Y892D02*
X125Y892D01*
X182Y892D02*
X188Y892D01*
X196Y892D02*
X202Y892D01*
X2499Y892D02*
X2505Y892D01*
X2519Y892D02*
X2525Y892D01*
X2545Y892D02*
X2552Y892D01*
X2596Y892D02*
X2602Y892D01*
X72Y891D02*
X78Y891D01*
X92Y891D02*
X98Y891D01*
X118Y891D02*
X125Y891D01*
X182Y891D02*
X188Y891D01*
X196Y891D02*
X202Y891D01*
X2499Y891D02*
X2505Y891D01*
X2519Y891D02*
X2525Y891D01*
X2545Y891D02*
X2552Y891D01*
X2596Y891D02*
X2602Y891D01*
X72Y890D02*
X78Y890D01*
X92Y890D02*
X98Y890D01*
X118Y890D02*
X125Y890D01*
X182Y890D02*
X188Y890D01*
X196Y890D02*
X202Y890D01*
X2499Y890D02*
X2505Y890D01*
X2519Y890D02*
X2525Y890D01*
X2545Y890D02*
X2552Y890D01*
X2596Y890D02*
X2602Y890D01*
X72Y889D02*
X79Y889D01*
X91Y889D02*
X98Y889D01*
X118Y889D02*
X125Y889D01*
X182Y889D02*
X188Y889D01*
X196Y889D02*
X202Y889D01*
X2499Y889D02*
X2505Y889D01*
X2519Y889D02*
X2525Y889D01*
X2545Y889D02*
X2552Y889D01*
X2596Y889D02*
X2602Y889D01*
X72Y888D02*
X98Y888D01*
X118Y888D02*
X125Y888D01*
X171Y888D02*
X202Y888D01*
X2499Y888D02*
X2505Y888D01*
X2519Y888D02*
X2525Y888D01*
X2545Y888D02*
X2552Y888D01*
X2596Y888D02*
X2602Y888D01*
X73Y887D02*
X97Y887D01*
X118Y887D02*
X125Y887D01*
X170Y887D02*
X202Y887D01*
X2499Y887D02*
X2505Y887D01*
X2519Y887D02*
X2525Y887D01*
X2545Y887D02*
X2552Y887D01*
X2596Y887D02*
X2602Y887D01*
X73Y886D02*
X97Y886D01*
X118Y886D02*
X125Y886D01*
X169Y886D02*
X202Y886D01*
X2499Y886D02*
X2505Y886D01*
X2519Y886D02*
X2525Y886D01*
X2545Y886D02*
X2552Y886D01*
X2596Y886D02*
X2602Y886D01*
X74Y885D02*
X96Y885D01*
X119Y885D02*
X125Y885D01*
X169Y885D02*
X202Y885D01*
X2499Y885D02*
X2505Y885D01*
X2519Y885D02*
X2525Y885D01*
X2545Y885D02*
X2552Y885D01*
X2596Y885D02*
X2602Y885D01*
X75Y884D02*
X95Y884D01*
X119Y884D02*
X124Y884D01*
X169Y884D02*
X202Y884D01*
X2499Y884D02*
X2505Y884D01*
X2519Y884D02*
X2525Y884D01*
X2545Y884D02*
X2552Y884D01*
X2596Y884D02*
X2602Y884D01*
X77Y883D02*
X94Y883D01*
X119Y883D02*
X124Y883D01*
X169Y883D02*
X202Y883D01*
X2499Y883D02*
X2505Y883D01*
X2519Y883D02*
X2525Y883D01*
X2545Y883D02*
X2552Y883D01*
X2596Y883D02*
X2602Y883D01*
X78Y882D02*
X92Y882D01*
X120Y882D02*
X123Y882D01*
X170Y882D02*
X201Y882D01*
X2499Y882D02*
X2505Y882D01*
X2519Y882D02*
X2525Y882D01*
X2545Y882D02*
X2552Y882D01*
X2596Y882D02*
X2602Y882D01*
X2499Y881D02*
X2505Y881D01*
X2519Y881D02*
X2525Y881D01*
X2545Y881D02*
X2552Y881D01*
X2596Y881D02*
X2602Y881D01*
X2499Y880D02*
X2506Y880D01*
X2518Y880D02*
X2525Y880D01*
X2545Y880D02*
X2552Y880D01*
X2596Y880D02*
X2602Y880D01*
X2499Y879D02*
X2525Y879D01*
X2545Y879D02*
X2552Y879D01*
X2596Y879D02*
X2626Y879D01*
X2500Y878D02*
X2524Y878D01*
X2545Y878D02*
X2552Y878D01*
X2596Y878D02*
X2628Y878D01*
X2500Y877D02*
X2524Y877D01*
X2545Y877D02*
X2552Y877D01*
X2596Y877D02*
X2629Y877D01*
X2501Y876D02*
X2523Y876D01*
X2545Y876D02*
X2552Y876D01*
X2596Y876D02*
X2629Y876D01*
X2502Y875D02*
X2522Y875D01*
X2546Y875D02*
X2551Y875D01*
X2596Y875D02*
X2629Y875D01*
X2503Y874D02*
X2521Y874D01*
X2546Y874D02*
X2551Y874D01*
X2596Y874D02*
X2629Y874D01*
X2505Y873D02*
X2519Y873D01*
X2547Y873D02*
X2550Y873D01*
X2596Y873D02*
X2628Y873D01*
D02*
G04 End of Silk0*
M02*