G04 MADE WITH FRITZING*
G04 WWW.FRITZING.ORG*
G04 DOUBLE SIDED*
G04 HOLES PLATED*
G04 CONTOUR ON CENTER OF CONTOUR VECTOR*
%ASAXBY*%
%FSLAX23Y23*%
%MOIN*%
%OFA0B0*%
%SFA1.0B1.0*%
%ADD10C,0.065000*%
%ADD11C,0.075000*%
%ADD12C,0.078000*%
%ADD13C,0.082000*%
%ADD14R,0.078000X0.078000*%
%ADD15R,0.082000X0.082000*%
%ADD16R,0.118110X0.039370*%
%ADD17C,0.024000*%
%ADD18C,0.032000*%
%ADD19R,0.001000X0.001000*%
%LNCOPPER0*%
G90*
G70*
G54D10*
X1888Y809D03*
X1888Y209D03*
G54D11*
X1039Y569D03*
X1039Y669D03*
X1039Y769D03*
X339Y769D03*
X739Y769D03*
G54D12*
X339Y469D03*
X339Y369D03*
G54D13*
X739Y369D03*
X739Y269D03*
X739Y169D03*
G54D11*
X639Y569D03*
X639Y169D03*
X539Y169D03*
X539Y569D03*
X1339Y169D03*
X1056Y452D03*
G54D14*
X339Y469D03*
G54D15*
X739Y369D03*
G54D16*
X139Y569D03*
X139Y669D03*
X139Y769D03*
X139Y469D03*
X139Y369D03*
X139Y269D03*
X2539Y469D03*
X2539Y569D03*
X2539Y669D03*
X2539Y769D03*
G54D17*
X1921Y807D02*
X2485Y772D01*
D02*
X192Y369D02*
X309Y369D01*
D02*
X518Y189D02*
X360Y348D01*
D02*
X192Y582D02*
X539Y669D01*
D02*
X539Y669D02*
X618Y589D01*
D02*
X160Y255D02*
X438Y68D01*
D02*
X438Y68D02*
X2238Y68D01*
D02*
X2238Y68D02*
X2528Y455D01*
G54D18*
D02*
X1044Y535D02*
X1051Y486D01*
G54D17*
D02*
X167Y683D02*
X313Y756D01*
D02*
X366Y483D02*
X513Y556D01*
D02*
X167Y783D02*
X338Y870D01*
D02*
X338Y870D02*
X1854Y810D01*
D02*
X1012Y678D02*
X766Y760D01*
D02*
X192Y469D02*
X309Y469D01*
D02*
X567Y169D02*
X610Y169D01*
D02*
X707Y169D02*
X667Y169D01*
D02*
X2485Y558D02*
X1139Y269D01*
D02*
X1139Y269D02*
X770Y177D01*
D02*
X1854Y207D02*
X1367Y171D01*
D02*
X652Y544D02*
X724Y398D01*
D02*
X1067Y768D02*
X2642Y715D01*
D02*
X2642Y715D02*
X2640Y575D01*
D02*
X2640Y575D02*
X2592Y572D01*
D02*
X2485Y658D02*
X1139Y370D01*
D02*
X1139Y370D02*
X770Y277D01*
G54D19*
X1855Y842D02*
X1919Y842D01*
X1855Y841D02*
X1919Y841D01*
X1855Y840D02*
X1919Y840D01*
X1855Y839D02*
X1919Y839D01*
X1855Y838D02*
X1919Y838D01*
X1855Y837D02*
X1919Y837D01*
X1855Y836D02*
X1919Y836D01*
X1855Y835D02*
X1919Y835D01*
X1855Y834D02*
X1919Y834D01*
X1855Y833D02*
X1919Y833D01*
X1855Y832D02*
X1884Y832D01*
X1890Y832D02*
X1919Y832D01*
X1855Y831D02*
X1880Y831D01*
X1894Y831D02*
X1919Y831D01*
X1855Y830D02*
X1877Y830D01*
X1897Y830D02*
X1919Y830D01*
X1855Y829D02*
X1875Y829D01*
X1899Y829D02*
X1919Y829D01*
X1855Y828D02*
X1874Y828D01*
X1901Y828D02*
X1919Y828D01*
X1855Y827D02*
X1872Y827D01*
X1902Y827D02*
X1919Y827D01*
X1855Y826D02*
X1871Y826D01*
X1903Y826D02*
X1919Y826D01*
X1855Y825D02*
X1870Y825D01*
X1904Y825D02*
X1919Y825D01*
X1855Y824D02*
X1869Y824D01*
X1905Y824D02*
X1919Y824D01*
X1855Y823D02*
X1869Y823D01*
X1906Y823D02*
X1919Y823D01*
X1855Y822D02*
X1868Y822D01*
X1906Y822D02*
X1919Y822D01*
X1855Y821D02*
X1867Y821D01*
X1907Y821D02*
X1919Y821D01*
X1855Y820D02*
X1867Y820D01*
X1907Y820D02*
X1919Y820D01*
X1855Y819D02*
X1866Y819D01*
X1908Y819D02*
X1919Y819D01*
X1855Y818D02*
X1866Y818D01*
X1908Y818D02*
X1919Y818D01*
X1855Y817D02*
X1865Y817D01*
X1909Y817D02*
X1919Y817D01*
X1855Y816D02*
X1865Y816D01*
X1909Y816D02*
X1919Y816D01*
X1855Y815D02*
X1865Y815D01*
X1909Y815D02*
X1919Y815D01*
X1855Y814D02*
X1865Y814D01*
X1910Y814D02*
X1919Y814D01*
X1855Y813D02*
X1864Y813D01*
X1910Y813D02*
X1919Y813D01*
X1855Y812D02*
X1864Y812D01*
X1910Y812D02*
X1919Y812D01*
X1855Y811D02*
X1864Y811D01*
X1910Y811D02*
X1919Y811D01*
X1855Y810D02*
X1864Y810D01*
X1910Y810D02*
X1919Y810D01*
X1855Y809D02*
X1864Y809D01*
X1910Y809D02*
X1919Y809D01*
X1855Y808D02*
X1864Y808D01*
X1910Y808D02*
X1919Y808D01*
X1855Y807D02*
X1864Y807D01*
X1910Y807D02*
X1919Y807D01*
X1855Y806D02*
X1864Y806D01*
X1910Y806D02*
X1919Y806D01*
X1855Y805D02*
X1865Y805D01*
X1910Y805D02*
X1919Y805D01*
X1855Y804D02*
X1865Y804D01*
X1909Y804D02*
X1919Y804D01*
X1855Y803D02*
X1865Y803D01*
X1909Y803D02*
X1919Y803D01*
X1855Y802D02*
X1866Y802D01*
X1909Y802D02*
X1919Y802D01*
X1855Y801D02*
X1866Y801D01*
X1908Y801D02*
X1919Y801D01*
X1855Y800D02*
X1866Y800D01*
X1908Y800D02*
X1919Y800D01*
X1855Y799D02*
X1867Y799D01*
X1907Y799D02*
X1919Y799D01*
X1855Y798D02*
X1867Y798D01*
X1907Y798D02*
X1919Y798D01*
X1855Y797D02*
X1868Y797D01*
X1906Y797D02*
X1919Y797D01*
X1855Y796D02*
X1869Y796D01*
X1905Y796D02*
X1919Y796D01*
X1855Y795D02*
X1870Y795D01*
X1905Y795D02*
X1919Y795D01*
X1855Y794D02*
X1871Y794D01*
X1904Y794D02*
X1919Y794D01*
X1855Y793D02*
X1872Y793D01*
X1903Y793D02*
X1919Y793D01*
X1855Y792D02*
X1873Y792D01*
X1901Y792D02*
X1919Y792D01*
X1855Y791D02*
X1874Y791D01*
X1900Y791D02*
X1919Y791D01*
X1855Y790D02*
X1876Y790D01*
X1898Y790D02*
X1919Y790D01*
X1855Y789D02*
X1878Y789D01*
X1896Y789D02*
X1919Y789D01*
X1855Y788D02*
X1881Y788D01*
X1893Y788D02*
X1919Y788D01*
X1855Y787D02*
X1919Y787D01*
X1855Y786D02*
X1919Y786D01*
X1855Y785D02*
X1919Y785D01*
X1855Y784D02*
X1919Y784D01*
X1855Y783D02*
X1919Y783D01*
X1855Y782D02*
X1919Y782D01*
X1855Y781D02*
X1919Y781D01*
X1855Y780D02*
X1919Y780D01*
X1855Y779D02*
X1919Y779D01*
X1855Y778D02*
X1919Y778D01*
X1855Y242D02*
X1919Y242D01*
X1855Y241D02*
X1919Y241D01*
X1855Y240D02*
X1919Y240D01*
X1855Y239D02*
X1919Y239D01*
X1855Y238D02*
X1919Y238D01*
X1855Y237D02*
X1919Y237D01*
X1855Y236D02*
X1919Y236D01*
X1855Y235D02*
X1919Y235D01*
X1855Y234D02*
X1919Y234D01*
X1855Y233D02*
X1919Y233D01*
X1855Y232D02*
X1881Y232D01*
X1893Y232D02*
X1919Y232D01*
X1855Y231D02*
X1878Y231D01*
X1896Y231D02*
X1919Y231D01*
X1855Y230D02*
X1876Y230D01*
X1898Y230D02*
X1919Y230D01*
X1855Y229D02*
X1874Y229D01*
X1900Y229D02*
X1919Y229D01*
X1855Y228D02*
X1873Y228D01*
X1901Y228D02*
X1919Y228D01*
X1855Y227D02*
X1872Y227D01*
X1903Y227D02*
X1919Y227D01*
X1855Y226D02*
X1871Y226D01*
X1904Y226D02*
X1919Y226D01*
X1855Y225D02*
X1870Y225D01*
X1904Y225D02*
X1919Y225D01*
X1855Y224D02*
X1869Y224D01*
X1905Y224D02*
X1919Y224D01*
X1855Y223D02*
X1868Y223D01*
X1906Y223D02*
X1919Y223D01*
X1855Y222D02*
X1868Y222D01*
X1907Y222D02*
X1919Y222D01*
X1855Y221D02*
X1867Y221D01*
X1907Y221D02*
X1919Y221D01*
X1855Y220D02*
X1866Y220D01*
X1908Y220D02*
X1919Y220D01*
X1855Y219D02*
X1866Y219D01*
X1908Y219D02*
X1919Y219D01*
X1855Y218D02*
X1866Y218D01*
X1909Y218D02*
X1919Y218D01*
X1855Y217D02*
X1865Y217D01*
X1909Y217D02*
X1919Y217D01*
X1855Y216D02*
X1865Y216D01*
X1909Y216D02*
X1919Y216D01*
X1855Y215D02*
X1865Y215D01*
X1910Y215D02*
X1919Y215D01*
X1855Y214D02*
X1864Y214D01*
X1910Y214D02*
X1919Y214D01*
X1855Y213D02*
X1864Y213D01*
X1910Y213D02*
X1919Y213D01*
X1855Y212D02*
X1864Y212D01*
X1910Y212D02*
X1919Y212D01*
X1855Y211D02*
X1864Y211D01*
X1910Y211D02*
X1919Y211D01*
X1855Y210D02*
X1864Y210D01*
X1910Y210D02*
X1919Y210D01*
X1855Y209D02*
X1864Y209D01*
X1910Y209D02*
X1919Y209D01*
X1855Y208D02*
X1864Y208D01*
X1910Y208D02*
X1919Y208D01*
X1855Y207D02*
X1864Y207D01*
X1910Y207D02*
X1919Y207D01*
X1855Y206D02*
X1865Y206D01*
X1910Y206D02*
X1919Y206D01*
X1855Y205D02*
X1865Y205D01*
X1909Y205D02*
X1919Y205D01*
X1855Y204D02*
X1865Y204D01*
X1909Y204D02*
X1919Y204D01*
X1855Y203D02*
X1865Y203D01*
X1909Y203D02*
X1919Y203D01*
X1855Y202D02*
X1866Y202D01*
X1908Y202D02*
X1919Y202D01*
X1855Y201D02*
X1866Y201D01*
X1908Y201D02*
X1919Y201D01*
X1855Y200D02*
X1867Y200D01*
X1908Y200D02*
X1919Y200D01*
X1855Y199D02*
X1867Y199D01*
X1907Y199D02*
X1919Y199D01*
X1855Y198D02*
X1868Y198D01*
X1906Y198D02*
X1919Y198D01*
X1855Y197D02*
X1869Y197D01*
X1906Y197D02*
X1919Y197D01*
X1855Y196D02*
X1869Y196D01*
X1905Y196D02*
X1919Y196D01*
X1855Y195D02*
X1870Y195D01*
X1904Y195D02*
X1919Y195D01*
X1855Y194D02*
X1871Y194D01*
X1903Y194D02*
X1919Y194D01*
X1855Y193D02*
X1872Y193D01*
X1902Y193D02*
X1919Y193D01*
X1855Y192D02*
X1874Y192D01*
X1901Y192D02*
X1919Y192D01*
X1855Y191D02*
X1875Y191D01*
X1899Y191D02*
X1919Y191D01*
X1855Y190D02*
X1877Y190D01*
X1897Y190D02*
X1919Y190D01*
X1855Y189D02*
X1880Y189D01*
X1895Y189D02*
X1919Y189D01*
X1855Y188D02*
X1884Y188D01*
X1890Y188D02*
X1919Y188D01*
X1855Y187D02*
X1919Y187D01*
X1855Y186D02*
X1919Y186D01*
X1855Y185D02*
X1919Y185D01*
X1855Y184D02*
X1919Y184D01*
X1855Y183D02*
X1919Y183D01*
X1855Y182D02*
X1919Y182D01*
X1855Y181D02*
X1919Y181D01*
X1855Y180D02*
X1919Y180D01*
X1855Y179D02*
X1919Y179D01*
X1855Y178D02*
X1919Y178D01*
D02*
G04 End of Copper0*
M02*