G04 MADE WITH FRITZING*
G04 WWW.FRITZING.ORG*
G04 DOUBLE SIDED*
G04 HOLES PLATED*
G04 CONTOUR ON CENTER OF CONTOUR VECTOR*
%ASAXBY*%
%FSLAX23Y23*%
%MOIN*%
%OFA0B0*%
%SFA1.0B1.0*%
%ADD10C,0.010000*%
%ADD11C,0.005000*%
%ADD12R,0.001000X0.001000*%
%LNSILK1*%
G90*
G70*
G54D10*
X975Y599D02*
X975Y739D01*
D02*
X448Y802D02*
X648Y802D01*
D02*
X648Y802D02*
X648Y736D01*
D02*
X648Y736D02*
X448Y736D01*
D02*
X448Y736D02*
X448Y802D01*
D02*
X289Y519D02*
X289Y319D01*
D02*
X289Y319D02*
X389Y319D01*
D02*
X389Y319D02*
X389Y519D01*
D02*
X389Y519D02*
X289Y519D01*
D02*
X859Y469D02*
X859Y69D01*
D02*
X859Y69D02*
X679Y69D01*
D02*
X679Y469D02*
X859Y469D01*
D02*
X859Y469D02*
X859Y69D01*
D02*
X859Y69D02*
X799Y69D01*
D02*
X799Y69D02*
X799Y469D01*
D02*
X799Y469D02*
X859Y469D01*
G54D11*
D02*
X859Y339D02*
X799Y339D01*
D02*
X859Y199D02*
X799Y199D01*
G54D10*
D02*
X672Y460D02*
X672Y260D01*
D02*
X672Y260D02*
X606Y260D01*
D02*
X606Y260D02*
X606Y460D01*
D02*
X606Y460D02*
X672Y460D01*
D02*
X506Y279D02*
X506Y479D01*
D02*
X506Y479D02*
X572Y479D01*
D02*
X572Y479D02*
X572Y279D01*
D02*
X572Y279D02*
X506Y279D01*
D02*
X1238Y223D02*
X1097Y365D01*
D02*
X1097Y365D02*
X1143Y411D01*
D02*
X1143Y411D02*
X1285Y270D01*
D02*
X1285Y270D02*
X1238Y223D01*
G54D12*
X0Y962D02*
X2689Y962D01*
X0Y961D02*
X2689Y961D01*
X0Y960D02*
X2689Y960D01*
X0Y959D02*
X2689Y959D01*
X0Y958D02*
X2689Y958D01*
X0Y957D02*
X2689Y957D01*
X0Y956D02*
X2689Y956D01*
X0Y955D02*
X2689Y955D01*
X0Y954D02*
X7Y954D01*
X1519Y954D02*
X1526Y954D01*
X2249Y954D02*
X2255Y954D01*
X2682Y954D02*
X2689Y954D01*
X0Y953D02*
X7Y953D01*
X1518Y953D02*
X1524Y953D01*
X2250Y953D02*
X2256Y953D01*
X2682Y953D02*
X2689Y953D01*
X0Y952D02*
X7Y952D01*
X1517Y952D02*
X1523Y952D01*
X2251Y952D02*
X2257Y952D01*
X2682Y952D02*
X2689Y952D01*
X0Y951D02*
X7Y951D01*
X1516Y951D02*
X1522Y951D01*
X2252Y951D02*
X2259Y951D01*
X2682Y951D02*
X2689Y951D01*
X0Y950D02*
X7Y950D01*
X1514Y950D02*
X1521Y950D01*
X2254Y950D02*
X2260Y950D01*
X2682Y950D02*
X2689Y950D01*
X0Y949D02*
X7Y949D01*
X1513Y949D02*
X1519Y949D01*
X2255Y949D02*
X2261Y949D01*
X2682Y949D02*
X2689Y949D01*
X0Y948D02*
X7Y948D01*
X1512Y948D02*
X1518Y948D01*
X2256Y948D02*
X2262Y948D01*
X2682Y948D02*
X2689Y948D01*
X0Y947D02*
X7Y947D01*
X1511Y947D02*
X1517Y947D01*
X2257Y947D02*
X2263Y947D01*
X2682Y947D02*
X2689Y947D01*
X0Y946D02*
X7Y946D01*
X1510Y946D02*
X1516Y946D01*
X2258Y946D02*
X2264Y946D01*
X2682Y946D02*
X2689Y946D01*
X0Y945D02*
X7Y945D01*
X1509Y945D02*
X1515Y945D01*
X2259Y945D02*
X2266Y945D01*
X2682Y945D02*
X2689Y945D01*
X0Y944D02*
X7Y944D01*
X1507Y944D02*
X1514Y944D01*
X2261Y944D02*
X2267Y944D01*
X2682Y944D02*
X2689Y944D01*
X0Y943D02*
X7Y943D01*
X1506Y943D02*
X1512Y943D01*
X2262Y943D02*
X2268Y943D01*
X2682Y943D02*
X2689Y943D01*
X0Y942D02*
X7Y942D01*
X1505Y942D02*
X1511Y942D01*
X2263Y942D02*
X2269Y942D01*
X2682Y942D02*
X2689Y942D01*
X0Y941D02*
X7Y941D01*
X1504Y941D02*
X1510Y941D01*
X2264Y941D02*
X2270Y941D01*
X2682Y941D02*
X2689Y941D01*
X0Y940D02*
X7Y940D01*
X1503Y940D02*
X1509Y940D01*
X2265Y940D02*
X2271Y940D01*
X2682Y940D02*
X2689Y940D01*
X0Y939D02*
X7Y939D01*
X1502Y939D02*
X1508Y939D01*
X2266Y939D02*
X2272Y939D01*
X2682Y939D02*
X2689Y939D01*
X0Y938D02*
X7Y938D01*
X1501Y938D02*
X1507Y938D01*
X2267Y938D02*
X2273Y938D01*
X2682Y938D02*
X2689Y938D01*
X0Y937D02*
X7Y937D01*
X1500Y937D02*
X1506Y937D01*
X2269Y937D02*
X2275Y937D01*
X2682Y937D02*
X2689Y937D01*
X0Y936D02*
X7Y936D01*
X1499Y936D02*
X1504Y936D01*
X2270Y936D02*
X2276Y936D01*
X2682Y936D02*
X2689Y936D01*
X0Y935D02*
X7Y935D01*
X1497Y935D02*
X1503Y935D01*
X2271Y935D02*
X2277Y935D01*
X2682Y935D02*
X2689Y935D01*
X0Y934D02*
X7Y934D01*
X1496Y934D02*
X1502Y934D01*
X2272Y934D02*
X2278Y934D01*
X2682Y934D02*
X2689Y934D01*
X0Y933D02*
X7Y933D01*
X1495Y933D02*
X1501Y933D01*
X2273Y933D02*
X2279Y933D01*
X2682Y933D02*
X2689Y933D01*
X0Y932D02*
X7Y932D01*
X1494Y932D02*
X1500Y932D01*
X2274Y932D02*
X2280Y932D01*
X2682Y932D02*
X2689Y932D01*
X0Y931D02*
X7Y931D01*
X1493Y931D02*
X1499Y931D01*
X2275Y931D02*
X2281Y931D01*
X2682Y931D02*
X2689Y931D01*
X0Y930D02*
X7Y930D01*
X1492Y930D02*
X1498Y930D01*
X2276Y930D02*
X2282Y930D01*
X2682Y930D02*
X2689Y930D01*
X0Y929D02*
X7Y929D01*
X1491Y929D02*
X1497Y929D01*
X2277Y929D02*
X2283Y929D01*
X2682Y929D02*
X2689Y929D01*
X0Y928D02*
X7Y928D01*
X1490Y928D02*
X1496Y928D01*
X2278Y928D02*
X2284Y928D01*
X2682Y928D02*
X2689Y928D01*
X0Y927D02*
X7Y927D01*
X1489Y927D02*
X1495Y927D01*
X2280Y927D02*
X2285Y927D01*
X2682Y927D02*
X2689Y927D01*
X0Y926D02*
X7Y926D01*
X1488Y926D02*
X1494Y926D01*
X2281Y926D02*
X2286Y926D01*
X2682Y926D02*
X2689Y926D01*
X0Y925D02*
X7Y925D01*
X1487Y925D02*
X1493Y925D01*
X2282Y925D02*
X2287Y925D01*
X2682Y925D02*
X2689Y925D01*
X0Y924D02*
X7Y924D01*
X1486Y924D02*
X1491Y924D01*
X2283Y924D02*
X2288Y924D01*
X2682Y924D02*
X2689Y924D01*
X0Y923D02*
X7Y923D01*
X1485Y923D02*
X1490Y923D01*
X2284Y923D02*
X2289Y923D01*
X2682Y923D02*
X2689Y923D01*
X0Y922D02*
X7Y922D01*
X1484Y922D02*
X1489Y922D01*
X2285Y922D02*
X2290Y922D01*
X2682Y922D02*
X2689Y922D01*
X0Y921D02*
X7Y921D01*
X1483Y921D02*
X1488Y921D01*
X2286Y921D02*
X2291Y921D01*
X2682Y921D02*
X2689Y921D01*
X0Y920D02*
X7Y920D01*
X1482Y920D02*
X1487Y920D01*
X2287Y920D02*
X2293Y920D01*
X2682Y920D02*
X2689Y920D01*
X0Y919D02*
X7Y919D01*
X1481Y919D02*
X1486Y919D01*
X2288Y919D02*
X2294Y919D01*
X2682Y919D02*
X2689Y919D01*
X0Y918D02*
X7Y918D01*
X1480Y918D02*
X1485Y918D01*
X2289Y918D02*
X2295Y918D01*
X2682Y918D02*
X2689Y918D01*
X0Y917D02*
X7Y917D01*
X1479Y917D02*
X1484Y917D01*
X2290Y917D02*
X2296Y917D01*
X2682Y917D02*
X2689Y917D01*
X0Y916D02*
X7Y916D01*
X1478Y916D02*
X1483Y916D01*
X2291Y916D02*
X2297Y916D01*
X2682Y916D02*
X2689Y916D01*
X0Y915D02*
X7Y915D01*
X1477Y915D02*
X1482Y915D01*
X2292Y915D02*
X2298Y915D01*
X2682Y915D02*
X2689Y915D01*
X0Y914D02*
X7Y914D01*
X1476Y914D02*
X1481Y914D01*
X2293Y914D02*
X2298Y914D01*
X2682Y914D02*
X2689Y914D01*
X0Y913D02*
X7Y913D01*
X1475Y913D02*
X1480Y913D01*
X2294Y913D02*
X2299Y913D01*
X2682Y913D02*
X2689Y913D01*
X0Y912D02*
X7Y912D01*
X1474Y912D02*
X1479Y912D01*
X2295Y912D02*
X2300Y912D01*
X2682Y912D02*
X2689Y912D01*
X0Y911D02*
X7Y911D01*
X1473Y911D02*
X1478Y911D01*
X2296Y911D02*
X2301Y911D01*
X2682Y911D02*
X2689Y911D01*
X0Y910D02*
X7Y910D01*
X1472Y910D02*
X1477Y910D01*
X2297Y910D02*
X2302Y910D01*
X2682Y910D02*
X2689Y910D01*
X0Y909D02*
X7Y909D01*
X1471Y909D02*
X1476Y909D01*
X2298Y909D02*
X2303Y909D01*
X2682Y909D02*
X2689Y909D01*
X0Y908D02*
X7Y908D01*
X1470Y908D02*
X1475Y908D01*
X2299Y908D02*
X2304Y908D01*
X2682Y908D02*
X2689Y908D01*
X0Y907D02*
X7Y907D01*
X1469Y907D02*
X1474Y907D01*
X2300Y907D02*
X2305Y907D01*
X2682Y907D02*
X2689Y907D01*
X0Y906D02*
X7Y906D01*
X1468Y906D02*
X1473Y906D01*
X2301Y906D02*
X2306Y906D01*
X2682Y906D02*
X2689Y906D01*
X0Y905D02*
X7Y905D01*
X1467Y905D02*
X1472Y905D01*
X2302Y905D02*
X2307Y905D01*
X2682Y905D02*
X2689Y905D01*
X0Y904D02*
X7Y904D01*
X1466Y904D02*
X1471Y904D01*
X2303Y904D02*
X2308Y904D01*
X2682Y904D02*
X2689Y904D01*
X0Y903D02*
X7Y903D01*
X1465Y903D02*
X1471Y903D01*
X2304Y903D02*
X2309Y903D01*
X2682Y903D02*
X2689Y903D01*
X0Y902D02*
X7Y902D01*
X1464Y902D02*
X1470Y902D01*
X2305Y902D02*
X2310Y902D01*
X2682Y902D02*
X2689Y902D01*
X0Y901D02*
X7Y901D01*
X1463Y901D02*
X1469Y901D01*
X2306Y901D02*
X2311Y901D01*
X2682Y901D02*
X2689Y901D01*
X0Y900D02*
X7Y900D01*
X1462Y900D02*
X1468Y900D01*
X2306Y900D02*
X2312Y900D01*
X2682Y900D02*
X2689Y900D01*
X0Y899D02*
X7Y899D01*
X1461Y899D02*
X1467Y899D01*
X2307Y899D02*
X2313Y899D01*
X2682Y899D02*
X2689Y899D01*
X0Y898D02*
X7Y898D01*
X1461Y898D02*
X1466Y898D01*
X2308Y898D02*
X2314Y898D01*
X2682Y898D02*
X2689Y898D01*
X0Y897D02*
X7Y897D01*
X1460Y897D02*
X1465Y897D01*
X2309Y897D02*
X2315Y897D01*
X2682Y897D02*
X2689Y897D01*
X0Y896D02*
X7Y896D01*
X1459Y896D02*
X1464Y896D01*
X2310Y896D02*
X2315Y896D01*
X2682Y896D02*
X2689Y896D01*
X0Y895D02*
X7Y895D01*
X1458Y895D02*
X1463Y895D01*
X2311Y895D02*
X2316Y895D01*
X2682Y895D02*
X2689Y895D01*
X0Y894D02*
X7Y894D01*
X1457Y894D02*
X1462Y894D01*
X2312Y894D02*
X2317Y894D01*
X2682Y894D02*
X2689Y894D01*
X0Y893D02*
X7Y893D01*
X1456Y893D02*
X1461Y893D01*
X2313Y893D02*
X2318Y893D01*
X2682Y893D02*
X2689Y893D01*
X0Y892D02*
X7Y892D01*
X1455Y892D02*
X1460Y892D01*
X2314Y892D02*
X2319Y892D01*
X2682Y892D02*
X2689Y892D01*
X0Y891D02*
X7Y891D01*
X1454Y891D02*
X1460Y891D01*
X2315Y891D02*
X2320Y891D01*
X2682Y891D02*
X2689Y891D01*
X0Y890D02*
X7Y890D01*
X1453Y890D02*
X1459Y890D01*
X2316Y890D02*
X2321Y890D01*
X2682Y890D02*
X2689Y890D01*
X0Y889D02*
X7Y889D01*
X1453Y889D02*
X1458Y889D01*
X2316Y889D02*
X2322Y889D01*
X2682Y889D02*
X2689Y889D01*
X0Y888D02*
X7Y888D01*
X1452Y888D02*
X1457Y888D01*
X2317Y888D02*
X2323Y888D01*
X2682Y888D02*
X2689Y888D01*
X0Y887D02*
X7Y887D01*
X1451Y887D02*
X1456Y887D01*
X2318Y887D02*
X2323Y887D01*
X2682Y887D02*
X2689Y887D01*
X0Y886D02*
X7Y886D01*
X1450Y886D02*
X1455Y886D01*
X2319Y886D02*
X2324Y886D01*
X2682Y886D02*
X2689Y886D01*
X0Y885D02*
X7Y885D01*
X1449Y885D02*
X1454Y885D01*
X2320Y885D02*
X2325Y885D01*
X2682Y885D02*
X2689Y885D01*
X0Y884D02*
X7Y884D01*
X1448Y884D02*
X1453Y884D01*
X2321Y884D02*
X2326Y884D01*
X2682Y884D02*
X2689Y884D01*
X0Y883D02*
X7Y883D01*
X1447Y883D02*
X1452Y883D01*
X2322Y883D02*
X2327Y883D01*
X2682Y883D02*
X2689Y883D01*
X0Y882D02*
X7Y882D01*
X1447Y882D02*
X1452Y882D01*
X2323Y882D02*
X2328Y882D01*
X2682Y882D02*
X2689Y882D01*
X0Y881D02*
X7Y881D01*
X1446Y881D02*
X1451Y881D01*
X2323Y881D02*
X2329Y881D01*
X2682Y881D02*
X2689Y881D01*
X0Y880D02*
X7Y880D01*
X1445Y880D02*
X1450Y880D01*
X2324Y880D02*
X2329Y880D01*
X2682Y880D02*
X2689Y880D01*
X0Y879D02*
X7Y879D01*
X1444Y879D02*
X1449Y879D01*
X2325Y879D02*
X2330Y879D01*
X2682Y879D02*
X2689Y879D01*
X0Y878D02*
X7Y878D01*
X1443Y878D02*
X1448Y878D01*
X2326Y878D02*
X2331Y878D01*
X2682Y878D02*
X2689Y878D01*
X0Y877D02*
X7Y877D01*
X1442Y877D02*
X1447Y877D01*
X2327Y877D02*
X2332Y877D01*
X2682Y877D02*
X2689Y877D01*
X0Y876D02*
X7Y876D01*
X1442Y876D02*
X1447Y876D01*
X2328Y876D02*
X2333Y876D01*
X2682Y876D02*
X2689Y876D01*
X0Y875D02*
X7Y875D01*
X1441Y875D02*
X1446Y875D01*
X2329Y875D02*
X2334Y875D01*
X2682Y875D02*
X2689Y875D01*
X0Y874D02*
X7Y874D01*
X1440Y874D02*
X1445Y874D01*
X2329Y874D02*
X2334Y874D01*
X2682Y874D02*
X2689Y874D01*
X0Y873D02*
X7Y873D01*
X1439Y873D02*
X1444Y873D01*
X2330Y873D02*
X2335Y873D01*
X2682Y873D02*
X2689Y873D01*
X0Y872D02*
X7Y872D01*
X1438Y872D02*
X1443Y872D01*
X2331Y872D02*
X2336Y872D01*
X2682Y872D02*
X2689Y872D01*
X0Y871D02*
X7Y871D01*
X1437Y871D02*
X1442Y871D01*
X2332Y871D02*
X2337Y871D01*
X2682Y871D02*
X2689Y871D01*
X0Y870D02*
X7Y870D01*
X1437Y870D02*
X1442Y870D01*
X2333Y870D02*
X2338Y870D01*
X2682Y870D02*
X2689Y870D01*
X0Y869D02*
X7Y869D01*
X1436Y869D02*
X1441Y869D01*
X2333Y869D02*
X2338Y869D01*
X2682Y869D02*
X2689Y869D01*
X0Y868D02*
X7Y868D01*
X1435Y868D02*
X1440Y868D01*
X2334Y868D02*
X2339Y868D01*
X2682Y868D02*
X2689Y868D01*
X0Y867D02*
X7Y867D01*
X1434Y867D02*
X1439Y867D01*
X2335Y867D02*
X2340Y867D01*
X2682Y867D02*
X2689Y867D01*
X0Y866D02*
X7Y866D01*
X1433Y866D02*
X1438Y866D01*
X2336Y866D02*
X2341Y866D01*
X2682Y866D02*
X2689Y866D01*
X0Y865D02*
X7Y865D01*
X1433Y865D02*
X1438Y865D01*
X2337Y865D02*
X2342Y865D01*
X2682Y865D02*
X2689Y865D01*
X0Y864D02*
X7Y864D01*
X1432Y864D02*
X1437Y864D01*
X2337Y864D02*
X2342Y864D01*
X2682Y864D02*
X2689Y864D01*
X0Y863D02*
X7Y863D01*
X1431Y863D02*
X1436Y863D01*
X2338Y863D02*
X2343Y863D01*
X2682Y863D02*
X2689Y863D01*
X0Y862D02*
X7Y862D01*
X1430Y862D02*
X1435Y862D01*
X2339Y862D02*
X2344Y862D01*
X2682Y862D02*
X2689Y862D01*
X0Y861D02*
X7Y861D01*
X1430Y861D02*
X1434Y861D01*
X2340Y861D02*
X2345Y861D01*
X2682Y861D02*
X2689Y861D01*
X0Y860D02*
X7Y860D01*
X1429Y860D02*
X1434Y860D01*
X2341Y860D02*
X2345Y860D01*
X2682Y860D02*
X2689Y860D01*
X0Y859D02*
X7Y859D01*
X1428Y859D02*
X1433Y859D01*
X2341Y859D02*
X2346Y859D01*
X2682Y859D02*
X2689Y859D01*
X0Y858D02*
X7Y858D01*
X1427Y858D02*
X1432Y858D01*
X2342Y858D02*
X2347Y858D01*
X2682Y858D02*
X2689Y858D01*
X0Y857D02*
X7Y857D01*
X1427Y857D02*
X1431Y857D01*
X2343Y857D02*
X2348Y857D01*
X2682Y857D02*
X2689Y857D01*
X0Y856D02*
X7Y856D01*
X1426Y856D02*
X1431Y856D01*
X2344Y856D02*
X2348Y856D01*
X2682Y856D02*
X2689Y856D01*
X0Y855D02*
X7Y855D01*
X1425Y855D02*
X1430Y855D01*
X2344Y855D02*
X2349Y855D01*
X2682Y855D02*
X2689Y855D01*
X0Y854D02*
X7Y854D01*
X1424Y854D02*
X1429Y854D01*
X2345Y854D02*
X2350Y854D01*
X2682Y854D02*
X2689Y854D01*
X0Y853D02*
X7Y853D01*
X1424Y853D02*
X1428Y853D01*
X2346Y853D02*
X2351Y853D01*
X2682Y853D02*
X2689Y853D01*
X0Y852D02*
X7Y852D01*
X1423Y852D02*
X1428Y852D01*
X2347Y852D02*
X2351Y852D01*
X2682Y852D02*
X2689Y852D01*
X0Y851D02*
X7Y851D01*
X1422Y851D02*
X1427Y851D01*
X2347Y851D02*
X2352Y851D01*
X2682Y851D02*
X2689Y851D01*
X0Y850D02*
X7Y850D01*
X1421Y850D02*
X1426Y850D01*
X2348Y850D02*
X2353Y850D01*
X2682Y850D02*
X2689Y850D01*
X0Y849D02*
X7Y849D01*
X1421Y849D02*
X1425Y849D01*
X2349Y849D02*
X2354Y849D01*
X2682Y849D02*
X2689Y849D01*
X0Y848D02*
X7Y848D01*
X1420Y848D02*
X1425Y848D01*
X2350Y848D02*
X2354Y848D01*
X2682Y848D02*
X2689Y848D01*
X0Y847D02*
X7Y847D01*
X1419Y847D02*
X1424Y847D01*
X2350Y847D02*
X2355Y847D01*
X2682Y847D02*
X2689Y847D01*
X0Y846D02*
X7Y846D01*
X1418Y846D02*
X1423Y846D01*
X2351Y846D02*
X2356Y846D01*
X2682Y846D02*
X2689Y846D01*
X0Y845D02*
X7Y845D01*
X1418Y845D02*
X1422Y845D01*
X2352Y845D02*
X2357Y845D01*
X2682Y845D02*
X2689Y845D01*
X0Y844D02*
X7Y844D01*
X1417Y844D02*
X1422Y844D01*
X2352Y844D02*
X2357Y844D01*
X2682Y844D02*
X2689Y844D01*
X0Y843D02*
X7Y843D01*
X1416Y843D02*
X1421Y843D01*
X2353Y843D02*
X2358Y843D01*
X2682Y843D02*
X2689Y843D01*
X0Y842D02*
X7Y842D01*
X1416Y842D02*
X1420Y842D01*
X2354Y842D02*
X2359Y842D01*
X2682Y842D02*
X2689Y842D01*
X0Y841D02*
X7Y841D01*
X1415Y841D02*
X1420Y841D01*
X2355Y841D02*
X2359Y841D01*
X2682Y841D02*
X2689Y841D01*
X0Y840D02*
X7Y840D01*
X1414Y840D02*
X1419Y840D01*
X2355Y840D02*
X2360Y840D01*
X2682Y840D02*
X2689Y840D01*
X0Y839D02*
X7Y839D01*
X1413Y839D02*
X1418Y839D01*
X2356Y839D02*
X2361Y839D01*
X2682Y839D02*
X2689Y839D01*
X0Y838D02*
X7Y838D01*
X1413Y838D02*
X1417Y838D01*
X2357Y838D02*
X2361Y838D01*
X2682Y838D02*
X2689Y838D01*
X0Y837D02*
X7Y837D01*
X1412Y837D02*
X1417Y837D01*
X2357Y837D02*
X2362Y837D01*
X2682Y837D02*
X2689Y837D01*
X0Y836D02*
X7Y836D01*
X1411Y836D02*
X1416Y836D01*
X2358Y836D02*
X2363Y836D01*
X2682Y836D02*
X2689Y836D01*
X0Y835D02*
X7Y835D01*
X1411Y835D02*
X1415Y835D01*
X2359Y835D02*
X2364Y835D01*
X2682Y835D02*
X2689Y835D01*
X0Y834D02*
X7Y834D01*
X1410Y834D02*
X1415Y834D01*
X2360Y834D02*
X2364Y834D01*
X2682Y834D02*
X2689Y834D01*
X0Y833D02*
X7Y833D01*
X1409Y833D02*
X1414Y833D01*
X2360Y833D02*
X2365Y833D01*
X2682Y833D02*
X2689Y833D01*
X0Y832D02*
X7Y832D01*
X1409Y832D02*
X1413Y832D01*
X2361Y832D02*
X2366Y832D01*
X2682Y832D02*
X2689Y832D01*
X0Y831D02*
X7Y831D01*
X1408Y831D02*
X1413Y831D01*
X2362Y831D02*
X2366Y831D01*
X2682Y831D02*
X2689Y831D01*
X0Y830D02*
X7Y830D01*
X1407Y830D02*
X1412Y830D01*
X2362Y830D02*
X2367Y830D01*
X2682Y830D02*
X2689Y830D01*
X0Y829D02*
X7Y829D01*
X1407Y829D02*
X1411Y829D01*
X2363Y829D02*
X2368Y829D01*
X2682Y829D02*
X2689Y829D01*
X0Y828D02*
X7Y828D01*
X1406Y828D02*
X1411Y828D01*
X2364Y828D02*
X2368Y828D01*
X2682Y828D02*
X2689Y828D01*
X0Y827D02*
X7Y827D01*
X1405Y827D02*
X1410Y827D01*
X2364Y827D02*
X2369Y827D01*
X2682Y827D02*
X2689Y827D01*
X0Y826D02*
X7Y826D01*
X1405Y826D02*
X1409Y826D01*
X2365Y826D02*
X2370Y826D01*
X2682Y826D02*
X2689Y826D01*
X0Y825D02*
X7Y825D01*
X1404Y825D02*
X1409Y825D01*
X2366Y825D02*
X2370Y825D01*
X2682Y825D02*
X2689Y825D01*
X0Y824D02*
X7Y824D01*
X1403Y824D02*
X1408Y824D01*
X2366Y824D02*
X2371Y824D01*
X2682Y824D02*
X2689Y824D01*
X0Y823D02*
X7Y823D01*
X1403Y823D02*
X1407Y823D01*
X2367Y823D02*
X2372Y823D01*
X2682Y823D02*
X2689Y823D01*
X0Y822D02*
X7Y822D01*
X1402Y822D02*
X1407Y822D01*
X2368Y822D02*
X2372Y822D01*
X2682Y822D02*
X2689Y822D01*
X0Y821D02*
X7Y821D01*
X1401Y821D02*
X1406Y821D01*
X2368Y821D02*
X2373Y821D01*
X2682Y821D02*
X2689Y821D01*
X0Y820D02*
X7Y820D01*
X1401Y820D02*
X1405Y820D01*
X2369Y820D02*
X2373Y820D01*
X2682Y820D02*
X2689Y820D01*
X0Y819D02*
X7Y819D01*
X1400Y819D02*
X1405Y819D01*
X2370Y819D02*
X2374Y819D01*
X2682Y819D02*
X2689Y819D01*
X0Y818D02*
X7Y818D01*
X1400Y818D02*
X1404Y818D01*
X2370Y818D02*
X2375Y818D01*
X2682Y818D02*
X2689Y818D01*
X0Y817D02*
X7Y817D01*
X1399Y817D02*
X1403Y817D01*
X2371Y817D02*
X2375Y817D01*
X2682Y817D02*
X2689Y817D01*
X0Y816D02*
X7Y816D01*
X1398Y816D02*
X1403Y816D01*
X2371Y816D02*
X2376Y816D01*
X2682Y816D02*
X2689Y816D01*
X0Y815D02*
X7Y815D01*
X1398Y815D02*
X1402Y815D01*
X2372Y815D02*
X2377Y815D01*
X2682Y815D02*
X2689Y815D01*
X0Y814D02*
X7Y814D01*
X1397Y814D02*
X1402Y814D01*
X2373Y814D02*
X2377Y814D01*
X2682Y814D02*
X2689Y814D01*
X0Y813D02*
X7Y813D01*
X1396Y813D02*
X1401Y813D01*
X2373Y813D02*
X2378Y813D01*
X2682Y813D02*
X2689Y813D01*
X0Y812D02*
X7Y812D01*
X1396Y812D02*
X1400Y812D01*
X2374Y812D02*
X2378Y812D01*
X2682Y812D02*
X2689Y812D01*
X0Y811D02*
X7Y811D01*
X1395Y811D02*
X1400Y811D01*
X2375Y811D02*
X2379Y811D01*
X2682Y811D02*
X2689Y811D01*
X0Y810D02*
X7Y810D01*
X1395Y810D02*
X1399Y810D01*
X2375Y810D02*
X2380Y810D01*
X2682Y810D02*
X2689Y810D01*
X0Y809D02*
X7Y809D01*
X1394Y809D02*
X1398Y809D01*
X2376Y809D02*
X2380Y809D01*
X2682Y809D02*
X2689Y809D01*
X0Y808D02*
X7Y808D01*
X1393Y808D02*
X1398Y808D01*
X2376Y808D02*
X2381Y808D01*
X2682Y808D02*
X2689Y808D01*
X0Y807D02*
X7Y807D01*
X1393Y807D02*
X1397Y807D01*
X2377Y807D02*
X2382Y807D01*
X2682Y807D02*
X2689Y807D01*
X0Y806D02*
X7Y806D01*
X1392Y806D02*
X1397Y806D01*
X2378Y806D02*
X2382Y806D01*
X2682Y806D02*
X2689Y806D01*
X0Y805D02*
X7Y805D01*
X1392Y805D02*
X1396Y805D01*
X2378Y805D02*
X2383Y805D01*
X2682Y805D02*
X2689Y805D01*
X0Y804D02*
X7Y804D01*
X1391Y804D02*
X1395Y804D01*
X2379Y804D02*
X2383Y804D01*
X2682Y804D02*
X2689Y804D01*
X0Y803D02*
X7Y803D01*
X1390Y803D02*
X1395Y803D01*
X2379Y803D02*
X2384Y803D01*
X2682Y803D02*
X2689Y803D01*
X0Y802D02*
X7Y802D01*
X1390Y802D02*
X1394Y802D01*
X2380Y802D02*
X2385Y802D01*
X2682Y802D02*
X2689Y802D01*
X0Y801D02*
X7Y801D01*
X1389Y801D02*
X1394Y801D01*
X2381Y801D02*
X2385Y801D01*
X2682Y801D02*
X2689Y801D01*
X0Y800D02*
X7Y800D01*
X1389Y800D02*
X1393Y800D01*
X2381Y800D02*
X2386Y800D01*
X2682Y800D02*
X2689Y800D01*
X0Y799D02*
X7Y799D01*
X1388Y799D02*
X1392Y799D01*
X2382Y799D02*
X2386Y799D01*
X2682Y799D02*
X2689Y799D01*
X0Y798D02*
X7Y798D01*
X1387Y798D02*
X1392Y798D01*
X2382Y798D02*
X2387Y798D01*
X2682Y798D02*
X2689Y798D01*
X0Y797D02*
X7Y797D01*
X1387Y797D02*
X1391Y797D01*
X2383Y797D02*
X2387Y797D01*
X2682Y797D02*
X2689Y797D01*
X0Y796D02*
X7Y796D01*
X1386Y796D02*
X1391Y796D01*
X2384Y796D02*
X2388Y796D01*
X2682Y796D02*
X2689Y796D01*
X0Y795D02*
X7Y795D01*
X1386Y795D02*
X1390Y795D01*
X2384Y795D02*
X2389Y795D01*
X2682Y795D02*
X2689Y795D01*
X0Y794D02*
X7Y794D01*
X1385Y794D02*
X1389Y794D01*
X2385Y794D02*
X2389Y794D01*
X2682Y794D02*
X2689Y794D01*
X0Y793D02*
X7Y793D01*
X1385Y793D02*
X1389Y793D01*
X2385Y793D02*
X2390Y793D01*
X2682Y793D02*
X2689Y793D01*
X0Y792D02*
X7Y792D01*
X1384Y792D02*
X1388Y792D01*
X2386Y792D02*
X2390Y792D01*
X2682Y792D02*
X2689Y792D01*
X0Y791D02*
X7Y791D01*
X1383Y791D02*
X1388Y791D01*
X2386Y791D02*
X2391Y791D01*
X2682Y791D02*
X2689Y791D01*
X0Y790D02*
X7Y790D01*
X1383Y790D02*
X1387Y790D01*
X2387Y790D02*
X2391Y790D01*
X2682Y790D02*
X2689Y790D01*
X0Y789D02*
X7Y789D01*
X1382Y789D02*
X1387Y789D01*
X2388Y789D02*
X2392Y789D01*
X2682Y789D02*
X2689Y789D01*
X0Y788D02*
X7Y788D01*
X1382Y788D02*
X1386Y788D01*
X2388Y788D02*
X2393Y788D01*
X2682Y788D02*
X2689Y788D01*
X0Y787D02*
X7Y787D01*
X1381Y787D02*
X1386Y787D01*
X2389Y787D02*
X2393Y787D01*
X2682Y787D02*
X2689Y787D01*
X0Y786D02*
X7Y786D01*
X1381Y786D02*
X1385Y786D01*
X2389Y786D02*
X2394Y786D01*
X2682Y786D02*
X2689Y786D01*
X0Y785D02*
X7Y785D01*
X1380Y785D02*
X1384Y785D01*
X2390Y785D02*
X2394Y785D01*
X2682Y785D02*
X2689Y785D01*
X0Y784D02*
X7Y784D01*
X1380Y784D02*
X1384Y784D01*
X2390Y784D02*
X2395Y784D01*
X2682Y784D02*
X2689Y784D01*
X0Y783D02*
X7Y783D01*
X1379Y783D02*
X1383Y783D01*
X2391Y783D02*
X2395Y783D01*
X2682Y783D02*
X2689Y783D01*
X0Y782D02*
X7Y782D01*
X1378Y782D02*
X1383Y782D01*
X2391Y782D02*
X2396Y782D01*
X2682Y782D02*
X2689Y782D01*
X0Y781D02*
X7Y781D01*
X1378Y781D02*
X1382Y781D01*
X2392Y781D02*
X2396Y781D01*
X2682Y781D02*
X2689Y781D01*
X0Y780D02*
X7Y780D01*
X1377Y780D02*
X1382Y780D01*
X2392Y780D02*
X2397Y780D01*
X2682Y780D02*
X2689Y780D01*
X0Y779D02*
X7Y779D01*
X1377Y779D02*
X1381Y779D01*
X2393Y779D02*
X2397Y779D01*
X2682Y779D02*
X2689Y779D01*
X0Y778D02*
X7Y778D01*
X1376Y778D02*
X1381Y778D01*
X2394Y778D02*
X2398Y778D01*
X2682Y778D02*
X2689Y778D01*
X0Y777D02*
X7Y777D01*
X1376Y777D02*
X1380Y777D01*
X2394Y777D02*
X2398Y777D01*
X2682Y777D02*
X2689Y777D01*
X0Y776D02*
X7Y776D01*
X1375Y776D02*
X1380Y776D01*
X2395Y776D02*
X2399Y776D01*
X2682Y776D02*
X2689Y776D01*
X0Y775D02*
X7Y775D01*
X1375Y775D02*
X1379Y775D01*
X2395Y775D02*
X2399Y775D01*
X2682Y775D02*
X2689Y775D01*
X0Y774D02*
X7Y774D01*
X381Y774D02*
X447Y774D01*
X648Y774D02*
X695Y774D01*
X1374Y774D02*
X1379Y774D01*
X2396Y774D02*
X2400Y774D01*
X2682Y774D02*
X2689Y774D01*
X0Y773D02*
X7Y773D01*
X381Y773D02*
X447Y773D01*
X648Y773D02*
X695Y773D01*
X1374Y773D02*
X1378Y773D01*
X2396Y773D02*
X2401Y773D01*
X2682Y773D02*
X2689Y773D01*
X0Y772D02*
X7Y772D01*
X381Y772D02*
X447Y772D01*
X648Y772D02*
X695Y772D01*
X1373Y772D02*
X1378Y772D01*
X2397Y772D02*
X2401Y772D01*
X2682Y772D02*
X2689Y772D01*
X0Y771D02*
X7Y771D01*
X381Y771D02*
X447Y771D01*
X648Y771D02*
X695Y771D01*
X1373Y771D02*
X1377Y771D01*
X2397Y771D02*
X2402Y771D01*
X2682Y771D02*
X2689Y771D01*
X0Y770D02*
X7Y770D01*
X381Y770D02*
X447Y770D01*
X648Y770D02*
X695Y770D01*
X1372Y770D02*
X1376Y770D01*
X2398Y770D02*
X2402Y770D01*
X2682Y770D02*
X2689Y770D01*
X0Y769D02*
X7Y769D01*
X381Y769D02*
X447Y769D01*
X648Y769D02*
X695Y769D01*
X1372Y769D02*
X1376Y769D01*
X2398Y769D02*
X2403Y769D01*
X2682Y769D02*
X2689Y769D01*
X0Y768D02*
X7Y768D01*
X381Y768D02*
X447Y768D01*
X648Y768D02*
X695Y768D01*
X1371Y768D02*
X1375Y768D01*
X2399Y768D02*
X2403Y768D01*
X2682Y768D02*
X2689Y768D01*
X0Y767D02*
X7Y767D01*
X381Y767D02*
X447Y767D01*
X648Y767D02*
X695Y767D01*
X1371Y767D02*
X1375Y767D01*
X2399Y767D02*
X2404Y767D01*
X2682Y767D02*
X2689Y767D01*
X0Y766D02*
X7Y766D01*
X381Y766D02*
X447Y766D01*
X648Y766D02*
X695Y766D01*
X1370Y766D02*
X1375Y766D01*
X2400Y766D02*
X2404Y766D01*
X2682Y766D02*
X2689Y766D01*
X0Y765D02*
X7Y765D01*
X381Y765D02*
X447Y765D01*
X648Y765D02*
X695Y765D01*
X1370Y765D02*
X1374Y765D01*
X2400Y765D02*
X2405Y765D01*
X2682Y765D02*
X2689Y765D01*
X0Y764D02*
X7Y764D01*
X1369Y764D02*
X1374Y764D01*
X2401Y764D02*
X2405Y764D01*
X2682Y764D02*
X2689Y764D01*
X0Y763D02*
X7Y763D01*
X1369Y763D02*
X1373Y763D01*
X2401Y763D02*
X2406Y763D01*
X2682Y763D02*
X2689Y763D01*
X0Y762D02*
X7Y762D01*
X1368Y762D02*
X1373Y762D01*
X2402Y762D02*
X2406Y762D01*
X2682Y762D02*
X2689Y762D01*
X0Y761D02*
X7Y761D01*
X1368Y761D02*
X1372Y761D01*
X2402Y761D02*
X2407Y761D01*
X2682Y761D02*
X2689Y761D01*
X0Y760D02*
X7Y760D01*
X1367Y760D02*
X1372Y760D01*
X2403Y760D02*
X2407Y760D01*
X2682Y760D02*
X2689Y760D01*
X0Y759D02*
X7Y759D01*
X1367Y759D02*
X1371Y759D01*
X2403Y759D02*
X2407Y759D01*
X2682Y759D02*
X2689Y759D01*
X0Y758D02*
X7Y758D01*
X1366Y758D02*
X1371Y758D01*
X2404Y758D02*
X2408Y758D01*
X2682Y758D02*
X2689Y758D01*
X0Y757D02*
X7Y757D01*
X1079Y757D02*
X1085Y757D01*
X1366Y757D02*
X1370Y757D01*
X2404Y757D02*
X2408Y757D01*
X2682Y757D02*
X2689Y757D01*
X0Y756D02*
X7Y756D01*
X1079Y756D02*
X1090Y756D01*
X1365Y756D02*
X1370Y756D01*
X2405Y756D02*
X2409Y756D01*
X2682Y756D02*
X2689Y756D01*
X0Y755D02*
X7Y755D01*
X1078Y755D02*
X1093Y755D01*
X1365Y755D02*
X1369Y755D01*
X2405Y755D02*
X2409Y755D01*
X2682Y755D02*
X2689Y755D01*
X0Y754D02*
X7Y754D01*
X1078Y754D02*
X1095Y754D01*
X1364Y754D02*
X1369Y754D01*
X2406Y754D02*
X2410Y754D01*
X2682Y754D02*
X2689Y754D01*
X0Y753D02*
X7Y753D01*
X1078Y753D02*
X1097Y753D01*
X1364Y753D02*
X1368Y753D01*
X2406Y753D02*
X2410Y753D01*
X2682Y753D02*
X2689Y753D01*
X0Y752D02*
X7Y752D01*
X1077Y752D02*
X1099Y752D01*
X1363Y752D02*
X1368Y752D01*
X2407Y752D02*
X2411Y752D01*
X2682Y752D02*
X2689Y752D01*
X0Y751D02*
X7Y751D01*
X1077Y751D02*
X1101Y751D01*
X1363Y751D02*
X1367Y751D01*
X2407Y751D02*
X2411Y751D01*
X2682Y751D02*
X2689Y751D01*
X0Y750D02*
X7Y750D01*
X1076Y750D02*
X1103Y750D01*
X1363Y750D02*
X1367Y750D01*
X2407Y750D02*
X2412Y750D01*
X2682Y750D02*
X2689Y750D01*
X0Y749D02*
X7Y749D01*
X1077Y749D02*
X1104Y749D01*
X1362Y749D02*
X1366Y749D01*
X2408Y749D02*
X2412Y749D01*
X2682Y749D02*
X2689Y749D01*
X0Y748D02*
X7Y748D01*
X1079Y748D02*
X1105Y748D01*
X1362Y748D02*
X1366Y748D01*
X2408Y748D02*
X2413Y748D01*
X2682Y748D02*
X2689Y748D01*
X0Y747D02*
X7Y747D01*
X1086Y747D02*
X1107Y747D01*
X1361Y747D02*
X1365Y747D01*
X2409Y747D02*
X2413Y747D01*
X2682Y747D02*
X2689Y747D01*
X0Y746D02*
X7Y746D01*
X1090Y746D02*
X1108Y746D01*
X1361Y746D02*
X1365Y746D01*
X2409Y746D02*
X2414Y746D01*
X2682Y746D02*
X2689Y746D01*
X0Y745D02*
X7Y745D01*
X1092Y745D02*
X1109Y745D01*
X1360Y745D02*
X1364Y745D01*
X2410Y745D02*
X2414Y745D01*
X2682Y745D02*
X2689Y745D01*
X0Y744D02*
X7Y744D01*
X1095Y744D02*
X1110Y744D01*
X1360Y744D02*
X1364Y744D01*
X2410Y744D02*
X2414Y744D01*
X2682Y744D02*
X2689Y744D01*
X0Y743D02*
X7Y743D01*
X1096Y743D02*
X1111Y743D01*
X1359Y743D02*
X1364Y743D01*
X2411Y743D02*
X2415Y743D01*
X2682Y743D02*
X2689Y743D01*
X0Y742D02*
X7Y742D01*
X1098Y742D02*
X1112Y742D01*
X1359Y742D02*
X1363Y742D01*
X2411Y742D02*
X2415Y742D01*
X2682Y742D02*
X2689Y742D01*
X0Y741D02*
X7Y741D01*
X1100Y741D02*
X1113Y741D01*
X1358Y741D02*
X1363Y741D01*
X2412Y741D02*
X2416Y741D01*
X2682Y741D02*
X2689Y741D01*
X0Y740D02*
X7Y740D01*
X1101Y740D02*
X1114Y740D01*
X1358Y740D02*
X1362Y740D01*
X2412Y740D02*
X2416Y740D01*
X2682Y740D02*
X2689Y740D01*
X0Y739D02*
X7Y739D01*
X1102Y739D02*
X1115Y739D01*
X1358Y739D02*
X1362Y739D01*
X2412Y739D02*
X2417Y739D01*
X2682Y739D02*
X2689Y739D01*
X0Y738D02*
X7Y738D01*
X1103Y738D02*
X1116Y738D01*
X1357Y738D02*
X1361Y738D01*
X2413Y738D02*
X2417Y738D01*
X2682Y738D02*
X2689Y738D01*
X0Y737D02*
X7Y737D01*
X1104Y737D02*
X1116Y737D01*
X1357Y737D02*
X1361Y737D01*
X2413Y737D02*
X2417Y737D01*
X2682Y737D02*
X2689Y737D01*
X0Y736D02*
X7Y736D01*
X1105Y736D02*
X1117Y736D01*
X1356Y736D02*
X1361Y736D01*
X2414Y736D02*
X2418Y736D01*
X2682Y736D02*
X2689Y736D01*
X0Y735D02*
X7Y735D01*
X1106Y735D02*
X1118Y735D01*
X1356Y735D02*
X1360Y735D01*
X2414Y735D02*
X2418Y735D01*
X2682Y735D02*
X2689Y735D01*
X0Y734D02*
X7Y734D01*
X1107Y734D02*
X1119Y734D01*
X1355Y734D02*
X1360Y734D01*
X2415Y734D02*
X2419Y734D01*
X2682Y734D02*
X2689Y734D01*
X0Y733D02*
X7Y733D01*
X1108Y733D02*
X1119Y733D01*
X1355Y733D02*
X1359Y733D01*
X2415Y733D02*
X2419Y733D01*
X2682Y733D02*
X2689Y733D01*
X0Y732D02*
X7Y732D01*
X1109Y732D02*
X1120Y732D01*
X1355Y732D02*
X1359Y732D01*
X2415Y732D02*
X2420Y732D01*
X2682Y732D02*
X2689Y732D01*
X0Y731D02*
X7Y731D01*
X1110Y731D02*
X1121Y731D01*
X1354Y731D02*
X1358Y731D01*
X2416Y731D02*
X2420Y731D01*
X2682Y731D02*
X2689Y731D01*
X0Y730D02*
X7Y730D01*
X1110Y730D02*
X1121Y730D01*
X1354Y730D02*
X1358Y730D01*
X2416Y730D02*
X2420Y730D01*
X2682Y730D02*
X2689Y730D01*
X0Y729D02*
X7Y729D01*
X1111Y729D02*
X1122Y729D01*
X1353Y729D02*
X1358Y729D01*
X2417Y729D02*
X2421Y729D01*
X2682Y729D02*
X2689Y729D01*
X0Y728D02*
X7Y728D01*
X1112Y728D02*
X1122Y728D01*
X1353Y728D02*
X1357Y728D01*
X2417Y728D02*
X2421Y728D01*
X2682Y728D02*
X2689Y728D01*
X0Y727D02*
X7Y727D01*
X1112Y727D02*
X1123Y727D01*
X1353Y727D02*
X1357Y727D01*
X2417Y727D02*
X2422Y727D01*
X2682Y727D02*
X2689Y727D01*
X0Y726D02*
X7Y726D01*
X1113Y726D02*
X1124Y726D01*
X1352Y726D02*
X1356Y726D01*
X2418Y726D02*
X2422Y726D01*
X2682Y726D02*
X2689Y726D01*
X0Y725D02*
X7Y725D01*
X1114Y725D02*
X1124Y725D01*
X1352Y725D02*
X1356Y725D01*
X2418Y725D02*
X2422Y725D01*
X2682Y725D02*
X2689Y725D01*
X0Y724D02*
X7Y724D01*
X1114Y724D02*
X1125Y724D01*
X1351Y724D02*
X1356Y724D01*
X2419Y724D02*
X2423Y724D01*
X2682Y724D02*
X2689Y724D01*
X0Y723D02*
X7Y723D01*
X1115Y723D02*
X1125Y723D01*
X1351Y723D02*
X1355Y723D01*
X2419Y723D02*
X2423Y723D01*
X2682Y723D02*
X2689Y723D01*
X0Y722D02*
X7Y722D01*
X1115Y722D02*
X1126Y722D01*
X1351Y722D02*
X1355Y722D01*
X2419Y722D02*
X2424Y722D01*
X2682Y722D02*
X2689Y722D01*
X0Y721D02*
X7Y721D01*
X1116Y721D02*
X1126Y721D01*
X1350Y721D02*
X1354Y721D01*
X2420Y721D02*
X2424Y721D01*
X2682Y721D02*
X2689Y721D01*
X0Y720D02*
X7Y720D01*
X1117Y720D02*
X1127Y720D01*
X1350Y720D02*
X1354Y720D01*
X2420Y720D02*
X2424Y720D01*
X2682Y720D02*
X2689Y720D01*
X0Y719D02*
X7Y719D01*
X1117Y719D02*
X1127Y719D01*
X1349Y719D02*
X1354Y719D01*
X2421Y719D02*
X2425Y719D01*
X2682Y719D02*
X2689Y719D01*
X0Y718D02*
X7Y718D01*
X1118Y718D02*
X1128Y718D01*
X1349Y718D02*
X1353Y718D01*
X2421Y718D02*
X2425Y718D01*
X2682Y718D02*
X2689Y718D01*
X0Y717D02*
X7Y717D01*
X1118Y717D02*
X1128Y717D01*
X1349Y717D02*
X1353Y717D01*
X2421Y717D02*
X2426Y717D01*
X2682Y717D02*
X2689Y717D01*
X0Y716D02*
X7Y716D01*
X1118Y716D02*
X1128Y716D01*
X1348Y716D02*
X1352Y716D01*
X2422Y716D02*
X2426Y716D01*
X2682Y716D02*
X2689Y716D01*
X0Y715D02*
X7Y715D01*
X1119Y715D02*
X1129Y715D01*
X1348Y715D02*
X1352Y715D01*
X2422Y715D02*
X2426Y715D01*
X2682Y715D02*
X2689Y715D01*
X0Y714D02*
X7Y714D01*
X1119Y714D02*
X1129Y714D01*
X1347Y714D02*
X1352Y714D01*
X2423Y714D02*
X2427Y714D01*
X2682Y714D02*
X2689Y714D01*
X0Y713D02*
X7Y713D01*
X627Y713D02*
X652Y713D01*
X679Y713D02*
X697Y713D01*
X1120Y713D02*
X1129Y713D01*
X1347Y713D02*
X1351Y713D01*
X2423Y713D02*
X2427Y713D01*
X2682Y713D02*
X2689Y713D01*
X0Y712D02*
X7Y712D01*
X627Y712D02*
X655Y712D01*
X678Y712D02*
X697Y712D01*
X1120Y712D02*
X1130Y712D01*
X1347Y712D02*
X1351Y712D01*
X2423Y712D02*
X2428Y712D01*
X2682Y712D02*
X2689Y712D01*
X0Y711D02*
X7Y711D01*
X627Y711D02*
X656Y711D01*
X677Y711D02*
X697Y711D01*
X1121Y711D02*
X1130Y711D01*
X1346Y711D02*
X1350Y711D01*
X2424Y711D02*
X2428Y711D01*
X2682Y711D02*
X2689Y711D01*
X0Y710D02*
X7Y710D01*
X627Y710D02*
X657Y710D01*
X677Y710D02*
X697Y710D01*
X1121Y710D02*
X1131Y710D01*
X1346Y710D02*
X1350Y710D01*
X2424Y710D02*
X2428Y710D01*
X2682Y710D02*
X2689Y710D01*
X0Y709D02*
X7Y709D01*
X627Y709D02*
X658Y709D01*
X677Y709D02*
X697Y709D01*
X1121Y709D02*
X1131Y709D01*
X1346Y709D02*
X1350Y709D01*
X2424Y709D02*
X2429Y709D01*
X2682Y709D02*
X2689Y709D01*
X0Y708D02*
X7Y708D01*
X627Y708D02*
X659Y708D01*
X678Y708D02*
X697Y708D01*
X1122Y708D02*
X1131Y708D01*
X1345Y708D02*
X1349Y708D01*
X2425Y708D02*
X2429Y708D01*
X2682Y708D02*
X2689Y708D01*
X0Y707D02*
X7Y707D01*
X627Y707D02*
X659Y707D01*
X679Y707D02*
X697Y707D01*
X1122Y707D02*
X1132Y707D01*
X1345Y707D02*
X1349Y707D01*
X2425Y707D02*
X2429Y707D01*
X2682Y707D02*
X2689Y707D01*
X0Y706D02*
X7Y706D01*
X627Y706D02*
X633Y706D01*
X652Y706D02*
X660Y706D01*
X691Y706D02*
X697Y706D01*
X1122Y706D02*
X1132Y706D01*
X1344Y706D02*
X1349Y706D01*
X2426Y706D02*
X2430Y706D01*
X2682Y706D02*
X2689Y706D01*
X0Y705D02*
X7Y705D01*
X627Y705D02*
X633Y705D01*
X653Y705D02*
X660Y705D01*
X691Y705D02*
X697Y705D01*
X1123Y705D02*
X1132Y705D01*
X1344Y705D02*
X1348Y705D01*
X2426Y705D02*
X2430Y705D01*
X2682Y705D02*
X2689Y705D01*
X0Y704D02*
X7Y704D01*
X627Y704D02*
X633Y704D01*
X654Y704D02*
X660Y704D01*
X691Y704D02*
X697Y704D01*
X1123Y704D02*
X1132Y704D01*
X1344Y704D02*
X1348Y704D01*
X2426Y704D02*
X2430Y704D01*
X2682Y704D02*
X2689Y704D01*
X0Y703D02*
X7Y703D01*
X627Y703D02*
X633Y703D01*
X654Y703D02*
X660Y703D01*
X691Y703D02*
X697Y703D01*
X1123Y703D02*
X1133Y703D01*
X1343Y703D02*
X1348Y703D01*
X2427Y703D02*
X2431Y703D01*
X2682Y703D02*
X2689Y703D01*
X0Y702D02*
X7Y702D01*
X627Y702D02*
X633Y702D01*
X654Y702D02*
X660Y702D01*
X691Y702D02*
X697Y702D01*
X1124Y702D02*
X1133Y702D01*
X1343Y702D02*
X1347Y702D01*
X2427Y702D02*
X2431Y702D01*
X2682Y702D02*
X2689Y702D01*
X0Y701D02*
X7Y701D01*
X627Y701D02*
X633Y701D01*
X654Y701D02*
X660Y701D01*
X691Y701D02*
X697Y701D01*
X1124Y701D02*
X1133Y701D01*
X1343Y701D02*
X1347Y701D01*
X2427Y701D02*
X2432Y701D01*
X2682Y701D02*
X2689Y701D01*
X0Y700D02*
X7Y700D01*
X627Y700D02*
X633Y700D01*
X654Y700D02*
X660Y700D01*
X691Y700D02*
X697Y700D01*
X1124Y700D02*
X1133Y700D01*
X1342Y700D02*
X1346Y700D01*
X2428Y700D02*
X2432Y700D01*
X2682Y700D02*
X2689Y700D01*
X0Y699D02*
X7Y699D01*
X627Y699D02*
X633Y699D01*
X654Y699D02*
X660Y699D01*
X691Y699D02*
X697Y699D01*
X1125Y699D02*
X1134Y699D01*
X1342Y699D02*
X1346Y699D01*
X2428Y699D02*
X2432Y699D01*
X2682Y699D02*
X2689Y699D01*
X0Y698D02*
X7Y698D01*
X627Y698D02*
X633Y698D01*
X654Y698D02*
X660Y698D01*
X691Y698D02*
X697Y698D01*
X1125Y698D02*
X1134Y698D01*
X1198Y698D02*
X1203Y698D01*
X1227Y698D02*
X1245Y698D01*
X1342Y698D02*
X1346Y698D01*
X2428Y698D02*
X2433Y698D01*
X2682Y698D02*
X2689Y698D01*
X0Y697D02*
X7Y697D01*
X627Y697D02*
X633Y697D01*
X653Y697D02*
X660Y697D01*
X691Y697D02*
X697Y697D01*
X1125Y697D02*
X1134Y697D01*
X1196Y697D02*
X1205Y697D01*
X1226Y697D02*
X1245Y697D01*
X1341Y697D02*
X1345Y697D01*
X2429Y697D02*
X2433Y697D01*
X2682Y697D02*
X2689Y697D01*
X0Y696D02*
X7Y696D01*
X627Y696D02*
X633Y696D01*
X652Y696D02*
X660Y696D01*
X691Y696D02*
X697Y696D01*
X1125Y696D02*
X1134Y696D01*
X1195Y696D02*
X1206Y696D01*
X1226Y696D02*
X1245Y696D01*
X1341Y696D02*
X1345Y696D01*
X2429Y696D02*
X2433Y696D01*
X2682Y696D02*
X2689Y696D01*
X0Y695D02*
X7Y695D01*
X627Y695D02*
X659Y695D01*
X691Y695D02*
X697Y695D01*
X1125Y695D02*
X1135Y695D01*
X1194Y695D02*
X1207Y695D01*
X1225Y695D02*
X1245Y695D01*
X1341Y695D02*
X1345Y695D01*
X2429Y695D02*
X2434Y695D01*
X2682Y695D02*
X2689Y695D01*
X0Y694D02*
X7Y694D01*
X627Y694D02*
X659Y694D01*
X691Y694D02*
X697Y694D01*
X1126Y694D02*
X1135Y694D01*
X1193Y694D02*
X1208Y694D01*
X1226Y694D02*
X1245Y694D01*
X1340Y694D02*
X1344Y694D01*
X2430Y694D02*
X2434Y694D01*
X2682Y694D02*
X2689Y694D01*
X0Y693D02*
X7Y693D01*
X627Y693D02*
X658Y693D01*
X691Y693D02*
X697Y693D01*
X1126Y693D02*
X1135Y693D01*
X1192Y693D02*
X1208Y693D01*
X1226Y693D02*
X1245Y693D01*
X1340Y693D02*
X1344Y693D01*
X2430Y693D02*
X2434Y693D01*
X2682Y693D02*
X2689Y693D01*
X0Y692D02*
X7Y692D01*
X627Y692D02*
X657Y692D01*
X691Y692D02*
X697Y692D01*
X1126Y692D02*
X1135Y692D01*
X1190Y692D02*
X1209Y692D01*
X1227Y692D02*
X1245Y692D01*
X1340Y692D02*
X1344Y692D01*
X2431Y692D02*
X2435Y692D01*
X2682Y692D02*
X2689Y692D01*
X0Y691D02*
X7Y691D01*
X627Y691D02*
X656Y691D01*
X691Y691D02*
X697Y691D01*
X1126Y691D02*
X1135Y691D01*
X1189Y691D02*
X1199Y691D01*
X1202Y691D02*
X1209Y691D01*
X1239Y691D02*
X1245Y691D01*
X1339Y691D02*
X1343Y691D01*
X2431Y691D02*
X2435Y691D01*
X2682Y691D02*
X2689Y691D01*
X0Y690D02*
X7Y690D01*
X627Y690D02*
X655Y690D01*
X691Y690D02*
X697Y690D01*
X1126Y690D02*
X1135Y690D01*
X1188Y690D02*
X1198Y690D01*
X1203Y690D02*
X1209Y690D01*
X1239Y690D02*
X1245Y690D01*
X1339Y690D02*
X1343Y690D01*
X2431Y690D02*
X2435Y690D01*
X2682Y690D02*
X2689Y690D01*
X0Y689D02*
X7Y689D01*
X627Y689D02*
X652Y689D01*
X691Y689D02*
X697Y689D01*
X1127Y689D02*
X1136Y689D01*
X1187Y689D02*
X1197Y689D01*
X1203Y689D02*
X1209Y689D01*
X1239Y689D02*
X1245Y689D01*
X1339Y689D02*
X1343Y689D01*
X2431Y689D02*
X2436Y689D01*
X2682Y689D02*
X2689Y689D01*
X0Y688D02*
X7Y688D01*
X627Y688D02*
X633Y688D01*
X639Y688D02*
X646Y688D01*
X691Y688D02*
X697Y688D01*
X1127Y688D02*
X1136Y688D01*
X1186Y688D02*
X1196Y688D01*
X1203Y688D02*
X1209Y688D01*
X1239Y688D02*
X1245Y688D01*
X1338Y688D02*
X1342Y688D01*
X2432Y688D02*
X2436Y688D01*
X2682Y688D02*
X2689Y688D01*
X0Y687D02*
X7Y687D01*
X627Y687D02*
X633Y687D01*
X639Y687D02*
X647Y687D01*
X691Y687D02*
X697Y687D01*
X1127Y687D02*
X1136Y687D01*
X1185Y687D02*
X1194Y687D01*
X1203Y687D02*
X1209Y687D01*
X1239Y687D02*
X1245Y687D01*
X1338Y687D02*
X1342Y687D01*
X2432Y687D02*
X2436Y687D01*
X2682Y687D02*
X2689Y687D01*
X0Y686D02*
X7Y686D01*
X627Y686D02*
X633Y686D01*
X640Y686D02*
X647Y686D01*
X691Y686D02*
X697Y686D01*
X1127Y686D02*
X1136Y686D01*
X1183Y686D02*
X1193Y686D01*
X1203Y686D02*
X1209Y686D01*
X1239Y686D02*
X1245Y686D01*
X1338Y686D02*
X1342Y686D01*
X2432Y686D02*
X2437Y686D01*
X2682Y686D02*
X2689Y686D01*
X0Y685D02*
X7Y685D01*
X627Y685D02*
X633Y685D01*
X641Y685D02*
X648Y685D01*
X691Y685D02*
X697Y685D01*
X1127Y685D02*
X1136Y685D01*
X1182Y685D02*
X1192Y685D01*
X1203Y685D02*
X1209Y685D01*
X1239Y685D02*
X1245Y685D01*
X1337Y685D02*
X1341Y685D01*
X2433Y685D02*
X2437Y685D01*
X2682Y685D02*
X2689Y685D01*
X0Y684D02*
X7Y684D01*
X627Y684D02*
X633Y684D01*
X641Y684D02*
X648Y684D01*
X691Y684D02*
X697Y684D01*
X1127Y684D02*
X1136Y684D01*
X1181Y684D02*
X1191Y684D01*
X1203Y684D02*
X1209Y684D01*
X1239Y684D02*
X1245Y684D01*
X1337Y684D02*
X1341Y684D01*
X2433Y684D02*
X2437Y684D01*
X2682Y684D02*
X2689Y684D01*
X0Y683D02*
X7Y683D01*
X627Y683D02*
X633Y683D01*
X642Y683D02*
X649Y683D01*
X691Y683D02*
X697Y683D01*
X706Y683D02*
X709Y683D01*
X1127Y683D02*
X1136Y683D01*
X1180Y683D02*
X1190Y683D01*
X1203Y683D02*
X1209Y683D01*
X1239Y683D02*
X1245Y683D01*
X1337Y683D02*
X1341Y683D01*
X2433Y683D02*
X2438Y683D01*
X2682Y683D02*
X2689Y683D01*
X0Y682D02*
X7Y682D01*
X627Y682D02*
X633Y682D01*
X642Y682D02*
X650Y682D01*
X691Y682D02*
X697Y682D01*
X705Y682D02*
X710Y682D01*
X1128Y682D02*
X1137Y682D01*
X1179Y682D02*
X1188Y682D01*
X1203Y682D02*
X1209Y682D01*
X1239Y682D02*
X1245Y682D01*
X1336Y682D02*
X1340Y682D01*
X2434Y682D02*
X2438Y682D01*
X2682Y682D02*
X2689Y682D01*
X0Y681D02*
X7Y681D01*
X627Y681D02*
X633Y681D01*
X643Y681D02*
X650Y681D01*
X691Y681D02*
X697Y681D01*
X705Y681D02*
X710Y681D01*
X1128Y681D02*
X1137Y681D01*
X1178Y681D02*
X1187Y681D01*
X1203Y681D02*
X1209Y681D01*
X1239Y681D02*
X1245Y681D01*
X1336Y681D02*
X1340Y681D01*
X2434Y681D02*
X2438Y681D01*
X2682Y681D02*
X2689Y681D01*
X0Y680D02*
X7Y680D01*
X627Y680D02*
X633Y680D01*
X644Y680D02*
X651Y680D01*
X691Y680D02*
X697Y680D01*
X704Y680D02*
X710Y680D01*
X1128Y680D02*
X1137Y680D01*
X1177Y680D02*
X1186Y680D01*
X1203Y680D02*
X1209Y680D01*
X1239Y680D02*
X1245Y680D01*
X1336Y680D02*
X1340Y680D01*
X2434Y680D02*
X2438Y680D01*
X2682Y680D02*
X2689Y680D01*
X0Y679D02*
X7Y679D01*
X627Y679D02*
X633Y679D01*
X644Y679D02*
X651Y679D01*
X691Y679D02*
X697Y679D01*
X704Y679D02*
X710Y679D01*
X1128Y679D02*
X1137Y679D01*
X1177Y679D02*
X1185Y679D01*
X1203Y679D02*
X1209Y679D01*
X1239Y679D02*
X1245Y679D01*
X1335Y679D02*
X1340Y679D01*
X2435Y679D02*
X2439Y679D01*
X2682Y679D02*
X2689Y679D01*
X0Y678D02*
X7Y678D01*
X627Y678D02*
X633Y678D01*
X645Y678D02*
X652Y678D01*
X691Y678D02*
X697Y678D01*
X704Y678D02*
X710Y678D01*
X1128Y678D02*
X1137Y678D01*
X1176Y678D02*
X1184Y678D01*
X1203Y678D02*
X1209Y678D01*
X1239Y678D02*
X1245Y678D01*
X1335Y678D02*
X1339Y678D01*
X2435Y678D02*
X2439Y678D01*
X2682Y678D02*
X2689Y678D01*
X0Y677D02*
X7Y677D01*
X627Y677D02*
X633Y677D01*
X645Y677D02*
X653Y677D01*
X691Y677D02*
X697Y677D01*
X704Y677D02*
X710Y677D01*
X1128Y677D02*
X1137Y677D01*
X1176Y677D02*
X1183Y677D01*
X1203Y677D02*
X1209Y677D01*
X1239Y677D02*
X1245Y677D01*
X1335Y677D02*
X1339Y677D01*
X2435Y677D02*
X2439Y677D01*
X2682Y677D02*
X2689Y677D01*
X0Y676D02*
X7Y676D01*
X627Y676D02*
X633Y676D01*
X646Y676D02*
X653Y676D01*
X691Y676D02*
X697Y676D01*
X704Y676D02*
X710Y676D01*
X1128Y676D02*
X1137Y676D01*
X1176Y676D02*
X1182Y676D01*
X1203Y676D02*
X1209Y676D01*
X1239Y676D02*
X1245Y676D01*
X1335Y676D02*
X1339Y676D01*
X2436Y676D02*
X2440Y676D01*
X2682Y676D02*
X2689Y676D01*
X0Y675D02*
X7Y675D01*
X627Y675D02*
X633Y675D01*
X646Y675D02*
X654Y675D01*
X691Y675D02*
X697Y675D01*
X704Y675D02*
X710Y675D01*
X1128Y675D02*
X1137Y675D01*
X1175Y675D02*
X1182Y675D01*
X1203Y675D02*
X1209Y675D01*
X1239Y675D02*
X1245Y675D01*
X1334Y675D02*
X1338Y675D01*
X2436Y675D02*
X2440Y675D01*
X2682Y675D02*
X2689Y675D01*
X0Y674D02*
X7Y674D01*
X627Y674D02*
X633Y674D01*
X647Y674D02*
X654Y674D01*
X691Y674D02*
X697Y674D01*
X704Y674D02*
X710Y674D01*
X1128Y674D02*
X1137Y674D01*
X1175Y674D02*
X1181Y674D01*
X1203Y674D02*
X1209Y674D01*
X1239Y674D02*
X1245Y674D01*
X1334Y674D02*
X1338Y674D01*
X2436Y674D02*
X2440Y674D01*
X2682Y674D02*
X2689Y674D01*
X0Y673D02*
X7Y673D01*
X627Y673D02*
X633Y673D01*
X648Y673D02*
X655Y673D01*
X691Y673D02*
X697Y673D01*
X704Y673D02*
X710Y673D01*
X1128Y673D02*
X1137Y673D01*
X1175Y673D02*
X1181Y673D01*
X1203Y673D02*
X1209Y673D01*
X1239Y673D02*
X1245Y673D01*
X1334Y673D02*
X1338Y673D01*
X2436Y673D02*
X2441Y673D01*
X2682Y673D02*
X2689Y673D01*
X0Y672D02*
X7Y672D01*
X627Y672D02*
X633Y672D01*
X648Y672D02*
X655Y672D01*
X691Y672D02*
X697Y672D01*
X704Y672D02*
X710Y672D01*
X1128Y672D02*
X1137Y672D01*
X1175Y672D02*
X1181Y672D01*
X1203Y672D02*
X1209Y672D01*
X1239Y672D02*
X1245Y672D01*
X1333Y672D02*
X1337Y672D01*
X2437Y672D02*
X2441Y672D01*
X2682Y672D02*
X2689Y672D01*
X0Y671D02*
X7Y671D01*
X627Y671D02*
X633Y671D01*
X649Y671D02*
X656Y671D01*
X691Y671D02*
X697Y671D01*
X704Y671D02*
X710Y671D01*
X1128Y671D02*
X1137Y671D01*
X1175Y671D02*
X1181Y671D01*
X1203Y671D02*
X1209Y671D01*
X1239Y671D02*
X1245Y671D01*
X1333Y671D02*
X1337Y671D01*
X2437Y671D02*
X2441Y671D01*
X2682Y671D02*
X2689Y671D01*
X0Y670D02*
X7Y670D01*
X627Y670D02*
X633Y670D01*
X649Y670D02*
X657Y670D01*
X691Y670D02*
X697Y670D01*
X704Y670D02*
X710Y670D01*
X1128Y670D02*
X1137Y670D01*
X1175Y670D02*
X1181Y670D01*
X1203Y670D02*
X1209Y670D01*
X1239Y670D02*
X1245Y670D01*
X1333Y670D02*
X1337Y670D01*
X2437Y670D02*
X2441Y670D01*
X2682Y670D02*
X2689Y670D01*
X0Y669D02*
X7Y669D01*
X627Y669D02*
X633Y669D01*
X650Y669D02*
X657Y669D01*
X691Y669D02*
X697Y669D01*
X704Y669D02*
X710Y669D01*
X1128Y669D02*
X1137Y669D01*
X1175Y669D02*
X1181Y669D01*
X1192Y669D02*
X1192Y669D01*
X1203Y669D02*
X1209Y669D01*
X1239Y669D02*
X1245Y669D01*
X1256Y669D02*
X1256Y669D01*
X1332Y669D02*
X1337Y669D01*
X2438Y669D02*
X2442Y669D01*
X2682Y669D02*
X2689Y669D01*
X0Y668D02*
X7Y668D01*
X627Y668D02*
X633Y668D01*
X651Y668D02*
X658Y668D01*
X691Y668D02*
X697Y668D01*
X704Y668D02*
X710Y668D01*
X1128Y668D02*
X1137Y668D01*
X1175Y668D02*
X1181Y668D01*
X1190Y668D02*
X1194Y668D01*
X1202Y668D02*
X1209Y668D01*
X1239Y668D02*
X1245Y668D01*
X1254Y668D02*
X1258Y668D01*
X1332Y668D02*
X1336Y668D01*
X2438Y668D02*
X2442Y668D01*
X2682Y668D02*
X2689Y668D01*
X0Y667D02*
X7Y667D01*
X627Y667D02*
X633Y667D01*
X651Y667D02*
X658Y667D01*
X691Y667D02*
X697Y667D01*
X704Y667D02*
X710Y667D01*
X1128Y667D02*
X1137Y667D01*
X1175Y667D02*
X1181Y667D01*
X1189Y667D02*
X1195Y667D01*
X1202Y667D02*
X1208Y667D01*
X1239Y667D02*
X1245Y667D01*
X1253Y667D02*
X1259Y667D01*
X1332Y667D02*
X1336Y667D01*
X2438Y667D02*
X2442Y667D01*
X2682Y667D02*
X2689Y667D01*
X0Y666D02*
X7Y666D01*
X627Y666D02*
X633Y666D01*
X652Y666D02*
X659Y666D01*
X679Y666D02*
X710Y666D01*
X1128Y666D02*
X1137Y666D01*
X1175Y666D02*
X1181Y666D01*
X1189Y666D02*
X1195Y666D01*
X1201Y666D02*
X1208Y666D01*
X1239Y666D02*
X1245Y666D01*
X1253Y666D02*
X1259Y666D01*
X1332Y666D02*
X1336Y666D01*
X2439Y666D02*
X2443Y666D01*
X2682Y666D02*
X2689Y666D01*
X0Y665D02*
X7Y665D01*
X627Y665D02*
X633Y665D01*
X652Y665D02*
X660Y665D01*
X678Y665D02*
X710Y665D01*
X1128Y665D02*
X1137Y665D01*
X1175Y665D02*
X1181Y665D01*
X1189Y665D02*
X1195Y665D01*
X1200Y665D02*
X1208Y665D01*
X1239Y665D02*
X1245Y665D01*
X1253Y665D02*
X1259Y665D01*
X1331Y665D02*
X1335Y665D01*
X2439Y665D02*
X2443Y665D01*
X2682Y665D02*
X2689Y665D01*
X0Y664D02*
X7Y664D01*
X627Y664D02*
X633Y664D01*
X653Y664D02*
X660Y664D01*
X677Y664D02*
X710Y664D01*
X1128Y664D02*
X1137Y664D01*
X1175Y664D02*
X1181Y664D01*
X1189Y664D02*
X1196Y664D01*
X1199Y664D02*
X1207Y664D01*
X1239Y664D02*
X1245Y664D01*
X1253Y664D02*
X1259Y664D01*
X1331Y664D02*
X1335Y664D01*
X2439Y664D02*
X2443Y664D01*
X2682Y664D02*
X2689Y664D01*
X0Y663D02*
X7Y663D01*
X627Y663D02*
X633Y663D01*
X653Y663D02*
X660Y663D01*
X677Y663D02*
X710Y663D01*
X1128Y663D02*
X1137Y663D01*
X1175Y663D02*
X1181Y663D01*
X1190Y663D02*
X1196Y663D01*
X1198Y663D02*
X1207Y663D01*
X1239Y663D02*
X1245Y663D01*
X1253Y663D02*
X1259Y663D01*
X1331Y663D02*
X1335Y663D01*
X2439Y663D02*
X2443Y663D01*
X2682Y663D02*
X2689Y663D01*
X0Y662D02*
X7Y662D01*
X627Y662D02*
X633Y662D01*
X654Y662D02*
X660Y662D01*
X677Y662D02*
X710Y662D01*
X1128Y662D02*
X1137Y662D01*
X1175Y662D02*
X1181Y662D01*
X1190Y662D02*
X1206Y662D01*
X1239Y662D02*
X1245Y662D01*
X1253Y662D02*
X1259Y662D01*
X1331Y662D02*
X1335Y662D01*
X2440Y662D02*
X2444Y662D01*
X2682Y662D02*
X2689Y662D01*
X0Y661D02*
X7Y661D01*
X627Y661D02*
X632Y661D01*
X655Y661D02*
X660Y661D01*
X677Y661D02*
X710Y661D01*
X1128Y661D02*
X1137Y661D01*
X1175Y661D02*
X1181Y661D01*
X1190Y661D02*
X1205Y661D01*
X1239Y661D02*
X1245Y661D01*
X1253Y661D02*
X1259Y661D01*
X1330Y661D02*
X1334Y661D01*
X2440Y661D02*
X2444Y661D01*
X2682Y661D02*
X2689Y661D01*
X0Y660D02*
X7Y660D01*
X628Y660D02*
X631Y660D01*
X656Y660D02*
X659Y660D01*
X678Y660D02*
X709Y660D01*
X1128Y660D02*
X1137Y660D01*
X1175Y660D02*
X1181Y660D01*
X1191Y660D02*
X1204Y660D01*
X1239Y660D02*
X1245Y660D01*
X1253Y660D02*
X1259Y660D01*
X1330Y660D02*
X1334Y660D01*
X2440Y660D02*
X2444Y660D01*
X2682Y660D02*
X2689Y660D01*
X0Y659D02*
X7Y659D01*
X1128Y659D02*
X1137Y659D01*
X1175Y659D02*
X1181Y659D01*
X1191Y659D02*
X1203Y659D01*
X1239Y659D02*
X1245Y659D01*
X1253Y659D02*
X1259Y659D01*
X1330Y659D02*
X1334Y659D01*
X2440Y659D02*
X2445Y659D01*
X2682Y659D02*
X2689Y659D01*
X0Y658D02*
X7Y658D01*
X1128Y658D02*
X1137Y658D01*
X1175Y658D02*
X1181Y658D01*
X1192Y658D02*
X1202Y658D01*
X1239Y658D02*
X1245Y658D01*
X1253Y658D02*
X1259Y658D01*
X1329Y658D02*
X1334Y658D01*
X2441Y658D02*
X2445Y658D01*
X2682Y658D02*
X2689Y658D01*
X0Y657D02*
X7Y657D01*
X1128Y657D02*
X1137Y657D01*
X1175Y657D02*
X1181Y657D01*
X1191Y657D02*
X1201Y657D01*
X1239Y657D02*
X1245Y657D01*
X1253Y657D02*
X1259Y657D01*
X1329Y657D02*
X1333Y657D01*
X2441Y657D02*
X2445Y657D01*
X2682Y657D02*
X2689Y657D01*
X0Y656D02*
X7Y656D01*
X1128Y656D02*
X1137Y656D01*
X1175Y656D02*
X1181Y656D01*
X1190Y656D02*
X1200Y656D01*
X1239Y656D02*
X1245Y656D01*
X1253Y656D02*
X1259Y656D01*
X1329Y656D02*
X1333Y656D01*
X2441Y656D02*
X2445Y656D01*
X2682Y656D02*
X2689Y656D01*
X0Y655D02*
X7Y655D01*
X1128Y655D02*
X1137Y655D01*
X1175Y655D02*
X1181Y655D01*
X1188Y655D02*
X1199Y655D01*
X1239Y655D02*
X1245Y655D01*
X1253Y655D02*
X1259Y655D01*
X1329Y655D02*
X1333Y655D01*
X2442Y655D02*
X2446Y655D01*
X2682Y655D02*
X2689Y655D01*
X0Y654D02*
X7Y654D01*
X1128Y654D02*
X1137Y654D01*
X1175Y654D02*
X1181Y654D01*
X1187Y654D02*
X1200Y654D01*
X1239Y654D02*
X1245Y654D01*
X1253Y654D02*
X1259Y654D01*
X1328Y654D02*
X1332Y654D01*
X2442Y654D02*
X2446Y654D01*
X2682Y654D02*
X2689Y654D01*
X0Y653D02*
X7Y653D01*
X1128Y653D02*
X1137Y653D01*
X1175Y653D02*
X1181Y653D01*
X1186Y653D02*
X1200Y653D01*
X1239Y653D02*
X1245Y653D01*
X1253Y653D02*
X1259Y653D01*
X1328Y653D02*
X1332Y653D01*
X2442Y653D02*
X2446Y653D01*
X2682Y653D02*
X2689Y653D01*
X0Y652D02*
X7Y652D01*
X1127Y652D02*
X1136Y652D01*
X1175Y652D02*
X1182Y652D01*
X1185Y652D02*
X1201Y652D01*
X1239Y652D02*
X1245Y652D01*
X1253Y652D02*
X1259Y652D01*
X1328Y652D02*
X1332Y652D01*
X2442Y652D02*
X2446Y652D01*
X2682Y652D02*
X2689Y652D01*
X0Y651D02*
X7Y651D01*
X1127Y651D02*
X1136Y651D01*
X1175Y651D02*
X1207Y651D01*
X1227Y651D02*
X1259Y651D01*
X1328Y651D02*
X1332Y651D01*
X2443Y651D02*
X2447Y651D01*
X2682Y651D02*
X2689Y651D01*
X0Y650D02*
X7Y650D01*
X1127Y650D02*
X1136Y650D01*
X1176Y650D02*
X1192Y650D01*
X1195Y650D02*
X1208Y650D01*
X1226Y650D02*
X1259Y650D01*
X1327Y650D02*
X1331Y650D01*
X2443Y650D02*
X2447Y650D01*
X2682Y650D02*
X2689Y650D01*
X0Y649D02*
X7Y649D01*
X1127Y649D02*
X1136Y649D01*
X1176Y649D02*
X1191Y649D01*
X1195Y649D02*
X1209Y649D01*
X1226Y649D02*
X1259Y649D01*
X1327Y649D02*
X1331Y649D01*
X2443Y649D02*
X2447Y649D01*
X2682Y649D02*
X2689Y649D01*
X0Y648D02*
X7Y648D01*
X1127Y648D02*
X1136Y648D01*
X1177Y648D02*
X1190Y648D01*
X1196Y648D02*
X1209Y648D01*
X1225Y648D02*
X1259Y648D01*
X1327Y648D02*
X1331Y648D01*
X2443Y648D02*
X2447Y648D01*
X2682Y648D02*
X2689Y648D01*
X0Y647D02*
X7Y647D01*
X1127Y647D02*
X1136Y647D01*
X1178Y647D02*
X1189Y647D01*
X1196Y647D02*
X1209Y647D01*
X1226Y647D02*
X1259Y647D01*
X1327Y647D02*
X1331Y647D01*
X2444Y647D02*
X2448Y647D01*
X2682Y647D02*
X2689Y647D01*
X0Y646D02*
X7Y646D01*
X1127Y646D02*
X1136Y646D01*
X1179Y646D02*
X1188Y646D01*
X1196Y646D02*
X1208Y646D01*
X1226Y646D02*
X1258Y646D01*
X1326Y646D02*
X1330Y646D01*
X2444Y646D02*
X2448Y646D01*
X2682Y646D02*
X2689Y646D01*
X0Y645D02*
X7Y645D01*
X1126Y645D02*
X1135Y645D01*
X1181Y645D02*
X1186Y645D01*
X1197Y645D02*
X1207Y645D01*
X1227Y645D02*
X1257Y645D01*
X1326Y645D02*
X1330Y645D01*
X2444Y645D02*
X2448Y645D01*
X2682Y645D02*
X2689Y645D01*
X0Y644D02*
X7Y644D01*
X1126Y644D02*
X1135Y644D01*
X1326Y644D02*
X1330Y644D01*
X2444Y644D02*
X2448Y644D01*
X2682Y644D02*
X2689Y644D01*
X0Y643D02*
X7Y643D01*
X1126Y643D02*
X1135Y643D01*
X1326Y643D02*
X1330Y643D01*
X2444Y643D02*
X2449Y643D01*
X2682Y643D02*
X2689Y643D01*
X0Y642D02*
X7Y642D01*
X1126Y642D02*
X1135Y642D01*
X1325Y642D02*
X1329Y642D01*
X2445Y642D02*
X2449Y642D01*
X2682Y642D02*
X2689Y642D01*
X0Y641D02*
X7Y641D01*
X1126Y641D02*
X1135Y641D01*
X1325Y641D02*
X1329Y641D01*
X2445Y641D02*
X2449Y641D01*
X2682Y641D02*
X2689Y641D01*
X0Y640D02*
X7Y640D01*
X1125Y640D02*
X1135Y640D01*
X1325Y640D02*
X1329Y640D01*
X2445Y640D02*
X2449Y640D01*
X2682Y640D02*
X2689Y640D01*
X0Y639D02*
X7Y639D01*
X1125Y639D02*
X1134Y639D01*
X1325Y639D02*
X1329Y639D01*
X2445Y639D02*
X2450Y639D01*
X2682Y639D02*
X2689Y639D01*
X0Y638D02*
X7Y638D01*
X1125Y638D02*
X1134Y638D01*
X1325Y638D02*
X1329Y638D01*
X2446Y638D02*
X2450Y638D01*
X2682Y638D02*
X2689Y638D01*
X0Y637D02*
X7Y637D01*
X1125Y637D02*
X1134Y637D01*
X1324Y637D02*
X1328Y637D01*
X2446Y637D02*
X2450Y637D01*
X2682Y637D02*
X2689Y637D01*
X0Y636D02*
X7Y636D01*
X1124Y636D02*
X1134Y636D01*
X1324Y636D02*
X1328Y636D01*
X2446Y636D02*
X2450Y636D01*
X2682Y636D02*
X2689Y636D01*
X0Y635D02*
X7Y635D01*
X1124Y635D02*
X1133Y635D01*
X1324Y635D02*
X1328Y635D01*
X2446Y635D02*
X2450Y635D01*
X2682Y635D02*
X2689Y635D01*
X0Y634D02*
X7Y634D01*
X1124Y634D02*
X1133Y634D01*
X1324Y634D02*
X1328Y634D01*
X2447Y634D02*
X2451Y634D01*
X2682Y634D02*
X2689Y634D01*
X0Y633D02*
X7Y633D01*
X1124Y633D02*
X1133Y633D01*
X1323Y633D02*
X1327Y633D01*
X2447Y633D02*
X2451Y633D01*
X2682Y633D02*
X2689Y633D01*
X0Y632D02*
X7Y632D01*
X1123Y632D02*
X1133Y632D01*
X1323Y632D02*
X1327Y632D01*
X2447Y632D02*
X2451Y632D01*
X2682Y632D02*
X2689Y632D01*
X0Y631D02*
X7Y631D01*
X1123Y631D02*
X1132Y631D01*
X1323Y631D02*
X1327Y631D01*
X2447Y631D02*
X2451Y631D01*
X2682Y631D02*
X2689Y631D01*
X0Y630D02*
X7Y630D01*
X1123Y630D02*
X1132Y630D01*
X1323Y630D02*
X1327Y630D01*
X2447Y630D02*
X2451Y630D01*
X2682Y630D02*
X2689Y630D01*
X0Y629D02*
X7Y629D01*
X1122Y629D02*
X1132Y629D01*
X1323Y629D02*
X1327Y629D01*
X2448Y629D02*
X2452Y629D01*
X2682Y629D02*
X2689Y629D01*
X0Y628D02*
X7Y628D01*
X1122Y628D02*
X1131Y628D01*
X1322Y628D02*
X1326Y628D01*
X2448Y628D02*
X2452Y628D01*
X2682Y628D02*
X2689Y628D01*
X0Y627D02*
X7Y627D01*
X1122Y627D02*
X1131Y627D01*
X1322Y627D02*
X1326Y627D01*
X2448Y627D02*
X2452Y627D01*
X2682Y627D02*
X2689Y627D01*
X0Y626D02*
X7Y626D01*
X1121Y626D02*
X1131Y626D01*
X1322Y626D02*
X1326Y626D01*
X2448Y626D02*
X2452Y626D01*
X2682Y626D02*
X2689Y626D01*
X0Y625D02*
X7Y625D01*
X1121Y625D02*
X1130Y625D01*
X1322Y625D02*
X1326Y625D01*
X2448Y625D02*
X2453Y625D01*
X2682Y625D02*
X2689Y625D01*
X0Y624D02*
X7Y624D01*
X1120Y624D02*
X1130Y624D01*
X1322Y624D02*
X1326Y624D01*
X2449Y624D02*
X2453Y624D01*
X2682Y624D02*
X2689Y624D01*
X0Y623D02*
X7Y623D01*
X1120Y623D02*
X1130Y623D01*
X1321Y623D02*
X1325Y623D01*
X2449Y623D02*
X2453Y623D01*
X2682Y623D02*
X2689Y623D01*
X0Y622D02*
X7Y622D01*
X1120Y622D02*
X1129Y622D01*
X1321Y622D02*
X1325Y622D01*
X2449Y622D02*
X2453Y622D01*
X2682Y622D02*
X2689Y622D01*
X0Y621D02*
X7Y621D01*
X1119Y621D02*
X1129Y621D01*
X1321Y621D02*
X1325Y621D01*
X2449Y621D02*
X2453Y621D01*
X2682Y621D02*
X2689Y621D01*
X0Y620D02*
X7Y620D01*
X1119Y620D02*
X1129Y620D01*
X1321Y620D02*
X1325Y620D01*
X2449Y620D02*
X2453Y620D01*
X2682Y620D02*
X2689Y620D01*
X0Y619D02*
X7Y619D01*
X1118Y619D02*
X1128Y619D01*
X1321Y619D02*
X1325Y619D01*
X2450Y619D02*
X2454Y619D01*
X2682Y619D02*
X2689Y619D01*
X0Y618D02*
X7Y618D01*
X1118Y618D02*
X1128Y618D01*
X1320Y618D02*
X1324Y618D01*
X2450Y618D02*
X2454Y618D01*
X2682Y618D02*
X2689Y618D01*
X0Y617D02*
X7Y617D01*
X1117Y617D02*
X1127Y617D01*
X1320Y617D02*
X1324Y617D01*
X2450Y617D02*
X2454Y617D01*
X2682Y617D02*
X2689Y617D01*
X0Y616D02*
X7Y616D01*
X1117Y616D02*
X1127Y616D01*
X1320Y616D02*
X1324Y616D01*
X2450Y616D02*
X2454Y616D01*
X2682Y616D02*
X2689Y616D01*
X0Y615D02*
X7Y615D01*
X1116Y615D02*
X1126Y615D01*
X1320Y615D02*
X1324Y615D01*
X2450Y615D02*
X2454Y615D01*
X2682Y615D02*
X2689Y615D01*
X0Y614D02*
X7Y614D01*
X1116Y614D02*
X1126Y614D01*
X1320Y614D02*
X1324Y614D01*
X2451Y614D02*
X2455Y614D01*
X2682Y614D02*
X2689Y614D01*
X0Y613D02*
X7Y613D01*
X1115Y613D02*
X1126Y613D01*
X1319Y613D02*
X1323Y613D01*
X2451Y613D02*
X2455Y613D01*
X2682Y613D02*
X2689Y613D01*
X0Y612D02*
X7Y612D01*
X1115Y612D02*
X1125Y612D01*
X1319Y612D02*
X1323Y612D01*
X2451Y612D02*
X2455Y612D01*
X2682Y612D02*
X2689Y612D01*
X0Y611D02*
X7Y611D01*
X1114Y611D02*
X1125Y611D01*
X1319Y611D02*
X1323Y611D01*
X2451Y611D02*
X2455Y611D01*
X2682Y611D02*
X2689Y611D01*
X0Y610D02*
X7Y610D01*
X1113Y610D02*
X1124Y610D01*
X1319Y610D02*
X1323Y610D01*
X2451Y610D02*
X2455Y610D01*
X2682Y610D02*
X2689Y610D01*
X0Y609D02*
X7Y609D01*
X1113Y609D02*
X1123Y609D01*
X1319Y609D02*
X1323Y609D01*
X2452Y609D02*
X2456Y609D01*
X2682Y609D02*
X2689Y609D01*
X0Y608D02*
X7Y608D01*
X1112Y608D02*
X1123Y608D01*
X1319Y608D02*
X1323Y608D01*
X2452Y608D02*
X2456Y608D01*
X2682Y608D02*
X2689Y608D01*
X0Y607D02*
X7Y607D01*
X1111Y607D02*
X1122Y607D01*
X1318Y607D02*
X1322Y607D01*
X2452Y607D02*
X2456Y607D01*
X2682Y607D02*
X2689Y607D01*
X0Y606D02*
X7Y606D01*
X1111Y606D02*
X1122Y606D01*
X1318Y606D02*
X1322Y606D01*
X2452Y606D02*
X2456Y606D01*
X2682Y606D02*
X2689Y606D01*
X0Y605D02*
X7Y605D01*
X1110Y605D02*
X1121Y605D01*
X1318Y605D02*
X1322Y605D01*
X2452Y605D02*
X2456Y605D01*
X2682Y605D02*
X2689Y605D01*
X0Y604D02*
X7Y604D01*
X1109Y604D02*
X1120Y604D01*
X1318Y604D02*
X1322Y604D01*
X2452Y604D02*
X2456Y604D01*
X2682Y604D02*
X2689Y604D01*
X0Y603D02*
X7Y603D01*
X1108Y603D02*
X1120Y603D01*
X1318Y603D02*
X1322Y603D01*
X2452Y603D02*
X2457Y603D01*
X2682Y603D02*
X2689Y603D01*
X0Y602D02*
X7Y602D01*
X1108Y602D02*
X1119Y602D01*
X1318Y602D02*
X1322Y602D01*
X2453Y602D02*
X2457Y602D01*
X2682Y602D02*
X2689Y602D01*
X0Y601D02*
X7Y601D01*
X1107Y601D02*
X1118Y601D01*
X1317Y601D02*
X1321Y601D01*
X2453Y601D02*
X2457Y601D01*
X2682Y601D02*
X2689Y601D01*
X0Y600D02*
X7Y600D01*
X1106Y600D02*
X1118Y600D01*
X1317Y600D02*
X1321Y600D01*
X2453Y600D02*
X2457Y600D01*
X2682Y600D02*
X2689Y600D01*
X0Y599D02*
X7Y599D01*
X1105Y599D02*
X1117Y599D01*
X1317Y599D02*
X1321Y599D01*
X2453Y599D02*
X2457Y599D01*
X2682Y599D02*
X2689Y599D01*
X0Y598D02*
X7Y598D01*
X1104Y598D02*
X1116Y598D01*
X1317Y598D02*
X1321Y598D01*
X2453Y598D02*
X2457Y598D01*
X2682Y598D02*
X2689Y598D01*
X0Y597D02*
X7Y597D01*
X1103Y597D02*
X1115Y597D01*
X1317Y597D02*
X1321Y597D01*
X2453Y597D02*
X2457Y597D01*
X2682Y597D02*
X2689Y597D01*
X0Y596D02*
X7Y596D01*
X1102Y596D02*
X1114Y596D01*
X1317Y596D02*
X1321Y596D01*
X2454Y596D02*
X2458Y596D01*
X2682Y596D02*
X2689Y596D01*
X0Y595D02*
X7Y595D01*
X1100Y595D02*
X1114Y595D01*
X1316Y595D02*
X1320Y595D01*
X2454Y595D02*
X2458Y595D01*
X2682Y595D02*
X2689Y595D01*
X0Y594D02*
X7Y594D01*
X1099Y594D02*
X1113Y594D01*
X1316Y594D02*
X1320Y594D01*
X2454Y594D02*
X2458Y594D01*
X2682Y594D02*
X2689Y594D01*
X0Y593D02*
X7Y593D01*
X1098Y593D02*
X1112Y593D01*
X1316Y593D02*
X1320Y593D01*
X2454Y593D02*
X2458Y593D01*
X2682Y593D02*
X2689Y593D01*
X0Y592D02*
X7Y592D01*
X1096Y592D02*
X1111Y592D01*
X1316Y592D02*
X1320Y592D01*
X2454Y592D02*
X2458Y592D01*
X2682Y592D02*
X2689Y592D01*
X0Y591D02*
X7Y591D01*
X1094Y591D02*
X1110Y591D01*
X1316Y591D02*
X1320Y591D01*
X2454Y591D02*
X2458Y591D01*
X2682Y591D02*
X2689Y591D01*
X0Y590D02*
X7Y590D01*
X1092Y590D02*
X1109Y590D01*
X1316Y590D02*
X1320Y590D01*
X2454Y590D02*
X2458Y590D01*
X2682Y590D02*
X2689Y590D01*
X0Y589D02*
X7Y589D01*
X1089Y589D02*
X1107Y589D01*
X1316Y589D02*
X1320Y589D01*
X2455Y589D02*
X2459Y589D01*
X2682Y589D02*
X2689Y589D01*
X0Y588D02*
X7Y588D01*
X1082Y588D02*
X1106Y588D01*
X1315Y588D02*
X1319Y588D01*
X2455Y588D02*
X2459Y588D01*
X2682Y588D02*
X2689Y588D01*
X0Y587D02*
X7Y587D01*
X1079Y587D02*
X1105Y587D01*
X1315Y587D02*
X1319Y587D01*
X2455Y587D02*
X2459Y587D01*
X2682Y587D02*
X2689Y587D01*
X0Y586D02*
X7Y586D01*
X1078Y586D02*
X1104Y586D01*
X1315Y586D02*
X1319Y586D01*
X2455Y586D02*
X2459Y586D01*
X2682Y586D02*
X2689Y586D01*
X0Y585D02*
X7Y585D01*
X1078Y585D02*
X1102Y585D01*
X1315Y585D02*
X1319Y585D01*
X2455Y585D02*
X2459Y585D01*
X2682Y585D02*
X2689Y585D01*
X0Y584D02*
X7Y584D01*
X1079Y584D02*
X1100Y584D01*
X1315Y584D02*
X1319Y584D01*
X2455Y584D02*
X2459Y584D01*
X2682Y584D02*
X2689Y584D01*
X0Y583D02*
X7Y583D01*
X1079Y583D02*
X1099Y583D01*
X1315Y583D02*
X1319Y583D01*
X2455Y583D02*
X2459Y583D01*
X2682Y583D02*
X2689Y583D01*
X0Y582D02*
X7Y582D01*
X1079Y582D02*
X1097Y582D01*
X1315Y582D02*
X1319Y582D01*
X2456Y582D02*
X2460Y582D01*
X2682Y582D02*
X2689Y582D01*
X0Y581D02*
X7Y581D01*
X1080Y581D02*
X1094Y581D01*
X1315Y581D02*
X1319Y581D01*
X2456Y581D02*
X2460Y581D01*
X2682Y581D02*
X2689Y581D01*
X0Y580D02*
X7Y580D01*
X1080Y580D02*
X1092Y580D01*
X1314Y580D02*
X1318Y580D01*
X2456Y580D02*
X2460Y580D01*
X2682Y580D02*
X2689Y580D01*
X0Y579D02*
X7Y579D01*
X1080Y579D02*
X1089Y579D01*
X1314Y579D02*
X1318Y579D01*
X2456Y579D02*
X2460Y579D01*
X2682Y579D02*
X2689Y579D01*
X0Y578D02*
X7Y578D01*
X1081Y578D02*
X1082Y578D01*
X1314Y578D02*
X1318Y578D01*
X2456Y578D02*
X2460Y578D01*
X2682Y578D02*
X2689Y578D01*
X0Y577D02*
X7Y577D01*
X1314Y577D02*
X1318Y577D01*
X2456Y577D02*
X2460Y577D01*
X2682Y577D02*
X2689Y577D01*
X0Y576D02*
X7Y576D01*
X1314Y576D02*
X1318Y576D01*
X2456Y576D02*
X2460Y576D01*
X2682Y576D02*
X2689Y576D01*
X0Y575D02*
X7Y575D01*
X1314Y575D02*
X1318Y575D01*
X2456Y575D02*
X2460Y575D01*
X2682Y575D02*
X2689Y575D01*
X0Y574D02*
X7Y574D01*
X1314Y574D02*
X1318Y574D01*
X2456Y574D02*
X2460Y574D01*
X2682Y574D02*
X2689Y574D01*
X0Y573D02*
X7Y573D01*
X1314Y573D02*
X1318Y573D01*
X2457Y573D02*
X2461Y573D01*
X2682Y573D02*
X2689Y573D01*
X0Y572D02*
X7Y572D01*
X1314Y572D02*
X1318Y572D01*
X2457Y572D02*
X2461Y572D01*
X2682Y572D02*
X2689Y572D01*
X0Y571D02*
X7Y571D01*
X1313Y571D02*
X1317Y571D01*
X2457Y571D02*
X2461Y571D01*
X2682Y571D02*
X2689Y571D01*
X0Y570D02*
X7Y570D01*
X1313Y570D02*
X1317Y570D01*
X2457Y570D02*
X2461Y570D01*
X2682Y570D02*
X2689Y570D01*
X0Y569D02*
X7Y569D01*
X713Y569D02*
X765Y569D01*
X1313Y569D02*
X1317Y569D01*
X2457Y569D02*
X2461Y569D01*
X2682Y569D02*
X2689Y569D01*
X0Y568D02*
X7Y568D01*
X712Y568D02*
X765Y568D01*
X1313Y568D02*
X1317Y568D01*
X2457Y568D02*
X2461Y568D01*
X2682Y568D02*
X2689Y568D01*
X0Y567D02*
X7Y567D01*
X712Y567D02*
X765Y567D01*
X1313Y567D02*
X1317Y567D01*
X2457Y567D02*
X2461Y567D01*
X2682Y567D02*
X2689Y567D01*
X0Y566D02*
X7Y566D01*
X712Y566D02*
X765Y566D01*
X1313Y566D02*
X1317Y566D01*
X2457Y566D02*
X2461Y566D01*
X2682Y566D02*
X2689Y566D01*
X0Y565D02*
X7Y565D01*
X712Y565D02*
X765Y565D01*
X1313Y565D02*
X1317Y565D01*
X2457Y565D02*
X2461Y565D01*
X2682Y565D02*
X2689Y565D01*
X0Y564D02*
X7Y564D01*
X712Y564D02*
X765Y564D01*
X1313Y564D02*
X1317Y564D01*
X2458Y564D02*
X2462Y564D01*
X2682Y564D02*
X2689Y564D01*
X0Y563D02*
X7Y563D01*
X714Y563D02*
X765Y563D01*
X1313Y563D02*
X1317Y563D01*
X2458Y563D02*
X2462Y563D01*
X2682Y563D02*
X2689Y563D01*
X0Y562D02*
X7Y562D01*
X741Y562D02*
X747Y562D01*
X759Y562D02*
X765Y562D01*
X1313Y562D02*
X1317Y562D01*
X2458Y562D02*
X2462Y562D01*
X2682Y562D02*
X2689Y562D01*
X0Y561D02*
X7Y561D01*
X741Y561D02*
X747Y561D01*
X759Y561D02*
X765Y561D01*
X1312Y561D02*
X1316Y561D01*
X2458Y561D02*
X2462Y561D01*
X2682Y561D02*
X2689Y561D01*
X0Y560D02*
X7Y560D01*
X741Y560D02*
X747Y560D01*
X759Y560D02*
X765Y560D01*
X1312Y560D02*
X1316Y560D01*
X2458Y560D02*
X2462Y560D01*
X2682Y560D02*
X2689Y560D01*
X0Y559D02*
X7Y559D01*
X741Y559D02*
X747Y559D01*
X759Y559D02*
X765Y559D01*
X1312Y559D02*
X1316Y559D01*
X2458Y559D02*
X2462Y559D01*
X2682Y559D02*
X2689Y559D01*
X0Y558D02*
X7Y558D01*
X741Y558D02*
X747Y558D01*
X759Y558D02*
X765Y558D01*
X1312Y558D02*
X1316Y558D01*
X2458Y558D02*
X2462Y558D01*
X2682Y558D02*
X2689Y558D01*
X0Y557D02*
X7Y557D01*
X740Y557D02*
X747Y557D01*
X759Y557D02*
X765Y557D01*
X1312Y557D02*
X1316Y557D01*
X2458Y557D02*
X2462Y557D01*
X2682Y557D02*
X2689Y557D01*
X0Y556D02*
X7Y556D01*
X738Y556D02*
X747Y556D01*
X759Y556D02*
X765Y556D01*
X1312Y556D02*
X1316Y556D01*
X2458Y556D02*
X2462Y556D01*
X2682Y556D02*
X2689Y556D01*
X0Y555D02*
X7Y555D01*
X736Y555D02*
X747Y555D01*
X759Y555D02*
X765Y555D01*
X1312Y555D02*
X1316Y555D01*
X2458Y555D02*
X2462Y555D01*
X2682Y555D02*
X2689Y555D01*
X0Y554D02*
X7Y554D01*
X735Y554D02*
X747Y554D01*
X759Y554D02*
X765Y554D01*
X1312Y554D02*
X1316Y554D01*
X2458Y554D02*
X2462Y554D01*
X2682Y554D02*
X2689Y554D01*
X0Y553D02*
X7Y553D01*
X733Y553D02*
X747Y553D01*
X759Y553D02*
X765Y553D01*
X1312Y553D02*
X1316Y553D01*
X2458Y553D02*
X2462Y553D01*
X2682Y553D02*
X2689Y553D01*
X0Y552D02*
X7Y552D01*
X731Y552D02*
X747Y552D01*
X759Y552D02*
X765Y552D01*
X1312Y552D02*
X1316Y552D01*
X2459Y552D02*
X2463Y552D01*
X2682Y552D02*
X2689Y552D01*
X0Y551D02*
X7Y551D01*
X729Y551D02*
X747Y551D01*
X759Y551D02*
X765Y551D01*
X1312Y551D02*
X1316Y551D01*
X2459Y551D02*
X2463Y551D01*
X2682Y551D02*
X2689Y551D01*
X0Y550D02*
X7Y550D01*
X728Y550D02*
X747Y550D01*
X759Y550D02*
X765Y550D01*
X1312Y550D02*
X1316Y550D01*
X2459Y550D02*
X2463Y550D01*
X2682Y550D02*
X2689Y550D01*
X0Y549D02*
X7Y549D01*
X726Y549D02*
X739Y549D01*
X741Y549D02*
X747Y549D01*
X759Y549D02*
X765Y549D01*
X1312Y549D02*
X1316Y549D01*
X2459Y549D02*
X2463Y549D01*
X2682Y549D02*
X2689Y549D01*
X0Y548D02*
X7Y548D01*
X724Y548D02*
X737Y548D01*
X741Y548D02*
X747Y548D01*
X759Y548D02*
X765Y548D01*
X1311Y548D02*
X1315Y548D01*
X2459Y548D02*
X2463Y548D01*
X2682Y548D02*
X2689Y548D01*
X0Y547D02*
X7Y547D01*
X723Y547D02*
X736Y547D01*
X741Y547D02*
X747Y547D01*
X759Y547D02*
X765Y547D01*
X1311Y547D02*
X1315Y547D01*
X2459Y547D02*
X2463Y547D01*
X2682Y547D02*
X2689Y547D01*
X0Y546D02*
X7Y546D01*
X721Y546D02*
X734Y546D01*
X741Y546D02*
X747Y546D01*
X759Y546D02*
X765Y546D01*
X1311Y546D02*
X1315Y546D01*
X2459Y546D02*
X2463Y546D01*
X2682Y546D02*
X2689Y546D01*
X0Y545D02*
X7Y545D01*
X719Y545D02*
X732Y545D01*
X741Y545D02*
X747Y545D01*
X759Y545D02*
X765Y545D01*
X1311Y545D02*
X1315Y545D01*
X2459Y545D02*
X2463Y545D01*
X2682Y545D02*
X2689Y545D01*
X0Y544D02*
X7Y544D01*
X717Y544D02*
X730Y544D01*
X741Y544D02*
X748Y544D01*
X758Y544D02*
X765Y544D01*
X1311Y544D02*
X1315Y544D01*
X2459Y544D02*
X2463Y544D01*
X2682Y544D02*
X2689Y544D01*
X0Y543D02*
X7Y543D01*
X716Y543D02*
X729Y543D01*
X741Y543D02*
X748Y543D01*
X757Y543D02*
X764Y543D01*
X1311Y543D02*
X1315Y543D01*
X2459Y543D02*
X2463Y543D01*
X2682Y543D02*
X2689Y543D01*
X0Y542D02*
X7Y542D01*
X714Y542D02*
X727Y542D01*
X742Y542D02*
X764Y542D01*
X1311Y542D02*
X1315Y542D01*
X2459Y542D02*
X2463Y542D01*
X2682Y542D02*
X2689Y542D01*
X0Y541D02*
X7Y541D01*
X713Y541D02*
X725Y541D01*
X742Y541D02*
X764Y541D01*
X1311Y541D02*
X1315Y541D01*
X2459Y541D02*
X2463Y541D01*
X2682Y541D02*
X2689Y541D01*
X0Y540D02*
X7Y540D01*
X712Y540D02*
X724Y540D01*
X743Y540D02*
X763Y540D01*
X1311Y540D02*
X1315Y540D01*
X2459Y540D02*
X2463Y540D01*
X2682Y540D02*
X2689Y540D01*
X0Y539D02*
X7Y539D01*
X712Y539D02*
X722Y539D01*
X744Y539D02*
X762Y539D01*
X1311Y539D02*
X1315Y539D01*
X2459Y539D02*
X2463Y539D01*
X2682Y539D02*
X2689Y539D01*
X0Y538D02*
X7Y538D01*
X712Y538D02*
X720Y538D01*
X744Y538D02*
X761Y538D01*
X1311Y538D02*
X1315Y538D01*
X2459Y538D02*
X2463Y538D01*
X2682Y538D02*
X2689Y538D01*
X0Y537D02*
X7Y537D01*
X712Y537D02*
X718Y537D01*
X746Y537D02*
X760Y537D01*
X1311Y537D02*
X1315Y537D01*
X2459Y537D02*
X2463Y537D01*
X2682Y537D02*
X2689Y537D01*
X0Y536D02*
X7Y536D01*
X713Y536D02*
X717Y536D01*
X747Y536D02*
X759Y536D01*
X1311Y536D02*
X1315Y536D01*
X2459Y536D02*
X2463Y536D01*
X2682Y536D02*
X2689Y536D01*
X0Y535D02*
X7Y535D01*
X1311Y535D02*
X1315Y535D01*
X2459Y535D02*
X2463Y535D01*
X2682Y535D02*
X2689Y535D01*
X0Y534D02*
X7Y534D01*
X1311Y534D02*
X1315Y534D01*
X2460Y534D02*
X2464Y534D01*
X2682Y534D02*
X2689Y534D01*
X0Y533D02*
X7Y533D01*
X1311Y533D02*
X1315Y533D01*
X2460Y533D02*
X2464Y533D01*
X2682Y533D02*
X2689Y533D01*
X0Y532D02*
X7Y532D01*
X1311Y532D02*
X1315Y532D01*
X2460Y532D02*
X2464Y532D01*
X2682Y532D02*
X2689Y532D01*
X0Y531D02*
X7Y531D01*
X1311Y531D02*
X1315Y531D01*
X2460Y531D02*
X2464Y531D01*
X2682Y531D02*
X2689Y531D01*
X0Y530D02*
X7Y530D01*
X1311Y530D02*
X1315Y530D01*
X2460Y530D02*
X2464Y530D01*
X2682Y530D02*
X2689Y530D01*
X0Y529D02*
X7Y529D01*
X1311Y529D02*
X1315Y529D01*
X2460Y529D02*
X2464Y529D01*
X2682Y529D02*
X2689Y529D01*
X0Y528D02*
X7Y528D01*
X1310Y528D02*
X1314Y528D01*
X2460Y528D02*
X2464Y528D01*
X2682Y528D02*
X2689Y528D01*
X0Y527D02*
X7Y527D01*
X534Y527D02*
X543Y527D01*
X634Y527D02*
X643Y527D01*
X1310Y527D02*
X1314Y527D01*
X2460Y527D02*
X2464Y527D01*
X2682Y527D02*
X2689Y527D01*
X0Y526D02*
X7Y526D01*
X534Y526D02*
X543Y526D01*
X634Y526D02*
X643Y526D01*
X1310Y526D02*
X1314Y526D01*
X2460Y526D02*
X2464Y526D01*
X2682Y526D02*
X2689Y526D01*
X0Y525D02*
X7Y525D01*
X534Y525D02*
X543Y525D01*
X634Y525D02*
X643Y525D01*
X1310Y525D02*
X1314Y525D01*
X2460Y525D02*
X2464Y525D01*
X2682Y525D02*
X2689Y525D01*
X0Y524D02*
X7Y524D01*
X534Y524D02*
X543Y524D01*
X634Y524D02*
X643Y524D01*
X1310Y524D02*
X1314Y524D01*
X2460Y524D02*
X2464Y524D01*
X2682Y524D02*
X2689Y524D01*
X0Y523D02*
X7Y523D01*
X534Y523D02*
X543Y523D01*
X634Y523D02*
X643Y523D01*
X1310Y523D02*
X1314Y523D01*
X2460Y523D02*
X2464Y523D01*
X2682Y523D02*
X2689Y523D01*
X0Y522D02*
X7Y522D01*
X534Y522D02*
X543Y522D01*
X634Y522D02*
X643Y522D01*
X1310Y522D02*
X1314Y522D01*
X2460Y522D02*
X2464Y522D01*
X2682Y522D02*
X2689Y522D01*
X0Y521D02*
X7Y521D01*
X321Y521D02*
X322Y521D01*
X534Y521D02*
X543Y521D01*
X634Y521D02*
X643Y521D01*
X1310Y521D02*
X1314Y521D01*
X2460Y521D02*
X2464Y521D01*
X2682Y521D02*
X2689Y521D01*
X0Y520D02*
X7Y520D01*
X320Y520D02*
X323Y520D01*
X534Y520D02*
X543Y520D01*
X634Y520D02*
X643Y520D01*
X1310Y520D02*
X1314Y520D01*
X2460Y520D02*
X2464Y520D01*
X2682Y520D02*
X2689Y520D01*
X0Y519D02*
X7Y519D01*
X319Y519D02*
X324Y519D01*
X534Y519D02*
X543Y519D01*
X634Y519D02*
X643Y519D01*
X714Y519D02*
X716Y519D01*
X761Y519D02*
X763Y519D01*
X1310Y519D02*
X1314Y519D01*
X2460Y519D02*
X2464Y519D01*
X2682Y519D02*
X2689Y519D01*
X0Y518D02*
X7Y518D01*
X318Y518D02*
X324Y518D01*
X534Y518D02*
X543Y518D01*
X634Y518D02*
X643Y518D01*
X712Y518D02*
X717Y518D01*
X760Y518D02*
X764Y518D01*
X1310Y518D02*
X1314Y518D01*
X2460Y518D02*
X2464Y518D01*
X2682Y518D02*
X2689Y518D01*
X0Y517D02*
X7Y517D01*
X317Y517D02*
X323Y517D01*
X534Y517D02*
X543Y517D01*
X634Y517D02*
X643Y517D01*
X712Y517D02*
X717Y517D01*
X759Y517D02*
X765Y517D01*
X1310Y517D02*
X1314Y517D01*
X2460Y517D02*
X2464Y517D01*
X2682Y517D02*
X2689Y517D01*
X0Y516D02*
X7Y516D01*
X316Y516D02*
X322Y516D01*
X534Y516D02*
X543Y516D01*
X634Y516D02*
X643Y516D01*
X712Y516D02*
X718Y516D01*
X759Y516D02*
X765Y516D01*
X1310Y516D02*
X1314Y516D01*
X2460Y516D02*
X2464Y516D01*
X2682Y516D02*
X2689Y516D01*
X0Y515D02*
X7Y515D01*
X315Y515D02*
X321Y515D01*
X534Y515D02*
X543Y515D01*
X634Y515D02*
X643Y515D01*
X712Y515D02*
X718Y515D01*
X759Y515D02*
X765Y515D01*
X1310Y515D02*
X1314Y515D01*
X2460Y515D02*
X2464Y515D01*
X2682Y515D02*
X2689Y515D01*
X0Y514D02*
X7Y514D01*
X534Y514D02*
X543Y514D01*
X634Y514D02*
X643Y514D01*
X712Y514D02*
X718Y514D01*
X759Y514D02*
X765Y514D01*
X1310Y514D02*
X1314Y514D01*
X2460Y514D02*
X2464Y514D01*
X2682Y514D02*
X2689Y514D01*
X0Y513D02*
X7Y513D01*
X534Y513D02*
X543Y513D01*
X634Y513D02*
X643Y513D01*
X712Y513D02*
X718Y513D01*
X759Y513D02*
X765Y513D01*
X1310Y513D02*
X1314Y513D01*
X2460Y513D02*
X2464Y513D01*
X2682Y513D02*
X2689Y513D01*
X0Y512D02*
X7Y512D01*
X534Y512D02*
X543Y512D01*
X634Y512D02*
X643Y512D01*
X712Y512D02*
X718Y512D01*
X737Y512D02*
X740Y512D01*
X759Y512D02*
X765Y512D01*
X1310Y512D02*
X1314Y512D01*
X2460Y512D02*
X2464Y512D01*
X2682Y512D02*
X2689Y512D01*
X0Y511D02*
X7Y511D01*
X534Y511D02*
X543Y511D01*
X634Y511D02*
X643Y511D01*
X712Y511D02*
X718Y511D01*
X736Y511D02*
X741Y511D01*
X759Y511D02*
X765Y511D01*
X1310Y511D02*
X1314Y511D01*
X2460Y511D02*
X2464Y511D01*
X2682Y511D02*
X2689Y511D01*
X0Y510D02*
X7Y510D01*
X534Y510D02*
X543Y510D01*
X634Y510D02*
X643Y510D01*
X712Y510D02*
X718Y510D01*
X735Y510D02*
X741Y510D01*
X759Y510D02*
X765Y510D01*
X1310Y510D02*
X1314Y510D01*
X2460Y510D02*
X2464Y510D01*
X2682Y510D02*
X2689Y510D01*
X0Y509D02*
X7Y509D01*
X534Y509D02*
X543Y509D01*
X634Y509D02*
X643Y509D01*
X712Y509D02*
X718Y509D01*
X735Y509D02*
X741Y509D01*
X759Y509D02*
X765Y509D01*
X1310Y509D02*
X1314Y509D01*
X2460Y509D02*
X2464Y509D01*
X2682Y509D02*
X2689Y509D01*
X0Y508D02*
X7Y508D01*
X534Y508D02*
X543Y508D01*
X634Y508D02*
X643Y508D01*
X712Y508D02*
X718Y508D01*
X735Y508D02*
X741Y508D01*
X759Y508D02*
X765Y508D01*
X1310Y508D02*
X1314Y508D01*
X2460Y508D02*
X2464Y508D01*
X2682Y508D02*
X2689Y508D01*
X0Y507D02*
X7Y507D01*
X534Y507D02*
X543Y507D01*
X634Y507D02*
X643Y507D01*
X712Y507D02*
X718Y507D01*
X735Y507D02*
X741Y507D01*
X759Y507D02*
X765Y507D01*
X1310Y507D02*
X1314Y507D01*
X2460Y507D02*
X2464Y507D01*
X2682Y507D02*
X2689Y507D01*
X0Y506D02*
X7Y506D01*
X534Y506D02*
X543Y506D01*
X634Y506D02*
X643Y506D01*
X712Y506D02*
X718Y506D01*
X735Y506D02*
X741Y506D01*
X759Y506D02*
X765Y506D01*
X1310Y506D02*
X1314Y506D01*
X2460Y506D02*
X2464Y506D01*
X2682Y506D02*
X2689Y506D01*
X0Y505D02*
X7Y505D01*
X534Y505D02*
X543Y505D01*
X634Y505D02*
X643Y505D01*
X712Y505D02*
X718Y505D01*
X735Y505D02*
X741Y505D01*
X759Y505D02*
X765Y505D01*
X1310Y505D02*
X1314Y505D01*
X2460Y505D02*
X2464Y505D01*
X2682Y505D02*
X2689Y505D01*
X0Y504D02*
X7Y504D01*
X534Y504D02*
X543Y504D01*
X634Y504D02*
X643Y504D01*
X712Y504D02*
X718Y504D01*
X735Y504D02*
X741Y504D01*
X759Y504D02*
X765Y504D01*
X1310Y504D02*
X1314Y504D01*
X2460Y504D02*
X2464Y504D01*
X2682Y504D02*
X2689Y504D01*
X0Y503D02*
X7Y503D01*
X534Y503D02*
X543Y503D01*
X634Y503D02*
X643Y503D01*
X712Y503D02*
X718Y503D01*
X735Y503D02*
X741Y503D01*
X759Y503D02*
X765Y503D01*
X1310Y503D02*
X1314Y503D01*
X2460Y503D02*
X2464Y503D01*
X2682Y503D02*
X2689Y503D01*
X0Y502D02*
X7Y502D01*
X534Y502D02*
X543Y502D01*
X634Y502D02*
X643Y502D01*
X712Y502D02*
X718Y502D01*
X735Y502D02*
X741Y502D01*
X759Y502D02*
X765Y502D01*
X1310Y502D02*
X1314Y502D01*
X2460Y502D02*
X2464Y502D01*
X2682Y502D02*
X2689Y502D01*
X0Y501D02*
X7Y501D01*
X534Y501D02*
X543Y501D01*
X634Y501D02*
X643Y501D01*
X712Y501D02*
X718Y501D01*
X735Y501D02*
X741Y501D01*
X759Y501D02*
X765Y501D01*
X1310Y501D02*
X1314Y501D01*
X2460Y501D02*
X2464Y501D01*
X2682Y501D02*
X2689Y501D01*
X0Y500D02*
X7Y500D01*
X534Y500D02*
X543Y500D01*
X634Y500D02*
X643Y500D01*
X712Y500D02*
X718Y500D01*
X735Y500D02*
X741Y500D01*
X759Y500D02*
X765Y500D01*
X1310Y500D02*
X1314Y500D01*
X2460Y500D02*
X2464Y500D01*
X2682Y500D02*
X2689Y500D01*
X0Y499D02*
X7Y499D01*
X534Y499D02*
X543Y499D01*
X634Y499D02*
X643Y499D01*
X712Y499D02*
X718Y499D01*
X735Y499D02*
X741Y499D01*
X759Y499D02*
X765Y499D01*
X1310Y499D02*
X1314Y499D01*
X2460Y499D02*
X2464Y499D01*
X2682Y499D02*
X2689Y499D01*
X0Y498D02*
X7Y498D01*
X534Y498D02*
X543Y498D01*
X634Y498D02*
X643Y498D01*
X712Y498D02*
X718Y498D01*
X735Y498D02*
X741Y498D01*
X759Y498D02*
X765Y498D01*
X1310Y498D02*
X1314Y498D01*
X2460Y498D02*
X2464Y498D01*
X2682Y498D02*
X2689Y498D01*
X0Y497D02*
X7Y497D01*
X534Y497D02*
X543Y497D01*
X634Y497D02*
X643Y497D01*
X712Y497D02*
X718Y497D01*
X735Y497D02*
X741Y497D01*
X759Y497D02*
X765Y497D01*
X1310Y497D02*
X1314Y497D01*
X2460Y497D02*
X2464Y497D01*
X2682Y497D02*
X2689Y497D01*
X0Y496D02*
X7Y496D01*
X534Y496D02*
X543Y496D01*
X634Y496D02*
X643Y496D01*
X712Y496D02*
X718Y496D01*
X735Y496D02*
X741Y496D01*
X759Y496D02*
X765Y496D01*
X1310Y496D02*
X1314Y496D01*
X2460Y496D02*
X2464Y496D01*
X2682Y496D02*
X2689Y496D01*
X0Y495D02*
X7Y495D01*
X534Y495D02*
X543Y495D01*
X634Y495D02*
X643Y495D01*
X712Y495D02*
X718Y495D01*
X735Y495D02*
X741Y495D01*
X759Y495D02*
X765Y495D01*
X1310Y495D02*
X1314Y495D01*
X2460Y495D02*
X2464Y495D01*
X2682Y495D02*
X2689Y495D01*
X0Y494D02*
X7Y494D01*
X294Y494D02*
X294Y494D01*
X534Y494D02*
X543Y494D01*
X634Y494D02*
X643Y494D01*
X712Y494D02*
X718Y494D01*
X735Y494D02*
X742Y494D01*
X759Y494D02*
X765Y494D01*
X1310Y494D02*
X1314Y494D01*
X2460Y494D02*
X2464Y494D01*
X2682Y494D02*
X2689Y494D01*
X0Y493D02*
X7Y493D01*
X293Y493D02*
X294Y493D01*
X534Y493D02*
X543Y493D01*
X634Y493D02*
X643Y493D01*
X712Y493D02*
X718Y493D01*
X734Y493D02*
X742Y493D01*
X759Y493D02*
X765Y493D01*
X1310Y493D02*
X1314Y493D01*
X2460Y493D02*
X2464Y493D01*
X2682Y493D02*
X2689Y493D01*
X0Y492D02*
X7Y492D01*
X292Y492D02*
X294Y492D01*
X534Y492D02*
X543Y492D01*
X634Y492D02*
X643Y492D01*
X712Y492D02*
X718Y492D01*
X732Y492D02*
X744Y492D01*
X758Y492D02*
X765Y492D01*
X1310Y492D02*
X1314Y492D01*
X2460Y492D02*
X2464Y492D01*
X2682Y492D02*
X2689Y492D01*
X0Y491D02*
X7Y491D01*
X291Y491D02*
X294Y491D01*
X534Y491D02*
X543Y491D01*
X634Y491D02*
X643Y491D01*
X712Y491D02*
X765Y491D01*
X1157Y491D02*
X1184Y491D01*
X1209Y491D02*
X1237Y491D01*
X1311Y491D02*
X1315Y491D01*
X2460Y491D02*
X2464Y491D01*
X2682Y491D02*
X2689Y491D01*
X0Y490D02*
X7Y490D01*
X290Y490D02*
X294Y490D01*
X534Y490D02*
X543Y490D01*
X634Y490D02*
X643Y490D01*
X712Y490D02*
X765Y490D01*
X1157Y490D02*
X1186Y490D01*
X1208Y490D02*
X1238Y490D01*
X1311Y490D02*
X1315Y490D01*
X2460Y490D02*
X2464Y490D01*
X2682Y490D02*
X2689Y490D01*
X0Y489D02*
X7Y489D01*
X289Y489D02*
X294Y489D01*
X534Y489D02*
X543Y489D01*
X634Y489D02*
X643Y489D01*
X712Y489D02*
X764Y489D01*
X1157Y489D02*
X1187Y489D01*
X1207Y489D02*
X1239Y489D01*
X1311Y489D02*
X1315Y489D01*
X2460Y489D02*
X2464Y489D01*
X2682Y489D02*
X2689Y489D01*
X0Y488D02*
X7Y488D01*
X288Y488D02*
X294Y488D01*
X534Y488D02*
X543Y488D01*
X634Y488D02*
X643Y488D01*
X713Y488D02*
X764Y488D01*
X1157Y488D02*
X1188Y488D01*
X1207Y488D02*
X1240Y488D01*
X1311Y488D02*
X1315Y488D01*
X2460Y488D02*
X2464Y488D01*
X2682Y488D02*
X2689Y488D01*
X0Y487D02*
X7Y487D01*
X287Y487D02*
X293Y487D01*
X534Y487D02*
X543Y487D01*
X634Y487D02*
X643Y487D01*
X714Y487D02*
X737Y487D01*
X740Y487D02*
X763Y487D01*
X1157Y487D02*
X1189Y487D01*
X1207Y487D02*
X1240Y487D01*
X1311Y487D02*
X1315Y487D01*
X2460Y487D02*
X2464Y487D01*
X2682Y487D02*
X2689Y487D01*
X0Y486D02*
X7Y486D01*
X288Y486D02*
X292Y486D01*
X534Y486D02*
X543Y486D01*
X634Y486D02*
X643Y486D01*
X715Y486D02*
X735Y486D01*
X741Y486D02*
X761Y486D01*
X1157Y486D02*
X1189Y486D01*
X1208Y486D02*
X1240Y486D01*
X1311Y486D02*
X1315Y486D01*
X2460Y486D02*
X2464Y486D01*
X2682Y486D02*
X2689Y486D01*
X0Y485D02*
X7Y485D01*
X289Y485D02*
X291Y485D01*
X534Y485D02*
X543Y485D01*
X634Y485D02*
X643Y485D01*
X718Y485D02*
X732Y485D01*
X745Y485D02*
X759Y485D01*
X1157Y485D02*
X1190Y485D01*
X1209Y485D02*
X1241Y485D01*
X1311Y485D02*
X1315Y485D01*
X2459Y485D02*
X2463Y485D01*
X2682Y485D02*
X2689Y485D01*
X0Y484D02*
X7Y484D01*
X290Y484D02*
X290Y484D01*
X534Y484D02*
X543Y484D01*
X634Y484D02*
X643Y484D01*
X1157Y484D02*
X1163Y484D01*
X1183Y484D02*
X1190Y484D01*
X1235Y484D02*
X1241Y484D01*
X1311Y484D02*
X1315Y484D01*
X2459Y484D02*
X2463Y484D01*
X2682Y484D02*
X2689Y484D01*
X0Y483D02*
X7Y483D01*
X534Y483D02*
X543Y483D01*
X634Y483D02*
X643Y483D01*
X1157Y483D02*
X1163Y483D01*
X1184Y483D02*
X1190Y483D01*
X1235Y483D02*
X1241Y483D01*
X1311Y483D02*
X1315Y483D01*
X2459Y483D02*
X2463Y483D01*
X2682Y483D02*
X2689Y483D01*
X0Y482D02*
X7Y482D01*
X534Y482D02*
X543Y482D01*
X634Y482D02*
X643Y482D01*
X1157Y482D02*
X1163Y482D01*
X1184Y482D02*
X1190Y482D01*
X1235Y482D02*
X1241Y482D01*
X1311Y482D02*
X1315Y482D01*
X2459Y482D02*
X2463Y482D01*
X2682Y482D02*
X2689Y482D01*
X0Y481D02*
X7Y481D01*
X534Y481D02*
X543Y481D01*
X634Y481D02*
X643Y481D01*
X1157Y481D02*
X1163Y481D01*
X1184Y481D02*
X1190Y481D01*
X1235Y481D02*
X1241Y481D01*
X1311Y481D02*
X1315Y481D01*
X2459Y481D02*
X2463Y481D01*
X2682Y481D02*
X2689Y481D01*
X0Y480D02*
X7Y480D01*
X534Y480D02*
X543Y480D01*
X634Y480D02*
X643Y480D01*
X1157Y480D02*
X1163Y480D01*
X1184Y480D02*
X1190Y480D01*
X1235Y480D02*
X1241Y480D01*
X1311Y480D02*
X1315Y480D01*
X2459Y480D02*
X2463Y480D01*
X2682Y480D02*
X2689Y480D01*
X0Y479D02*
X7Y479D01*
X634Y479D02*
X643Y479D01*
X1157Y479D02*
X1163Y479D01*
X1184Y479D02*
X1190Y479D01*
X1235Y479D02*
X1241Y479D01*
X1311Y479D02*
X1315Y479D01*
X2459Y479D02*
X2463Y479D01*
X2682Y479D02*
X2689Y479D01*
X0Y478D02*
X7Y478D01*
X634Y478D02*
X643Y478D01*
X1157Y478D02*
X1163Y478D01*
X1184Y478D02*
X1190Y478D01*
X1235Y478D02*
X1241Y478D01*
X1311Y478D02*
X1315Y478D01*
X2459Y478D02*
X2463Y478D01*
X2682Y478D02*
X2689Y478D01*
X0Y477D02*
X7Y477D01*
X634Y477D02*
X643Y477D01*
X1157Y477D02*
X1163Y477D01*
X1184Y477D02*
X1190Y477D01*
X1235Y477D02*
X1241Y477D01*
X1311Y477D02*
X1315Y477D01*
X2459Y477D02*
X2463Y477D01*
X2682Y477D02*
X2689Y477D01*
X0Y476D02*
X7Y476D01*
X634Y476D02*
X643Y476D01*
X1157Y476D02*
X1163Y476D01*
X1184Y476D02*
X1190Y476D01*
X1235Y476D02*
X1241Y476D01*
X1311Y476D02*
X1315Y476D01*
X2459Y476D02*
X2463Y476D01*
X2682Y476D02*
X2689Y476D01*
X0Y475D02*
X7Y475D01*
X634Y475D02*
X643Y475D01*
X1157Y475D02*
X1163Y475D01*
X1183Y475D02*
X1190Y475D01*
X1235Y475D02*
X1241Y475D01*
X1311Y475D02*
X1315Y475D01*
X2459Y475D02*
X2463Y475D01*
X2682Y475D02*
X2689Y475D01*
X0Y474D02*
X7Y474D01*
X634Y474D02*
X643Y474D01*
X1157Y474D02*
X1190Y474D01*
X1235Y474D02*
X1241Y474D01*
X1311Y474D02*
X1315Y474D01*
X2459Y474D02*
X2463Y474D01*
X2682Y474D02*
X2689Y474D01*
X0Y473D02*
X7Y473D01*
X634Y473D02*
X643Y473D01*
X1157Y473D02*
X1189Y473D01*
X1235Y473D02*
X1241Y473D01*
X1311Y473D02*
X1315Y473D01*
X2459Y473D02*
X2463Y473D01*
X2682Y473D02*
X2689Y473D01*
X0Y472D02*
X7Y472D01*
X634Y472D02*
X643Y472D01*
X1157Y472D02*
X1189Y472D01*
X1235Y472D02*
X1241Y472D01*
X1311Y472D02*
X1315Y472D01*
X2459Y472D02*
X2463Y472D01*
X2682Y472D02*
X2689Y472D01*
X0Y471D02*
X7Y471D01*
X634Y471D02*
X643Y471D01*
X1157Y471D02*
X1188Y471D01*
X1235Y471D02*
X1241Y471D01*
X1312Y471D02*
X1316Y471D01*
X2459Y471D02*
X2463Y471D01*
X2682Y471D02*
X2689Y471D01*
X0Y470D02*
X7Y470D01*
X634Y470D02*
X643Y470D01*
X674Y470D02*
X682Y470D01*
X1157Y470D02*
X1187Y470D01*
X1235Y470D02*
X1241Y470D01*
X1312Y470D02*
X1316Y470D01*
X2459Y470D02*
X2463Y470D01*
X2682Y470D02*
X2689Y470D01*
X0Y469D02*
X7Y469D01*
X634Y469D02*
X643Y469D01*
X674Y469D02*
X683Y469D01*
X1157Y469D02*
X1186Y469D01*
X1235Y469D02*
X1241Y469D01*
X1312Y469D02*
X1316Y469D01*
X2459Y469D02*
X2463Y469D01*
X2682Y469D02*
X2689Y469D01*
X0Y468D02*
X7Y468D01*
X634Y468D02*
X643Y468D01*
X674Y468D02*
X683Y468D01*
X1157Y468D02*
X1184Y468D01*
X1213Y468D02*
X1241Y468D01*
X1312Y468D02*
X1316Y468D01*
X2459Y468D02*
X2463Y468D01*
X2682Y468D02*
X2689Y468D01*
X0Y467D02*
X7Y467D01*
X634Y467D02*
X643Y467D01*
X674Y467D02*
X683Y467D01*
X1157Y467D02*
X1180Y467D01*
X1210Y467D02*
X1240Y467D01*
X1312Y467D02*
X1316Y467D01*
X2458Y467D02*
X2462Y467D01*
X2682Y467D02*
X2689Y467D01*
X0Y466D02*
X7Y466D01*
X634Y466D02*
X643Y466D01*
X674Y466D02*
X683Y466D01*
X1157Y466D02*
X1163Y466D01*
X1169Y466D02*
X1176Y466D01*
X1209Y466D02*
X1240Y466D01*
X1312Y466D02*
X1316Y466D01*
X2458Y466D02*
X2462Y466D01*
X2682Y466D02*
X2689Y466D01*
X0Y465D02*
X7Y465D01*
X634Y465D02*
X643Y465D01*
X674Y465D02*
X683Y465D01*
X1157Y465D02*
X1163Y465D01*
X1170Y465D02*
X1177Y465D01*
X1208Y465D02*
X1240Y465D01*
X1312Y465D02*
X1316Y465D01*
X2458Y465D02*
X2462Y465D01*
X2682Y465D02*
X2689Y465D01*
X0Y464D02*
X7Y464D01*
X634Y464D02*
X643Y464D01*
X674Y464D02*
X683Y464D01*
X1157Y464D02*
X1163Y464D01*
X1170Y464D02*
X1178Y464D01*
X1208Y464D02*
X1239Y464D01*
X1312Y464D02*
X1316Y464D01*
X2458Y464D02*
X2462Y464D01*
X2682Y464D02*
X2689Y464D01*
X0Y463D02*
X7Y463D01*
X634Y463D02*
X643Y463D01*
X674Y463D02*
X683Y463D01*
X1157Y463D02*
X1163Y463D01*
X1171Y463D02*
X1178Y463D01*
X1207Y463D02*
X1238Y463D01*
X1312Y463D02*
X1316Y463D01*
X2458Y463D02*
X2462Y463D01*
X2682Y463D02*
X2689Y463D01*
X0Y462D02*
X7Y462D01*
X634Y462D02*
X643Y462D01*
X674Y462D02*
X683Y462D01*
X1157Y462D02*
X1163Y462D01*
X1172Y462D02*
X1179Y462D01*
X1207Y462D02*
X1237Y462D01*
X1312Y462D02*
X1316Y462D01*
X2458Y462D02*
X2462Y462D01*
X2682Y462D02*
X2689Y462D01*
X0Y461D02*
X7Y461D01*
X634Y461D02*
X643Y461D01*
X674Y461D02*
X683Y461D01*
X1157Y461D02*
X1163Y461D01*
X1172Y461D02*
X1179Y461D01*
X1207Y461D02*
X1213Y461D01*
X1312Y461D02*
X1316Y461D01*
X2458Y461D02*
X2462Y461D01*
X2682Y461D02*
X2689Y461D01*
X0Y460D02*
X7Y460D01*
X674Y460D02*
X683Y460D01*
X1157Y460D02*
X1163Y460D01*
X1173Y460D02*
X1180Y460D01*
X1207Y460D02*
X1213Y460D01*
X1312Y460D02*
X1316Y460D01*
X2458Y460D02*
X2462Y460D01*
X2682Y460D02*
X2689Y460D01*
X0Y459D02*
X7Y459D01*
X674Y459D02*
X683Y459D01*
X1157Y459D02*
X1163Y459D01*
X1173Y459D02*
X1180Y459D01*
X1207Y459D02*
X1213Y459D01*
X1312Y459D02*
X1316Y459D01*
X2458Y459D02*
X2462Y459D01*
X2682Y459D02*
X2689Y459D01*
X0Y458D02*
X7Y458D01*
X674Y458D02*
X683Y458D01*
X1157Y458D02*
X1163Y458D01*
X1174Y458D02*
X1181Y458D01*
X1207Y458D02*
X1213Y458D01*
X1313Y458D02*
X1317Y458D01*
X2458Y458D02*
X2462Y458D01*
X2682Y458D02*
X2689Y458D01*
X0Y457D02*
X7Y457D01*
X674Y457D02*
X683Y457D01*
X1157Y457D02*
X1163Y457D01*
X1174Y457D02*
X1182Y457D01*
X1207Y457D02*
X1213Y457D01*
X1313Y457D02*
X1317Y457D01*
X2458Y457D02*
X2462Y457D01*
X2682Y457D02*
X2689Y457D01*
X0Y456D02*
X7Y456D01*
X674Y456D02*
X683Y456D01*
X1157Y456D02*
X1163Y456D01*
X1175Y456D02*
X1182Y456D01*
X1207Y456D02*
X1213Y456D01*
X1313Y456D02*
X1317Y456D01*
X2458Y456D02*
X2462Y456D01*
X2682Y456D02*
X2689Y456D01*
X0Y455D02*
X7Y455D01*
X674Y455D02*
X683Y455D01*
X1157Y455D02*
X1163Y455D01*
X1176Y455D02*
X1183Y455D01*
X1207Y455D02*
X1213Y455D01*
X1313Y455D02*
X1317Y455D01*
X2457Y455D02*
X2461Y455D01*
X2682Y455D02*
X2689Y455D01*
X0Y454D02*
X7Y454D01*
X674Y454D02*
X683Y454D01*
X1157Y454D02*
X1163Y454D01*
X1176Y454D02*
X1183Y454D01*
X1207Y454D02*
X1213Y454D01*
X1313Y454D02*
X1317Y454D01*
X2457Y454D02*
X2461Y454D01*
X2682Y454D02*
X2689Y454D01*
X0Y453D02*
X7Y453D01*
X674Y453D02*
X683Y453D01*
X1157Y453D02*
X1163Y453D01*
X1177Y453D02*
X1184Y453D01*
X1207Y453D02*
X1213Y453D01*
X1313Y453D02*
X1317Y453D01*
X2457Y453D02*
X2461Y453D01*
X2682Y453D02*
X2689Y453D01*
X0Y452D02*
X7Y452D01*
X674Y452D02*
X683Y452D01*
X1157Y452D02*
X1163Y452D01*
X1177Y452D02*
X1185Y452D01*
X1207Y452D02*
X1213Y452D01*
X1313Y452D02*
X1317Y452D01*
X2457Y452D02*
X2461Y452D01*
X2682Y452D02*
X2689Y452D01*
X0Y451D02*
X7Y451D01*
X674Y451D02*
X683Y451D01*
X1157Y451D02*
X1163Y451D01*
X1178Y451D02*
X1185Y451D01*
X1207Y451D02*
X1213Y451D01*
X1313Y451D02*
X1317Y451D01*
X2457Y451D02*
X2461Y451D01*
X2682Y451D02*
X2689Y451D01*
X0Y450D02*
X7Y450D01*
X674Y450D02*
X683Y450D01*
X1157Y450D02*
X1163Y450D01*
X1179Y450D02*
X1186Y450D01*
X1207Y450D02*
X1213Y450D01*
X1313Y450D02*
X1317Y450D01*
X2457Y450D02*
X2461Y450D01*
X2682Y450D02*
X2689Y450D01*
X0Y449D02*
X7Y449D01*
X674Y449D02*
X683Y449D01*
X1157Y449D02*
X1163Y449D01*
X1179Y449D02*
X1186Y449D01*
X1207Y449D02*
X1213Y449D01*
X1313Y449D02*
X1317Y449D01*
X2457Y449D02*
X2461Y449D01*
X2682Y449D02*
X2689Y449D01*
X0Y448D02*
X7Y448D01*
X674Y448D02*
X683Y448D01*
X1157Y448D02*
X1163Y448D01*
X1180Y448D02*
X1187Y448D01*
X1207Y448D02*
X1213Y448D01*
X1314Y448D02*
X1318Y448D01*
X2457Y448D02*
X2461Y448D01*
X2682Y448D02*
X2689Y448D01*
X0Y447D02*
X7Y447D01*
X674Y447D02*
X683Y447D01*
X1157Y447D02*
X1163Y447D01*
X1180Y447D02*
X1188Y447D01*
X1207Y447D02*
X1213Y447D01*
X1314Y447D02*
X1318Y447D01*
X2457Y447D02*
X2461Y447D01*
X2682Y447D02*
X2689Y447D01*
X0Y446D02*
X7Y446D01*
X674Y446D02*
X683Y446D01*
X1157Y446D02*
X1163Y446D01*
X1181Y446D02*
X1188Y446D01*
X1207Y446D02*
X1213Y446D01*
X1314Y446D02*
X1318Y446D01*
X2456Y446D02*
X2460Y446D01*
X2682Y446D02*
X2689Y446D01*
X0Y445D02*
X7Y445D01*
X674Y445D02*
X683Y445D01*
X1157Y445D02*
X1163Y445D01*
X1181Y445D02*
X1189Y445D01*
X1207Y445D02*
X1213Y445D01*
X1314Y445D02*
X1318Y445D01*
X2456Y445D02*
X2460Y445D01*
X2682Y445D02*
X2689Y445D01*
X0Y444D02*
X7Y444D01*
X674Y444D02*
X683Y444D01*
X1157Y444D02*
X1163Y444D01*
X1182Y444D02*
X1189Y444D01*
X1207Y444D02*
X1239Y444D01*
X1314Y444D02*
X1318Y444D01*
X2456Y444D02*
X2460Y444D01*
X2682Y444D02*
X2689Y444D01*
X0Y443D02*
X7Y443D01*
X674Y443D02*
X683Y443D01*
X1157Y443D02*
X1163Y443D01*
X1183Y443D02*
X1190Y443D01*
X1207Y443D02*
X1240Y443D01*
X1314Y443D02*
X1318Y443D01*
X2456Y443D02*
X2460Y443D01*
X2682Y443D02*
X2689Y443D01*
X0Y442D02*
X7Y442D01*
X674Y442D02*
X683Y442D01*
X1157Y442D02*
X1163Y442D01*
X1183Y442D02*
X1190Y442D01*
X1207Y442D02*
X1240Y442D01*
X1314Y442D02*
X1318Y442D01*
X2456Y442D02*
X2460Y442D01*
X2682Y442D02*
X2689Y442D01*
X0Y441D02*
X7Y441D01*
X674Y441D02*
X683Y441D01*
X1157Y441D02*
X1163Y441D01*
X1184Y441D02*
X1190Y441D01*
X1207Y441D02*
X1241Y441D01*
X1314Y441D02*
X1318Y441D01*
X2456Y441D02*
X2460Y441D01*
X2682Y441D02*
X2689Y441D01*
X0Y440D02*
X7Y440D01*
X674Y440D02*
X683Y440D01*
X1157Y440D02*
X1163Y440D01*
X1184Y440D02*
X1190Y440D01*
X1207Y440D02*
X1240Y440D01*
X1314Y440D02*
X1318Y440D01*
X2456Y440D02*
X2460Y440D01*
X2682Y440D02*
X2689Y440D01*
X0Y439D02*
X7Y439D01*
X674Y439D02*
X683Y439D01*
X1158Y439D02*
X1162Y439D01*
X1185Y439D02*
X1190Y439D01*
X1207Y439D02*
X1240Y439D01*
X1315Y439D02*
X1319Y439D01*
X2456Y439D02*
X2460Y439D01*
X2682Y439D02*
X2689Y439D01*
X0Y438D02*
X7Y438D01*
X674Y438D02*
X683Y438D01*
X1159Y438D02*
X1161Y438D01*
X1186Y438D02*
X1188Y438D01*
X1207Y438D02*
X1239Y438D01*
X1315Y438D02*
X1319Y438D01*
X2456Y438D02*
X2460Y438D01*
X2682Y438D02*
X2689Y438D01*
X0Y437D02*
X7Y437D01*
X674Y437D02*
X683Y437D01*
X1315Y437D02*
X1319Y437D01*
X2455Y437D02*
X2459Y437D01*
X2682Y437D02*
X2689Y437D01*
X0Y436D02*
X7Y436D01*
X674Y436D02*
X683Y436D01*
X1315Y436D02*
X1319Y436D01*
X2455Y436D02*
X2459Y436D01*
X2682Y436D02*
X2689Y436D01*
X0Y435D02*
X7Y435D01*
X674Y435D02*
X683Y435D01*
X1315Y435D02*
X1319Y435D01*
X2455Y435D02*
X2459Y435D01*
X2682Y435D02*
X2689Y435D01*
X0Y434D02*
X7Y434D01*
X674Y434D02*
X683Y434D01*
X1315Y434D02*
X1319Y434D01*
X2455Y434D02*
X2459Y434D01*
X2682Y434D02*
X2689Y434D01*
X0Y433D02*
X7Y433D01*
X674Y433D02*
X683Y433D01*
X1315Y433D02*
X1319Y433D01*
X2455Y433D02*
X2459Y433D01*
X2682Y433D02*
X2689Y433D01*
X0Y432D02*
X7Y432D01*
X674Y432D02*
X683Y432D01*
X1315Y432D02*
X1319Y432D01*
X2455Y432D02*
X2459Y432D01*
X2682Y432D02*
X2689Y432D01*
X0Y431D02*
X7Y431D01*
X459Y431D02*
X459Y431D01*
X674Y431D02*
X683Y431D01*
X1316Y431D02*
X1320Y431D01*
X2455Y431D02*
X2459Y431D01*
X2682Y431D02*
X2689Y431D01*
X0Y430D02*
X7Y430D01*
X457Y430D02*
X461Y430D01*
X674Y430D02*
X683Y430D01*
X1316Y430D02*
X1320Y430D01*
X2454Y430D02*
X2458Y430D01*
X2682Y430D02*
X2689Y430D01*
X0Y429D02*
X7Y429D01*
X456Y429D02*
X461Y429D01*
X674Y429D02*
X683Y429D01*
X1316Y429D02*
X1320Y429D01*
X2454Y429D02*
X2458Y429D01*
X2682Y429D02*
X2689Y429D01*
X0Y428D02*
X7Y428D01*
X456Y428D02*
X462Y428D01*
X674Y428D02*
X683Y428D01*
X1316Y428D02*
X1320Y428D01*
X2454Y428D02*
X2458Y428D01*
X2682Y428D02*
X2689Y428D01*
X0Y427D02*
X7Y427D01*
X434Y427D02*
X478Y427D01*
X674Y427D02*
X683Y427D01*
X1316Y427D02*
X1320Y427D01*
X2454Y427D02*
X2458Y427D01*
X2682Y427D02*
X2689Y427D01*
X0Y426D02*
X7Y426D01*
X433Y426D02*
X479Y426D01*
X674Y426D02*
X683Y426D01*
X1088Y426D02*
X1089Y426D01*
X1316Y426D02*
X1320Y426D01*
X2454Y426D02*
X2458Y426D01*
X2682Y426D02*
X2689Y426D01*
X0Y425D02*
X7Y425D01*
X432Y425D02*
X479Y425D01*
X674Y425D02*
X683Y425D01*
X1088Y425D02*
X1090Y425D01*
X1316Y425D02*
X1320Y425D01*
X2454Y425D02*
X2458Y425D01*
X2682Y425D02*
X2689Y425D01*
X0Y424D02*
X7Y424D01*
X432Y424D02*
X479Y424D01*
X674Y424D02*
X683Y424D01*
X1087Y424D02*
X1091Y424D01*
X1317Y424D02*
X1321Y424D01*
X2454Y424D02*
X2458Y424D01*
X2682Y424D02*
X2689Y424D01*
X0Y423D02*
X7Y423D01*
X432Y423D02*
X479Y423D01*
X674Y423D02*
X683Y423D01*
X1086Y423D02*
X1092Y423D01*
X1317Y423D02*
X1321Y423D01*
X2453Y423D02*
X2458Y423D01*
X2682Y423D02*
X2689Y423D01*
X0Y422D02*
X7Y422D01*
X433Y422D02*
X478Y422D01*
X674Y422D02*
X683Y422D01*
X1085Y422D02*
X1093Y422D01*
X1317Y422D02*
X1321Y422D01*
X2453Y422D02*
X2457Y422D01*
X2682Y422D02*
X2689Y422D01*
X0Y421D02*
X7Y421D01*
X434Y421D02*
X477Y421D01*
X674Y421D02*
X683Y421D01*
X1084Y421D02*
X1094Y421D01*
X1317Y421D02*
X1321Y421D01*
X2453Y421D02*
X2457Y421D01*
X2682Y421D02*
X2689Y421D01*
X0Y420D02*
X7Y420D01*
X456Y420D02*
X462Y420D01*
X674Y420D02*
X683Y420D01*
X1082Y420D02*
X1095Y420D01*
X1317Y420D02*
X1321Y420D01*
X2453Y420D02*
X2457Y420D01*
X2682Y420D02*
X2689Y420D01*
X0Y419D02*
X7Y419D01*
X456Y419D02*
X462Y419D01*
X674Y419D02*
X683Y419D01*
X1083Y419D02*
X1096Y419D01*
X1317Y419D02*
X1321Y419D01*
X2453Y419D02*
X2457Y419D01*
X2682Y419D02*
X2689Y419D01*
X0Y418D02*
X7Y418D01*
X456Y418D02*
X462Y418D01*
X674Y418D02*
X683Y418D01*
X1084Y418D02*
X1097Y418D01*
X1318Y418D02*
X1322Y418D01*
X2453Y418D02*
X2457Y418D01*
X2682Y418D02*
X2689Y418D01*
X0Y417D02*
X7Y417D01*
X456Y417D02*
X462Y417D01*
X674Y417D02*
X683Y417D01*
X1085Y417D02*
X1098Y417D01*
X1318Y417D02*
X1322Y417D01*
X2453Y417D02*
X2457Y417D01*
X2682Y417D02*
X2689Y417D01*
X0Y416D02*
X7Y416D01*
X456Y416D02*
X462Y416D01*
X674Y416D02*
X683Y416D01*
X1086Y416D02*
X1099Y416D01*
X1318Y416D02*
X1322Y416D01*
X2452Y416D02*
X2456Y416D01*
X2682Y416D02*
X2689Y416D01*
X0Y415D02*
X7Y415D01*
X456Y415D02*
X462Y415D01*
X674Y415D02*
X683Y415D01*
X1087Y415D02*
X1100Y415D01*
X1318Y415D02*
X1322Y415D01*
X2452Y415D02*
X2456Y415D01*
X2682Y415D02*
X2689Y415D01*
X0Y414D02*
X7Y414D01*
X456Y414D02*
X462Y414D01*
X674Y414D02*
X683Y414D01*
X1088Y414D02*
X1101Y414D01*
X1318Y414D02*
X1322Y414D01*
X2452Y414D02*
X2456Y414D01*
X2682Y414D02*
X2689Y414D01*
X0Y413D02*
X7Y413D01*
X456Y413D02*
X462Y413D01*
X674Y413D02*
X683Y413D01*
X1089Y413D02*
X1102Y413D01*
X1318Y413D02*
X1322Y413D01*
X2452Y413D02*
X2456Y413D01*
X2682Y413D02*
X2689Y413D01*
X0Y412D02*
X7Y412D01*
X456Y412D02*
X462Y412D01*
X674Y412D02*
X683Y412D01*
X1090Y412D02*
X1103Y412D01*
X1319Y412D02*
X1323Y412D01*
X2452Y412D02*
X2456Y412D01*
X2682Y412D02*
X2689Y412D01*
X0Y411D02*
X7Y411D01*
X456Y411D02*
X462Y411D01*
X674Y411D02*
X683Y411D01*
X1091Y411D02*
X1104Y411D01*
X1319Y411D02*
X1323Y411D01*
X2452Y411D02*
X2456Y411D01*
X2682Y411D02*
X2689Y411D01*
X0Y410D02*
X7Y410D01*
X456Y410D02*
X462Y410D01*
X674Y410D02*
X683Y410D01*
X1092Y410D02*
X1105Y410D01*
X1319Y410D02*
X1323Y410D01*
X2451Y410D02*
X2455Y410D01*
X2682Y410D02*
X2689Y410D01*
X0Y409D02*
X7Y409D01*
X456Y409D02*
X462Y409D01*
X674Y409D02*
X683Y409D01*
X1093Y409D02*
X1106Y409D01*
X1319Y409D02*
X1323Y409D01*
X2451Y409D02*
X2455Y409D01*
X2682Y409D02*
X2689Y409D01*
X0Y408D02*
X7Y408D01*
X456Y408D02*
X462Y408D01*
X674Y408D02*
X683Y408D01*
X1094Y408D02*
X1107Y408D01*
X1319Y408D02*
X1323Y408D01*
X2451Y408D02*
X2455Y408D01*
X2682Y408D02*
X2689Y408D01*
X0Y407D02*
X7Y407D01*
X455Y407D02*
X462Y407D01*
X674Y407D02*
X683Y407D01*
X1095Y407D02*
X1108Y407D01*
X1319Y407D02*
X1323Y407D01*
X2451Y407D02*
X2455Y407D01*
X2682Y407D02*
X2689Y407D01*
X0Y406D02*
X7Y406D01*
X427Y406D02*
X462Y406D01*
X674Y406D02*
X683Y406D01*
X1096Y406D02*
X1109Y406D01*
X1320Y406D02*
X1324Y406D01*
X2451Y406D02*
X2455Y406D01*
X2682Y406D02*
X2689Y406D01*
X0Y405D02*
X7Y405D01*
X427Y405D02*
X462Y405D01*
X674Y405D02*
X683Y405D01*
X1097Y405D02*
X1110Y405D01*
X1320Y405D02*
X1324Y405D01*
X2450Y405D02*
X2454Y405D01*
X2682Y405D02*
X2689Y405D01*
X0Y404D02*
X7Y404D01*
X426Y404D02*
X462Y404D01*
X674Y404D02*
X683Y404D01*
X1098Y404D02*
X1111Y404D01*
X1320Y404D02*
X1324Y404D01*
X2450Y404D02*
X2454Y404D01*
X2682Y404D02*
X2689Y404D01*
X0Y403D02*
X7Y403D01*
X426Y403D02*
X462Y403D01*
X674Y403D02*
X683Y403D01*
X1099Y403D02*
X1112Y403D01*
X1320Y403D02*
X1324Y403D01*
X2450Y403D02*
X2454Y403D01*
X2682Y403D02*
X2689Y403D01*
X0Y402D02*
X7Y402D01*
X426Y402D02*
X462Y402D01*
X674Y402D02*
X683Y402D01*
X1100Y402D02*
X1113Y402D01*
X1320Y402D02*
X1324Y402D01*
X2450Y402D02*
X2454Y402D01*
X2682Y402D02*
X2689Y402D01*
X0Y401D02*
X7Y401D01*
X427Y401D02*
X462Y401D01*
X674Y401D02*
X683Y401D01*
X1101Y401D02*
X1114Y401D01*
X1321Y401D02*
X1325Y401D01*
X2450Y401D02*
X2454Y401D01*
X2682Y401D02*
X2689Y401D01*
X0Y400D02*
X7Y400D01*
X429Y400D02*
X461Y400D01*
X674Y400D02*
X683Y400D01*
X1102Y400D02*
X1115Y400D01*
X1321Y400D02*
X1325Y400D01*
X2449Y400D02*
X2454Y400D01*
X2682Y400D02*
X2689Y400D01*
X0Y399D02*
X7Y399D01*
X674Y399D02*
X683Y399D01*
X1103Y399D02*
X1116Y399D01*
X1321Y399D02*
X1325Y399D01*
X2449Y399D02*
X2453Y399D01*
X2682Y399D02*
X2689Y399D01*
X0Y398D02*
X7Y398D01*
X674Y398D02*
X683Y398D01*
X1104Y398D02*
X1117Y398D01*
X1321Y398D02*
X1325Y398D01*
X2449Y398D02*
X2453Y398D01*
X2682Y398D02*
X2689Y398D01*
X0Y397D02*
X7Y397D01*
X674Y397D02*
X683Y397D01*
X1105Y397D02*
X1118Y397D01*
X1321Y397D02*
X1325Y397D01*
X2449Y397D02*
X2453Y397D01*
X2682Y397D02*
X2689Y397D01*
X0Y396D02*
X7Y396D01*
X674Y396D02*
X683Y396D01*
X1106Y396D02*
X1119Y396D01*
X1321Y396D02*
X1326Y396D01*
X2449Y396D02*
X2453Y396D01*
X2682Y396D02*
X2689Y396D01*
X0Y395D02*
X7Y395D01*
X674Y395D02*
X683Y395D01*
X1107Y395D02*
X1120Y395D01*
X1322Y395D02*
X1326Y395D01*
X2449Y395D02*
X2453Y395D01*
X2682Y395D02*
X2689Y395D01*
X0Y394D02*
X7Y394D01*
X674Y394D02*
X683Y394D01*
X1108Y394D02*
X1121Y394D01*
X1322Y394D02*
X1326Y394D01*
X2448Y394D02*
X2452Y394D01*
X2682Y394D02*
X2689Y394D01*
X0Y393D02*
X7Y393D01*
X674Y393D02*
X683Y393D01*
X1109Y393D02*
X1122Y393D01*
X1322Y393D02*
X1326Y393D01*
X2448Y393D02*
X2452Y393D01*
X2682Y393D02*
X2689Y393D01*
X0Y392D02*
X7Y392D01*
X674Y392D02*
X683Y392D01*
X1110Y392D02*
X1122Y392D01*
X1322Y392D02*
X1326Y392D01*
X2448Y392D02*
X2452Y392D01*
X2682Y392D02*
X2689Y392D01*
X0Y391D02*
X7Y391D01*
X674Y391D02*
X683Y391D01*
X1111Y391D02*
X1121Y391D01*
X1323Y391D02*
X1327Y391D01*
X2448Y391D02*
X2452Y391D01*
X2682Y391D02*
X2689Y391D01*
X0Y390D02*
X7Y390D01*
X674Y390D02*
X683Y390D01*
X1112Y390D02*
X1120Y390D01*
X1323Y390D02*
X1327Y390D01*
X2447Y390D02*
X2451Y390D01*
X2682Y390D02*
X2689Y390D01*
X0Y389D02*
X7Y389D01*
X674Y389D02*
X683Y389D01*
X1113Y389D02*
X1119Y389D01*
X1323Y389D02*
X1327Y389D01*
X2447Y389D02*
X2451Y389D01*
X2682Y389D02*
X2689Y389D01*
X0Y388D02*
X7Y388D01*
X674Y388D02*
X683Y388D01*
X1114Y388D02*
X1118Y388D01*
X1323Y388D02*
X1327Y388D01*
X2447Y388D02*
X2451Y388D01*
X2682Y388D02*
X2689Y388D01*
X0Y387D02*
X7Y387D01*
X674Y387D02*
X683Y387D01*
X1115Y387D02*
X1117Y387D01*
X1323Y387D02*
X1327Y387D01*
X2447Y387D02*
X2451Y387D01*
X2682Y387D02*
X2689Y387D01*
X0Y386D02*
X7Y386D01*
X674Y386D02*
X683Y386D01*
X1116Y386D02*
X1116Y386D01*
X1324Y386D02*
X1328Y386D01*
X2447Y386D02*
X2451Y386D01*
X2682Y386D02*
X2689Y386D01*
X0Y385D02*
X7Y385D01*
X674Y385D02*
X683Y385D01*
X1324Y385D02*
X1328Y385D01*
X2446Y385D02*
X2450Y385D01*
X2682Y385D02*
X2689Y385D01*
X0Y384D02*
X7Y384D01*
X674Y384D02*
X683Y384D01*
X1324Y384D02*
X1328Y384D01*
X2446Y384D02*
X2450Y384D01*
X2682Y384D02*
X2689Y384D01*
X0Y383D02*
X7Y383D01*
X674Y383D02*
X683Y383D01*
X1324Y383D02*
X1328Y383D01*
X2446Y383D02*
X2450Y383D01*
X2682Y383D02*
X2689Y383D01*
X0Y382D02*
X7Y382D01*
X433Y382D02*
X443Y382D01*
X475Y382D02*
X478Y382D01*
X674Y382D02*
X683Y382D01*
X1324Y382D02*
X1329Y382D01*
X2446Y382D02*
X2450Y382D01*
X2682Y382D02*
X2689Y382D01*
X0Y381D02*
X7Y381D01*
X431Y381D02*
X445Y381D01*
X473Y381D02*
X479Y381D01*
X674Y381D02*
X683Y381D01*
X1325Y381D02*
X1329Y381D01*
X2445Y381D02*
X2450Y381D01*
X2682Y381D02*
X2689Y381D01*
X0Y380D02*
X7Y380D01*
X430Y380D02*
X446Y380D01*
X471Y380D02*
X479Y380D01*
X674Y380D02*
X683Y380D01*
X1325Y380D02*
X1329Y380D01*
X2445Y380D02*
X2449Y380D01*
X2682Y380D02*
X2689Y380D01*
X0Y379D02*
X7Y379D01*
X429Y379D02*
X447Y379D01*
X470Y379D02*
X479Y379D01*
X674Y379D02*
X683Y379D01*
X1325Y379D02*
X1329Y379D01*
X2445Y379D02*
X2449Y379D01*
X2682Y379D02*
X2689Y379D01*
X0Y378D02*
X7Y378D01*
X428Y378D02*
X448Y378D01*
X468Y378D02*
X479Y378D01*
X674Y378D02*
X683Y378D01*
X1325Y378D02*
X1329Y378D01*
X2445Y378D02*
X2449Y378D01*
X2682Y378D02*
X2689Y378D01*
X0Y377D02*
X7Y377D01*
X427Y377D02*
X449Y377D01*
X466Y377D02*
X478Y377D01*
X674Y377D02*
X683Y377D01*
X1326Y377D02*
X1330Y377D01*
X2444Y377D02*
X2449Y377D01*
X2682Y377D02*
X2689Y377D01*
X0Y376D02*
X7Y376D01*
X427Y376D02*
X449Y376D01*
X464Y376D02*
X477Y376D01*
X674Y376D02*
X683Y376D01*
X1326Y376D02*
X1330Y376D01*
X2444Y376D02*
X2448Y376D01*
X2682Y376D02*
X2689Y376D01*
X0Y375D02*
X7Y375D01*
X427Y375D02*
X434Y375D01*
X442Y375D02*
X449Y375D01*
X463Y375D02*
X476Y375D01*
X674Y375D02*
X683Y375D01*
X1326Y375D02*
X1330Y375D01*
X2444Y375D02*
X2448Y375D01*
X2682Y375D02*
X2689Y375D01*
X0Y374D02*
X7Y374D01*
X426Y374D02*
X433Y374D01*
X443Y374D02*
X450Y374D01*
X461Y374D02*
X474Y374D01*
X674Y374D02*
X683Y374D01*
X1326Y374D02*
X1330Y374D01*
X2444Y374D02*
X2448Y374D01*
X2682Y374D02*
X2689Y374D01*
X0Y373D02*
X7Y373D01*
X426Y373D02*
X432Y373D01*
X444Y373D02*
X450Y373D01*
X459Y373D02*
X472Y373D01*
X674Y373D02*
X683Y373D01*
X1327Y373D02*
X1331Y373D01*
X2444Y373D02*
X2448Y373D01*
X2682Y373D02*
X2689Y373D01*
X0Y372D02*
X7Y372D01*
X426Y372D02*
X432Y372D01*
X444Y372D02*
X450Y372D01*
X458Y372D02*
X471Y372D01*
X674Y372D02*
X683Y372D01*
X1327Y372D02*
X1331Y372D01*
X2443Y372D02*
X2447Y372D01*
X2682Y372D02*
X2689Y372D01*
X0Y371D02*
X7Y371D01*
X426Y371D02*
X432Y371D01*
X444Y371D02*
X450Y371D01*
X456Y371D02*
X469Y371D01*
X674Y371D02*
X683Y371D01*
X1327Y371D02*
X1331Y371D01*
X2443Y371D02*
X2447Y371D01*
X2682Y371D02*
X2689Y371D01*
X0Y370D02*
X7Y370D01*
X426Y370D02*
X432Y370D01*
X444Y370D02*
X450Y370D01*
X454Y370D02*
X467Y370D01*
X674Y370D02*
X683Y370D01*
X1327Y370D02*
X1331Y370D01*
X2443Y370D02*
X2447Y370D01*
X2682Y370D02*
X2689Y370D01*
X0Y369D02*
X7Y369D01*
X426Y369D02*
X432Y369D01*
X444Y369D02*
X450Y369D01*
X452Y369D02*
X465Y369D01*
X674Y369D02*
X683Y369D01*
X1328Y369D02*
X1332Y369D01*
X2443Y369D02*
X2447Y369D01*
X2682Y369D02*
X2689Y369D01*
X0Y368D02*
X7Y368D01*
X426Y368D02*
X432Y368D01*
X444Y368D02*
X464Y368D01*
X674Y368D02*
X683Y368D01*
X1328Y368D02*
X1332Y368D01*
X2442Y368D02*
X2446Y368D01*
X2682Y368D02*
X2689Y368D01*
X0Y367D02*
X7Y367D01*
X426Y367D02*
X432Y367D01*
X444Y367D02*
X462Y367D01*
X674Y367D02*
X683Y367D01*
X1328Y367D02*
X1332Y367D01*
X2442Y367D02*
X2446Y367D01*
X2682Y367D02*
X2689Y367D01*
X0Y366D02*
X7Y366D01*
X426Y366D02*
X432Y366D01*
X444Y366D02*
X460Y366D01*
X674Y366D02*
X683Y366D01*
X1328Y366D02*
X1332Y366D01*
X2442Y366D02*
X2446Y366D01*
X2682Y366D02*
X2689Y366D01*
X0Y365D02*
X7Y365D01*
X426Y365D02*
X432Y365D01*
X444Y365D02*
X459Y365D01*
X674Y365D02*
X683Y365D01*
X1329Y365D02*
X1333Y365D01*
X2442Y365D02*
X2446Y365D01*
X2682Y365D02*
X2689Y365D01*
X0Y364D02*
X7Y364D01*
X426Y364D02*
X432Y364D01*
X444Y364D02*
X457Y364D01*
X674Y364D02*
X683Y364D01*
X1329Y364D02*
X1333Y364D01*
X2441Y364D02*
X2445Y364D01*
X2682Y364D02*
X2689Y364D01*
X0Y363D02*
X7Y363D01*
X426Y363D02*
X432Y363D01*
X444Y363D02*
X455Y363D01*
X674Y363D02*
X683Y363D01*
X1329Y363D02*
X1333Y363D01*
X2441Y363D02*
X2445Y363D01*
X2682Y363D02*
X2689Y363D01*
X0Y362D02*
X7Y362D01*
X426Y362D02*
X432Y362D01*
X444Y362D02*
X453Y362D01*
X674Y362D02*
X683Y362D01*
X1329Y362D02*
X1334Y362D01*
X2441Y362D02*
X2445Y362D01*
X2682Y362D02*
X2689Y362D01*
X0Y361D02*
X7Y361D01*
X426Y361D02*
X432Y361D01*
X444Y361D02*
X452Y361D01*
X674Y361D02*
X683Y361D01*
X1330Y361D02*
X1334Y361D01*
X2440Y361D02*
X2445Y361D01*
X2682Y361D02*
X2689Y361D01*
X0Y360D02*
X7Y360D01*
X426Y360D02*
X432Y360D01*
X444Y360D02*
X450Y360D01*
X674Y360D02*
X683Y360D01*
X1330Y360D02*
X1334Y360D01*
X2440Y360D02*
X2444Y360D01*
X2682Y360D02*
X2689Y360D01*
X0Y359D02*
X7Y359D01*
X426Y359D02*
X432Y359D01*
X444Y359D02*
X450Y359D01*
X674Y359D02*
X683Y359D01*
X1330Y359D02*
X1334Y359D01*
X2440Y359D02*
X2444Y359D01*
X2682Y359D02*
X2689Y359D01*
X0Y358D02*
X7Y358D01*
X426Y358D02*
X432Y358D01*
X444Y358D02*
X450Y358D01*
X674Y358D02*
X683Y358D01*
X1331Y358D02*
X1335Y358D01*
X2440Y358D02*
X2444Y358D01*
X2682Y358D02*
X2689Y358D01*
X0Y357D02*
X7Y357D01*
X426Y357D02*
X432Y357D01*
X444Y357D02*
X450Y357D01*
X674Y357D02*
X683Y357D01*
X1331Y357D02*
X1335Y357D01*
X2439Y357D02*
X2443Y357D01*
X2682Y357D02*
X2689Y357D01*
X0Y356D02*
X7Y356D01*
X426Y356D02*
X432Y356D01*
X444Y356D02*
X450Y356D01*
X674Y356D02*
X683Y356D01*
X1331Y356D02*
X1335Y356D01*
X2439Y356D02*
X2443Y356D01*
X2682Y356D02*
X2689Y356D01*
X0Y355D02*
X7Y355D01*
X426Y355D02*
X476Y355D01*
X674Y355D02*
X683Y355D01*
X1331Y355D02*
X1335Y355D01*
X2439Y355D02*
X2443Y355D01*
X2682Y355D02*
X2689Y355D01*
X0Y354D02*
X7Y354D01*
X426Y354D02*
X478Y354D01*
X674Y354D02*
X683Y354D01*
X1332Y354D02*
X1336Y354D01*
X2439Y354D02*
X2443Y354D01*
X2682Y354D02*
X2689Y354D01*
X0Y353D02*
X7Y353D01*
X426Y353D02*
X479Y353D01*
X674Y353D02*
X683Y353D01*
X1332Y353D02*
X1336Y353D01*
X2438Y353D02*
X2442Y353D01*
X2682Y353D02*
X2689Y353D01*
X0Y352D02*
X7Y352D01*
X426Y352D02*
X479Y352D01*
X674Y352D02*
X683Y352D01*
X1332Y352D02*
X1336Y352D01*
X2438Y352D02*
X2442Y352D01*
X2682Y352D02*
X2689Y352D01*
X0Y351D02*
X7Y351D01*
X426Y351D02*
X479Y351D01*
X674Y351D02*
X683Y351D01*
X1332Y351D02*
X1337Y351D01*
X2438Y351D02*
X2442Y351D01*
X2682Y351D02*
X2689Y351D01*
X0Y350D02*
X7Y350D01*
X426Y350D02*
X479Y350D01*
X674Y350D02*
X683Y350D01*
X1333Y350D02*
X1337Y350D01*
X2437Y350D02*
X2441Y350D01*
X2682Y350D02*
X2689Y350D01*
X0Y349D02*
X7Y349D01*
X426Y349D02*
X478Y349D01*
X674Y349D02*
X683Y349D01*
X1333Y349D02*
X1337Y349D01*
X2437Y349D02*
X2441Y349D01*
X2682Y349D02*
X2689Y349D01*
X0Y348D02*
X7Y348D01*
X674Y348D02*
X683Y348D01*
X1333Y348D02*
X1337Y348D01*
X2437Y348D02*
X2441Y348D01*
X2682Y348D02*
X2689Y348D01*
X0Y347D02*
X7Y347D01*
X674Y347D02*
X683Y347D01*
X1334Y347D02*
X1338Y347D01*
X2436Y347D02*
X2441Y347D01*
X2682Y347D02*
X2689Y347D01*
X0Y346D02*
X7Y346D01*
X674Y346D02*
X683Y346D01*
X1334Y346D02*
X1338Y346D01*
X2436Y346D02*
X2440Y346D01*
X2682Y346D02*
X2689Y346D01*
X0Y345D02*
X7Y345D01*
X674Y345D02*
X683Y345D01*
X1334Y345D02*
X1338Y345D01*
X2436Y345D02*
X2440Y345D01*
X2682Y345D02*
X2689Y345D01*
X0Y344D02*
X7Y344D01*
X674Y344D02*
X683Y344D01*
X1335Y344D02*
X1339Y344D01*
X2436Y344D02*
X2440Y344D01*
X2682Y344D02*
X2689Y344D01*
X0Y343D02*
X7Y343D01*
X674Y343D02*
X683Y343D01*
X1335Y343D02*
X1339Y343D01*
X2435Y343D02*
X2439Y343D01*
X2682Y343D02*
X2689Y343D01*
X0Y342D02*
X7Y342D01*
X674Y342D02*
X683Y342D01*
X1335Y342D02*
X1339Y342D01*
X2435Y342D02*
X2439Y342D01*
X2682Y342D02*
X2689Y342D01*
X0Y341D02*
X7Y341D01*
X674Y341D02*
X683Y341D01*
X1335Y341D02*
X1340Y341D01*
X2435Y341D02*
X2439Y341D01*
X2682Y341D02*
X2689Y341D01*
X0Y340D02*
X7Y340D01*
X674Y340D02*
X683Y340D01*
X1336Y340D02*
X1340Y340D01*
X2434Y340D02*
X2439Y340D01*
X2682Y340D02*
X2689Y340D01*
X0Y339D02*
X7Y339D01*
X674Y339D02*
X683Y339D01*
X1336Y339D02*
X1340Y339D01*
X2434Y339D02*
X2438Y339D01*
X2682Y339D02*
X2689Y339D01*
X0Y338D02*
X7Y338D01*
X674Y338D02*
X683Y338D01*
X1336Y338D02*
X1340Y338D01*
X2434Y338D02*
X2438Y338D01*
X2682Y338D02*
X2689Y338D01*
X0Y337D02*
X7Y337D01*
X674Y337D02*
X683Y337D01*
X1337Y337D02*
X1341Y337D01*
X2433Y337D02*
X2438Y337D01*
X2682Y337D02*
X2689Y337D01*
X0Y336D02*
X7Y336D01*
X674Y336D02*
X683Y336D01*
X1337Y336D02*
X1341Y336D01*
X2433Y336D02*
X2437Y336D01*
X2682Y336D02*
X2689Y336D01*
X0Y335D02*
X7Y335D01*
X674Y335D02*
X683Y335D01*
X1337Y335D02*
X1341Y335D01*
X2433Y335D02*
X2437Y335D01*
X2682Y335D02*
X2689Y335D01*
X0Y334D02*
X7Y334D01*
X674Y334D02*
X683Y334D01*
X1338Y334D02*
X1342Y334D01*
X2432Y334D02*
X2437Y334D01*
X2682Y334D02*
X2689Y334D01*
X0Y333D02*
X7Y333D01*
X674Y333D02*
X683Y333D01*
X1338Y333D02*
X1342Y333D01*
X2432Y333D02*
X2436Y333D01*
X2682Y333D02*
X2689Y333D01*
X0Y332D02*
X7Y332D01*
X674Y332D02*
X683Y332D01*
X1338Y332D02*
X1342Y332D01*
X2432Y332D02*
X2436Y332D01*
X2682Y332D02*
X2689Y332D01*
X0Y331D02*
X7Y331D01*
X674Y331D02*
X683Y331D01*
X1339Y331D02*
X1343Y331D01*
X2431Y331D02*
X2436Y331D01*
X2682Y331D02*
X2689Y331D01*
X0Y330D02*
X7Y330D01*
X674Y330D02*
X683Y330D01*
X1339Y330D02*
X1343Y330D01*
X2431Y330D02*
X2435Y330D01*
X2682Y330D02*
X2689Y330D01*
X0Y329D02*
X7Y329D01*
X674Y329D02*
X683Y329D01*
X1339Y329D02*
X1343Y329D01*
X2431Y329D02*
X2435Y329D01*
X2682Y329D02*
X2689Y329D01*
X0Y328D02*
X7Y328D01*
X674Y328D02*
X683Y328D01*
X1340Y328D02*
X1344Y328D01*
X2431Y328D02*
X2435Y328D01*
X2682Y328D02*
X2689Y328D01*
X0Y327D02*
X7Y327D01*
X674Y327D02*
X683Y327D01*
X1340Y327D02*
X1344Y327D01*
X2430Y327D02*
X2434Y327D01*
X2682Y327D02*
X2689Y327D01*
X0Y326D02*
X7Y326D01*
X674Y326D02*
X683Y326D01*
X1340Y326D02*
X1344Y326D01*
X2430Y326D02*
X2434Y326D01*
X2682Y326D02*
X2689Y326D01*
X0Y325D02*
X7Y325D01*
X674Y325D02*
X683Y325D01*
X1341Y325D02*
X1345Y325D01*
X2430Y325D02*
X2434Y325D01*
X2682Y325D02*
X2689Y325D01*
X0Y324D02*
X7Y324D01*
X674Y324D02*
X683Y324D01*
X1341Y324D02*
X1345Y324D01*
X2429Y324D02*
X2433Y324D01*
X2682Y324D02*
X2689Y324D01*
X0Y323D02*
X7Y323D01*
X674Y323D02*
X683Y323D01*
X1341Y323D02*
X1345Y323D01*
X2429Y323D02*
X2433Y323D01*
X2682Y323D02*
X2689Y323D01*
X0Y322D02*
X7Y322D01*
X674Y322D02*
X683Y322D01*
X1342Y322D02*
X1346Y322D01*
X2428Y322D02*
X2433Y322D01*
X2682Y322D02*
X2689Y322D01*
X0Y321D02*
X7Y321D01*
X674Y321D02*
X683Y321D01*
X1342Y321D02*
X1346Y321D01*
X2428Y321D02*
X2432Y321D01*
X2682Y321D02*
X2689Y321D01*
X0Y320D02*
X7Y320D01*
X674Y320D02*
X683Y320D01*
X1342Y320D02*
X1346Y320D01*
X2428Y320D02*
X2432Y320D01*
X2682Y320D02*
X2689Y320D01*
X0Y319D02*
X7Y319D01*
X674Y319D02*
X683Y319D01*
X1343Y319D02*
X1347Y319D01*
X2427Y319D02*
X2432Y319D01*
X2682Y319D02*
X2689Y319D01*
X0Y318D02*
X7Y318D01*
X674Y318D02*
X683Y318D01*
X1343Y318D02*
X1347Y318D01*
X2427Y318D02*
X2431Y318D01*
X2682Y318D02*
X2689Y318D01*
X0Y317D02*
X7Y317D01*
X674Y317D02*
X683Y317D01*
X1343Y317D02*
X1348Y317D01*
X2427Y317D02*
X2431Y317D01*
X2682Y317D02*
X2689Y317D01*
X0Y316D02*
X7Y316D01*
X674Y316D02*
X683Y316D01*
X1344Y316D02*
X1348Y316D01*
X2426Y316D02*
X2430Y316D01*
X2682Y316D02*
X2689Y316D01*
X0Y315D02*
X7Y315D01*
X674Y315D02*
X683Y315D01*
X1344Y315D02*
X1348Y315D01*
X2426Y315D02*
X2430Y315D01*
X2682Y315D02*
X2689Y315D01*
X0Y314D02*
X7Y314D01*
X674Y314D02*
X683Y314D01*
X1344Y314D02*
X1349Y314D01*
X2426Y314D02*
X2430Y314D01*
X2682Y314D02*
X2689Y314D01*
X0Y313D02*
X7Y313D01*
X674Y313D02*
X683Y313D01*
X1345Y313D02*
X1349Y313D01*
X2425Y313D02*
X2429Y313D01*
X2682Y313D02*
X2689Y313D01*
X0Y312D02*
X7Y312D01*
X674Y312D02*
X683Y312D01*
X1345Y312D02*
X1349Y312D01*
X2425Y312D02*
X2429Y312D01*
X2682Y312D02*
X2689Y312D01*
X0Y311D02*
X7Y311D01*
X674Y311D02*
X683Y311D01*
X1346Y311D02*
X1350Y311D01*
X2425Y311D02*
X2429Y311D01*
X2682Y311D02*
X2689Y311D01*
X0Y310D02*
X7Y310D01*
X674Y310D02*
X683Y310D01*
X1346Y310D02*
X1350Y310D01*
X2424Y310D02*
X2428Y310D01*
X2682Y310D02*
X2689Y310D01*
X0Y309D02*
X7Y309D01*
X674Y309D02*
X683Y309D01*
X1346Y309D02*
X1350Y309D01*
X2424Y309D02*
X2428Y309D01*
X2682Y309D02*
X2689Y309D01*
X0Y308D02*
X7Y308D01*
X674Y308D02*
X683Y308D01*
X1347Y308D02*
X1351Y308D01*
X2423Y308D02*
X2428Y308D01*
X2682Y308D02*
X2689Y308D01*
X0Y307D02*
X7Y307D01*
X674Y307D02*
X683Y307D01*
X1347Y307D02*
X1351Y307D01*
X2423Y307D02*
X2427Y307D01*
X2682Y307D02*
X2689Y307D01*
X0Y306D02*
X7Y306D01*
X674Y306D02*
X683Y306D01*
X1347Y306D02*
X1352Y306D01*
X2423Y306D02*
X2427Y306D01*
X2682Y306D02*
X2689Y306D01*
X0Y305D02*
X7Y305D01*
X674Y305D02*
X683Y305D01*
X1348Y305D02*
X1352Y305D01*
X2422Y305D02*
X2426Y305D01*
X2682Y305D02*
X2689Y305D01*
X0Y304D02*
X7Y304D01*
X674Y304D02*
X683Y304D01*
X1348Y304D02*
X1352Y304D01*
X2422Y304D02*
X2426Y304D01*
X2682Y304D02*
X2689Y304D01*
X0Y303D02*
X7Y303D01*
X674Y303D02*
X683Y303D01*
X1349Y303D02*
X1353Y303D01*
X2421Y303D02*
X2426Y303D01*
X2682Y303D02*
X2689Y303D01*
X0Y302D02*
X7Y302D01*
X674Y302D02*
X683Y302D01*
X1349Y302D02*
X1353Y302D01*
X2421Y302D02*
X2425Y302D01*
X2682Y302D02*
X2689Y302D01*
X0Y301D02*
X7Y301D01*
X674Y301D02*
X683Y301D01*
X1349Y301D02*
X1354Y301D01*
X2421Y301D02*
X2425Y301D01*
X2682Y301D02*
X2689Y301D01*
X0Y300D02*
X7Y300D01*
X674Y300D02*
X683Y300D01*
X1350Y300D02*
X1354Y300D01*
X2420Y300D02*
X2425Y300D01*
X2682Y300D02*
X2689Y300D01*
X0Y299D02*
X7Y299D01*
X674Y299D02*
X683Y299D01*
X1350Y299D02*
X1354Y299D01*
X2420Y299D02*
X2424Y299D01*
X2682Y299D02*
X2689Y299D01*
X0Y298D02*
X7Y298D01*
X674Y298D02*
X683Y298D01*
X1351Y298D02*
X1355Y298D01*
X2420Y298D02*
X2424Y298D01*
X2682Y298D02*
X2689Y298D01*
X0Y297D02*
X7Y297D01*
X674Y297D02*
X683Y297D01*
X1351Y297D02*
X1355Y297D01*
X2419Y297D02*
X2423Y297D01*
X2682Y297D02*
X2689Y297D01*
X0Y296D02*
X7Y296D01*
X674Y296D02*
X683Y296D01*
X1351Y296D02*
X1356Y296D01*
X2419Y296D02*
X2423Y296D01*
X2682Y296D02*
X2689Y296D01*
X0Y295D02*
X7Y295D01*
X674Y295D02*
X683Y295D01*
X1352Y295D02*
X1356Y295D01*
X2418Y295D02*
X2422Y295D01*
X2682Y295D02*
X2689Y295D01*
X0Y294D02*
X7Y294D01*
X674Y294D02*
X683Y294D01*
X1352Y294D02*
X1356Y294D01*
X2418Y294D02*
X2422Y294D01*
X2682Y294D02*
X2689Y294D01*
X0Y293D02*
X7Y293D01*
X674Y293D02*
X683Y293D01*
X1353Y293D02*
X1357Y293D01*
X2417Y293D02*
X2422Y293D01*
X2682Y293D02*
X2689Y293D01*
X0Y292D02*
X7Y292D01*
X674Y292D02*
X683Y292D01*
X1353Y292D02*
X1357Y292D01*
X2417Y292D02*
X2421Y292D01*
X2682Y292D02*
X2689Y292D01*
X0Y291D02*
X7Y291D01*
X674Y291D02*
X683Y291D01*
X1353Y291D02*
X1358Y291D01*
X2417Y291D02*
X2421Y291D01*
X2682Y291D02*
X2689Y291D01*
X0Y290D02*
X7Y290D01*
X674Y290D02*
X683Y290D01*
X1354Y290D02*
X1358Y290D01*
X2416Y290D02*
X2420Y290D01*
X2682Y290D02*
X2689Y290D01*
X0Y289D02*
X7Y289D01*
X674Y289D02*
X683Y289D01*
X1354Y289D02*
X1358Y289D01*
X2416Y289D02*
X2420Y289D01*
X2682Y289D02*
X2689Y289D01*
X0Y288D02*
X7Y288D01*
X674Y288D02*
X683Y288D01*
X1355Y288D02*
X1359Y288D01*
X2415Y288D02*
X2420Y288D01*
X2682Y288D02*
X2689Y288D01*
X0Y287D02*
X7Y287D01*
X674Y287D02*
X683Y287D01*
X1355Y287D02*
X1359Y287D01*
X2415Y287D02*
X2419Y287D01*
X2682Y287D02*
X2689Y287D01*
X0Y286D02*
X7Y286D01*
X674Y286D02*
X683Y286D01*
X1355Y286D02*
X1360Y286D01*
X2415Y286D02*
X2419Y286D01*
X2682Y286D02*
X2689Y286D01*
X0Y285D02*
X7Y285D01*
X674Y285D02*
X683Y285D01*
X1356Y285D02*
X1360Y285D01*
X2414Y285D02*
X2418Y285D01*
X2682Y285D02*
X2689Y285D01*
X0Y284D02*
X7Y284D01*
X674Y284D02*
X683Y284D01*
X1356Y284D02*
X1361Y284D01*
X2414Y284D02*
X2418Y284D01*
X2682Y284D02*
X2689Y284D01*
X0Y283D02*
X7Y283D01*
X258Y283D02*
X282Y283D01*
X311Y283D02*
X339Y283D01*
X359Y283D02*
X389Y283D01*
X412Y283D02*
X442Y283D01*
X475Y283D02*
X476Y283D01*
X674Y283D02*
X683Y283D01*
X1357Y283D02*
X1361Y283D01*
X2413Y283D02*
X2418Y283D01*
X2682Y283D02*
X2689Y283D01*
X0Y282D02*
X7Y282D01*
X258Y282D02*
X286Y282D01*
X309Y282D02*
X341Y282D01*
X358Y282D02*
X391Y282D01*
X410Y282D02*
X442Y282D01*
X472Y282D02*
X479Y282D01*
X674Y282D02*
X683Y282D01*
X1357Y282D02*
X1361Y282D01*
X2413Y282D02*
X2417Y282D01*
X2682Y282D02*
X2689Y282D01*
X0Y281D02*
X7Y281D01*
X258Y281D02*
X287Y281D01*
X309Y281D02*
X341Y281D01*
X358Y281D02*
X392Y281D01*
X409Y281D02*
X442Y281D01*
X470Y281D02*
X481Y281D01*
X674Y281D02*
X683Y281D01*
X1358Y281D02*
X1362Y281D01*
X2412Y281D02*
X2417Y281D01*
X2682Y281D02*
X2689Y281D01*
X0Y280D02*
X7Y280D01*
X258Y280D02*
X288Y280D01*
X308Y280D02*
X342Y280D01*
X358Y280D02*
X392Y280D01*
X409Y280D02*
X442Y280D01*
X469Y280D02*
X482Y280D01*
X674Y280D02*
X683Y280D01*
X1358Y280D02*
X1362Y280D01*
X2412Y280D02*
X2416Y280D01*
X2682Y280D02*
X2689Y280D01*
X0Y279D02*
X7Y279D01*
X258Y279D02*
X289Y279D01*
X308Y279D02*
X342Y279D01*
X358Y279D02*
X392Y279D01*
X409Y279D02*
X442Y279D01*
X469Y279D02*
X483Y279D01*
X534Y279D02*
X543Y279D01*
X674Y279D02*
X683Y279D01*
X1358Y279D02*
X1363Y279D01*
X2412Y279D02*
X2416Y279D01*
X2682Y279D02*
X2689Y279D01*
X0Y278D02*
X7Y278D01*
X258Y278D02*
X290Y278D01*
X309Y278D02*
X341Y278D01*
X358Y278D02*
X392Y278D01*
X409Y278D02*
X442Y278D01*
X468Y278D02*
X483Y278D01*
X534Y278D02*
X543Y278D01*
X674Y278D02*
X683Y278D01*
X1359Y278D02*
X1363Y278D01*
X2411Y278D02*
X2415Y278D01*
X2682Y278D02*
X2689Y278D01*
X0Y277D02*
X7Y277D01*
X258Y277D02*
X291Y277D01*
X309Y277D02*
X340Y277D01*
X358Y277D02*
X391Y277D01*
X410Y277D02*
X441Y277D01*
X467Y277D02*
X484Y277D01*
X534Y277D02*
X543Y277D01*
X674Y277D02*
X683Y277D01*
X1359Y277D02*
X1364Y277D01*
X2411Y277D02*
X2415Y277D01*
X2682Y277D02*
X2689Y277D01*
X0Y276D02*
X7Y276D01*
X258Y276D02*
X264Y276D01*
X282Y276D02*
X291Y276D01*
X322Y276D02*
X328Y276D01*
X358Y276D02*
X365Y276D01*
X433Y276D02*
X441Y276D01*
X467Y276D02*
X484Y276D01*
X534Y276D02*
X543Y276D01*
X674Y276D02*
X683Y276D01*
X1360Y276D02*
X1364Y276D01*
X2410Y276D02*
X2414Y276D01*
X2682Y276D02*
X2689Y276D01*
X0Y275D02*
X7Y275D01*
X258Y275D02*
X264Y275D01*
X284Y275D02*
X291Y275D01*
X322Y275D02*
X328Y275D01*
X358Y275D02*
X364Y275D01*
X433Y275D02*
X440Y275D01*
X466Y275D02*
X473Y275D01*
X478Y275D02*
X485Y275D01*
X534Y275D02*
X543Y275D01*
X674Y275D02*
X683Y275D01*
X1360Y275D02*
X1364Y275D01*
X2410Y275D02*
X2414Y275D01*
X2682Y275D02*
X2689Y275D01*
X0Y274D02*
X7Y274D01*
X258Y274D02*
X264Y274D01*
X285Y274D02*
X291Y274D01*
X322Y274D02*
X328Y274D01*
X358Y274D02*
X364Y274D01*
X432Y274D02*
X439Y274D01*
X466Y274D02*
X473Y274D01*
X478Y274D02*
X485Y274D01*
X534Y274D02*
X543Y274D01*
X674Y274D02*
X683Y274D01*
X1361Y274D02*
X1365Y274D01*
X2409Y274D02*
X2414Y274D01*
X2682Y274D02*
X2689Y274D01*
X0Y273D02*
X7Y273D01*
X258Y273D02*
X264Y273D01*
X285Y273D02*
X292Y273D01*
X322Y273D02*
X328Y273D01*
X358Y273D02*
X364Y273D01*
X432Y273D02*
X439Y273D01*
X465Y273D02*
X472Y273D01*
X479Y273D02*
X486Y273D01*
X534Y273D02*
X543Y273D01*
X674Y273D02*
X683Y273D01*
X1361Y273D02*
X1365Y273D01*
X2409Y273D02*
X2413Y273D01*
X2682Y273D02*
X2689Y273D01*
X0Y272D02*
X7Y272D01*
X258Y272D02*
X264Y272D01*
X286Y272D02*
X292Y272D01*
X322Y272D02*
X328Y272D01*
X358Y272D02*
X364Y272D01*
X431Y272D02*
X438Y272D01*
X465Y272D02*
X472Y272D01*
X479Y272D02*
X486Y272D01*
X534Y272D02*
X543Y272D01*
X674Y272D02*
X683Y272D01*
X1362Y272D02*
X1366Y272D01*
X2408Y272D02*
X2413Y272D01*
X2682Y272D02*
X2689Y272D01*
X0Y271D02*
X7Y271D01*
X258Y271D02*
X264Y271D01*
X286Y271D02*
X292Y271D01*
X322Y271D02*
X328Y271D01*
X358Y271D02*
X364Y271D01*
X431Y271D02*
X438Y271D01*
X464Y271D02*
X471Y271D01*
X480Y271D02*
X487Y271D01*
X534Y271D02*
X543Y271D01*
X674Y271D02*
X683Y271D01*
X1362Y271D02*
X1366Y271D01*
X2408Y271D02*
X2412Y271D01*
X2682Y271D02*
X2689Y271D01*
X0Y270D02*
X7Y270D01*
X258Y270D02*
X264Y270D01*
X286Y270D02*
X292Y270D01*
X322Y270D02*
X328Y270D01*
X358Y270D02*
X364Y270D01*
X430Y270D02*
X437Y270D01*
X464Y270D02*
X471Y270D01*
X480Y270D02*
X487Y270D01*
X534Y270D02*
X543Y270D01*
X674Y270D02*
X683Y270D01*
X1362Y270D02*
X1367Y270D01*
X2407Y270D02*
X2412Y270D01*
X2682Y270D02*
X2689Y270D01*
X0Y269D02*
X7Y269D01*
X258Y269D02*
X264Y269D01*
X286Y269D02*
X292Y269D01*
X322Y269D02*
X328Y269D01*
X358Y269D02*
X364Y269D01*
X429Y269D02*
X437Y269D01*
X463Y269D02*
X470Y269D01*
X481Y269D02*
X488Y269D01*
X534Y269D02*
X543Y269D01*
X674Y269D02*
X683Y269D01*
X1363Y269D02*
X1367Y269D01*
X2407Y269D02*
X2411Y269D01*
X2682Y269D02*
X2689Y269D01*
X0Y268D02*
X7Y268D01*
X258Y268D02*
X264Y268D01*
X286Y268D02*
X292Y268D01*
X322Y268D02*
X328Y268D01*
X358Y268D02*
X364Y268D01*
X429Y268D02*
X436Y268D01*
X463Y268D02*
X470Y268D01*
X481Y268D02*
X488Y268D01*
X534Y268D02*
X543Y268D01*
X674Y268D02*
X683Y268D01*
X1363Y268D02*
X1368Y268D01*
X2407Y268D02*
X2411Y268D01*
X2682Y268D02*
X2689Y268D01*
X0Y267D02*
X7Y267D01*
X258Y267D02*
X264Y267D01*
X286Y267D02*
X292Y267D01*
X322Y267D02*
X328Y267D01*
X358Y267D02*
X364Y267D01*
X428Y267D02*
X435Y267D01*
X462Y267D02*
X469Y267D01*
X482Y267D02*
X489Y267D01*
X534Y267D02*
X543Y267D01*
X674Y267D02*
X683Y267D01*
X1364Y267D02*
X1368Y267D01*
X2406Y267D02*
X2410Y267D01*
X2682Y267D02*
X2689Y267D01*
X0Y266D02*
X7Y266D01*
X258Y266D02*
X264Y266D01*
X286Y266D02*
X292Y266D01*
X322Y266D02*
X328Y266D01*
X358Y266D02*
X364Y266D01*
X428Y266D02*
X435Y266D01*
X462Y266D02*
X469Y266D01*
X482Y266D02*
X489Y266D01*
X534Y266D02*
X543Y266D01*
X674Y266D02*
X683Y266D01*
X1364Y266D02*
X1369Y266D01*
X2406Y266D02*
X2410Y266D01*
X2682Y266D02*
X2689Y266D01*
X0Y265D02*
X7Y265D01*
X258Y265D02*
X264Y265D01*
X286Y265D02*
X292Y265D01*
X322Y265D02*
X328Y265D01*
X358Y265D02*
X364Y265D01*
X427Y265D02*
X434Y265D01*
X461Y265D02*
X468Y265D01*
X483Y265D02*
X490Y265D01*
X534Y265D02*
X543Y265D01*
X674Y265D02*
X683Y265D01*
X1365Y265D02*
X1369Y265D01*
X2405Y265D02*
X2409Y265D01*
X2682Y265D02*
X2689Y265D01*
X0Y264D02*
X7Y264D01*
X258Y264D02*
X264Y264D01*
X286Y264D02*
X292Y264D01*
X322Y264D02*
X328Y264D01*
X358Y264D02*
X364Y264D01*
X426Y264D02*
X434Y264D01*
X461Y264D02*
X468Y264D01*
X483Y264D02*
X490Y264D01*
X534Y264D02*
X543Y264D01*
X674Y264D02*
X683Y264D01*
X1365Y264D02*
X1370Y264D01*
X2405Y264D02*
X2409Y264D01*
X2682Y264D02*
X2689Y264D01*
X0Y263D02*
X7Y263D01*
X258Y263D02*
X264Y263D01*
X286Y263D02*
X292Y263D01*
X322Y263D02*
X328Y263D01*
X358Y263D02*
X364Y263D01*
X426Y263D02*
X433Y263D01*
X460Y263D02*
X467Y263D01*
X484Y263D02*
X491Y263D01*
X534Y263D02*
X543Y263D01*
X674Y263D02*
X683Y263D01*
X1366Y263D02*
X1370Y263D01*
X2404Y263D02*
X2408Y263D01*
X2682Y263D02*
X2689Y263D01*
X0Y262D02*
X7Y262D01*
X258Y262D02*
X264Y262D01*
X286Y262D02*
X292Y262D01*
X322Y262D02*
X328Y262D01*
X358Y262D02*
X364Y262D01*
X425Y262D02*
X432Y262D01*
X460Y262D02*
X467Y262D01*
X484Y262D02*
X491Y262D01*
X534Y262D02*
X543Y262D01*
X674Y262D02*
X683Y262D01*
X1366Y262D02*
X1371Y262D01*
X2404Y262D02*
X2408Y262D01*
X2682Y262D02*
X2689Y262D01*
X0Y261D02*
X7Y261D01*
X258Y261D02*
X264Y261D01*
X286Y261D02*
X292Y261D01*
X322Y261D02*
X328Y261D01*
X358Y261D02*
X364Y261D01*
X425Y261D02*
X432Y261D01*
X460Y261D02*
X466Y261D01*
X485Y261D02*
X491Y261D01*
X534Y261D02*
X543Y261D01*
X674Y261D02*
X683Y261D01*
X1367Y261D02*
X1371Y261D01*
X2403Y261D02*
X2408Y261D01*
X2682Y261D02*
X2689Y261D01*
X0Y260D02*
X7Y260D01*
X258Y260D02*
X264Y260D01*
X286Y260D02*
X292Y260D01*
X322Y260D02*
X328Y260D01*
X358Y260D02*
X364Y260D01*
X424Y260D02*
X431Y260D01*
X459Y260D02*
X466Y260D01*
X485Y260D02*
X492Y260D01*
X534Y260D02*
X543Y260D01*
X634Y260D02*
X643Y260D01*
X674Y260D02*
X683Y260D01*
X1367Y260D02*
X1371Y260D01*
X2403Y260D02*
X2407Y260D01*
X2682Y260D02*
X2689Y260D01*
X0Y259D02*
X7Y259D01*
X258Y259D02*
X264Y259D01*
X285Y259D02*
X291Y259D01*
X322Y259D02*
X328Y259D01*
X358Y259D02*
X376Y259D01*
X424Y259D02*
X431Y259D01*
X459Y259D02*
X465Y259D01*
X486Y259D02*
X492Y259D01*
X534Y259D02*
X543Y259D01*
X634Y259D02*
X643Y259D01*
X674Y259D02*
X683Y259D01*
X1368Y259D02*
X1372Y259D01*
X2402Y259D02*
X2407Y259D01*
X2682Y259D02*
X2689Y259D01*
X0Y258D02*
X7Y258D01*
X258Y258D02*
X264Y258D01*
X285Y258D02*
X291Y258D01*
X322Y258D02*
X328Y258D01*
X358Y258D02*
X377Y258D01*
X423Y258D02*
X430Y258D01*
X459Y258D02*
X465Y258D01*
X486Y258D02*
X492Y258D01*
X534Y258D02*
X543Y258D01*
X634Y258D02*
X643Y258D01*
X674Y258D02*
X683Y258D01*
X1368Y258D02*
X1372Y258D01*
X2402Y258D02*
X2406Y258D01*
X2682Y258D02*
X2689Y258D01*
X0Y257D02*
X7Y257D01*
X258Y257D02*
X264Y257D01*
X284Y257D02*
X291Y257D01*
X322Y257D02*
X328Y257D01*
X358Y257D02*
X378Y257D01*
X422Y257D02*
X429Y257D01*
X459Y257D02*
X465Y257D01*
X486Y257D02*
X492Y257D01*
X534Y257D02*
X543Y257D01*
X634Y257D02*
X643Y257D01*
X674Y257D02*
X683Y257D01*
X1369Y257D02*
X1373Y257D01*
X2401Y257D02*
X2406Y257D01*
X2682Y257D02*
X2689Y257D01*
X0Y256D02*
X7Y256D01*
X258Y256D02*
X291Y256D01*
X322Y256D02*
X328Y256D01*
X358Y256D02*
X378Y256D01*
X422Y256D02*
X429Y256D01*
X459Y256D02*
X465Y256D01*
X486Y256D02*
X492Y256D01*
X534Y256D02*
X543Y256D01*
X634Y256D02*
X643Y256D01*
X674Y256D02*
X683Y256D01*
X1369Y256D02*
X1373Y256D01*
X2401Y256D02*
X2405Y256D01*
X2682Y256D02*
X2689Y256D01*
X0Y255D02*
X7Y255D01*
X258Y255D02*
X290Y255D01*
X322Y255D02*
X328Y255D01*
X358Y255D02*
X378Y255D01*
X421Y255D02*
X428Y255D01*
X459Y255D02*
X465Y255D01*
X486Y255D02*
X492Y255D01*
X534Y255D02*
X543Y255D01*
X634Y255D02*
X643Y255D01*
X674Y255D02*
X683Y255D01*
X1370Y255D02*
X1374Y255D01*
X2400Y255D02*
X2405Y255D01*
X2682Y255D02*
X2689Y255D01*
X0Y254D02*
X7Y254D01*
X258Y254D02*
X290Y254D01*
X322Y254D02*
X328Y254D01*
X358Y254D02*
X377Y254D01*
X421Y254D02*
X428Y254D01*
X459Y254D02*
X465Y254D01*
X486Y254D02*
X492Y254D01*
X534Y254D02*
X543Y254D01*
X634Y254D02*
X643Y254D01*
X674Y254D02*
X683Y254D01*
X1370Y254D02*
X1374Y254D01*
X2400Y254D02*
X2404Y254D01*
X2682Y254D02*
X2689Y254D01*
X0Y253D02*
X7Y253D01*
X258Y253D02*
X289Y253D01*
X322Y253D02*
X328Y253D01*
X358Y253D02*
X376Y253D01*
X420Y253D02*
X427Y253D01*
X459Y253D02*
X465Y253D01*
X486Y253D02*
X492Y253D01*
X534Y253D02*
X543Y253D01*
X634Y253D02*
X643Y253D01*
X674Y253D02*
X683Y253D01*
X1371Y253D02*
X1375Y253D01*
X2399Y253D02*
X2404Y253D01*
X2682Y253D02*
X2689Y253D01*
X0Y252D02*
X7Y252D01*
X258Y252D02*
X288Y252D01*
X322Y252D02*
X328Y252D01*
X358Y252D02*
X364Y252D01*
X419Y252D02*
X427Y252D01*
X459Y252D02*
X466Y252D01*
X485Y252D02*
X492Y252D01*
X534Y252D02*
X543Y252D01*
X634Y252D02*
X643Y252D01*
X674Y252D02*
X683Y252D01*
X1371Y252D02*
X1375Y252D01*
X2399Y252D02*
X2403Y252D01*
X2682Y252D02*
X2689Y252D01*
X0Y251D02*
X7Y251D01*
X258Y251D02*
X286Y251D01*
X322Y251D02*
X328Y251D01*
X358Y251D02*
X364Y251D01*
X419Y251D02*
X426Y251D01*
X460Y251D02*
X466Y251D01*
X485Y251D02*
X491Y251D01*
X534Y251D02*
X543Y251D01*
X634Y251D02*
X643Y251D01*
X674Y251D02*
X683Y251D01*
X1264Y251D02*
X1264Y251D01*
X1372Y251D02*
X1376Y251D01*
X2398Y251D02*
X2403Y251D01*
X2682Y251D02*
X2689Y251D01*
X0Y250D02*
X7Y250D01*
X258Y250D02*
X284Y250D01*
X322Y250D02*
X328Y250D01*
X358Y250D02*
X364Y250D01*
X418Y250D02*
X425Y250D01*
X460Y250D02*
X467Y250D01*
X484Y250D02*
X491Y250D01*
X534Y250D02*
X543Y250D01*
X634Y250D02*
X643Y250D01*
X674Y250D02*
X683Y250D01*
X1263Y250D02*
X1265Y250D01*
X1372Y250D02*
X1376Y250D01*
X2398Y250D02*
X2402Y250D01*
X2682Y250D02*
X2689Y250D01*
X0Y249D02*
X7Y249D01*
X258Y249D02*
X264Y249D01*
X322Y249D02*
X328Y249D01*
X358Y249D02*
X364Y249D01*
X418Y249D02*
X425Y249D01*
X460Y249D02*
X467Y249D01*
X484Y249D02*
X491Y249D01*
X534Y249D02*
X543Y249D01*
X634Y249D02*
X643Y249D01*
X674Y249D02*
X683Y249D01*
X1262Y249D02*
X1266Y249D01*
X1373Y249D02*
X1377Y249D01*
X2397Y249D02*
X2402Y249D01*
X2682Y249D02*
X2689Y249D01*
X0Y248D02*
X7Y248D01*
X258Y248D02*
X264Y248D01*
X322Y248D02*
X328Y248D01*
X358Y248D02*
X364Y248D01*
X417Y248D02*
X424Y248D01*
X461Y248D02*
X468Y248D01*
X483Y248D02*
X490Y248D01*
X534Y248D02*
X543Y248D01*
X634Y248D02*
X643Y248D01*
X674Y248D02*
X683Y248D01*
X1261Y248D02*
X1267Y248D01*
X1373Y248D02*
X1378Y248D01*
X2397Y248D02*
X2401Y248D01*
X2682Y248D02*
X2689Y248D01*
X0Y247D02*
X7Y247D01*
X258Y247D02*
X264Y247D01*
X322Y247D02*
X328Y247D01*
X358Y247D02*
X364Y247D01*
X416Y247D02*
X424Y247D01*
X461Y247D02*
X468Y247D01*
X483Y247D02*
X490Y247D01*
X534Y247D02*
X543Y247D01*
X634Y247D02*
X643Y247D01*
X674Y247D02*
X683Y247D01*
X1260Y247D02*
X1268Y247D01*
X1374Y247D02*
X1378Y247D01*
X2396Y247D02*
X2401Y247D01*
X2682Y247D02*
X2689Y247D01*
X0Y246D02*
X7Y246D01*
X258Y246D02*
X264Y246D01*
X322Y246D02*
X328Y246D01*
X358Y246D02*
X364Y246D01*
X416Y246D02*
X423Y246D01*
X462Y246D02*
X469Y246D01*
X482Y246D02*
X489Y246D01*
X534Y246D02*
X543Y246D01*
X634Y246D02*
X643Y246D01*
X674Y246D02*
X683Y246D01*
X1259Y246D02*
X1269Y246D01*
X1374Y246D02*
X1379Y246D01*
X2396Y246D02*
X2400Y246D01*
X2682Y246D02*
X2689Y246D01*
X0Y245D02*
X7Y245D01*
X258Y245D02*
X264Y245D01*
X322Y245D02*
X328Y245D01*
X358Y245D02*
X364Y245D01*
X415Y245D02*
X422Y245D01*
X462Y245D02*
X469Y245D01*
X482Y245D02*
X489Y245D01*
X534Y245D02*
X543Y245D01*
X634Y245D02*
X643Y245D01*
X674Y245D02*
X683Y245D01*
X1258Y245D02*
X1270Y245D01*
X1375Y245D02*
X1379Y245D01*
X2395Y245D02*
X2400Y245D01*
X2682Y245D02*
X2689Y245D01*
X0Y244D02*
X7Y244D01*
X258Y244D02*
X264Y244D01*
X322Y244D02*
X328Y244D01*
X358Y244D02*
X364Y244D01*
X415Y244D02*
X422Y244D01*
X463Y244D02*
X470Y244D01*
X481Y244D02*
X488Y244D01*
X534Y244D02*
X543Y244D01*
X634Y244D02*
X643Y244D01*
X674Y244D02*
X683Y244D01*
X1258Y244D02*
X1271Y244D01*
X1375Y244D02*
X1380Y244D01*
X2395Y244D02*
X2399Y244D01*
X2682Y244D02*
X2689Y244D01*
X0Y243D02*
X7Y243D01*
X258Y243D02*
X264Y243D01*
X322Y243D02*
X328Y243D01*
X358Y243D02*
X364Y243D01*
X414Y243D02*
X421Y243D01*
X463Y243D02*
X470Y243D01*
X481Y243D02*
X488Y243D01*
X534Y243D02*
X543Y243D01*
X634Y243D02*
X643Y243D01*
X674Y243D02*
X683Y243D01*
X1259Y243D02*
X1272Y243D01*
X1376Y243D02*
X1380Y243D01*
X2394Y243D02*
X2398Y243D01*
X2682Y243D02*
X2689Y243D01*
X0Y242D02*
X7Y242D01*
X258Y242D02*
X264Y242D01*
X322Y242D02*
X328Y242D01*
X358Y242D02*
X364Y242D01*
X414Y242D02*
X421Y242D01*
X464Y242D02*
X471Y242D01*
X480Y242D02*
X487Y242D01*
X534Y242D02*
X543Y242D01*
X634Y242D02*
X643Y242D01*
X674Y242D02*
X683Y242D01*
X1260Y242D02*
X1273Y242D01*
X1376Y242D02*
X1381Y242D01*
X2394Y242D02*
X2398Y242D01*
X2682Y242D02*
X2689Y242D01*
X0Y241D02*
X7Y241D01*
X258Y241D02*
X264Y241D01*
X322Y241D02*
X328Y241D01*
X358Y241D02*
X364Y241D01*
X413Y241D02*
X420Y241D01*
X464Y241D02*
X471Y241D01*
X480Y241D02*
X487Y241D01*
X534Y241D02*
X543Y241D01*
X634Y241D02*
X643Y241D01*
X674Y241D02*
X683Y241D01*
X1261Y241D02*
X1274Y241D01*
X1377Y241D02*
X1381Y241D01*
X2393Y241D02*
X2397Y241D01*
X2682Y241D02*
X2689Y241D01*
X0Y240D02*
X7Y240D01*
X258Y240D02*
X264Y240D01*
X322Y240D02*
X328Y240D01*
X358Y240D02*
X364Y240D01*
X412Y240D02*
X420Y240D01*
X465Y240D02*
X472Y240D01*
X479Y240D02*
X486Y240D01*
X534Y240D02*
X543Y240D01*
X634Y240D02*
X643Y240D01*
X674Y240D02*
X683Y240D01*
X1262Y240D02*
X1275Y240D01*
X1377Y240D02*
X1382Y240D01*
X2393Y240D02*
X2397Y240D01*
X2682Y240D02*
X2689Y240D01*
X0Y239D02*
X7Y239D01*
X258Y239D02*
X264Y239D01*
X322Y239D02*
X328Y239D01*
X358Y239D02*
X364Y239D01*
X412Y239D02*
X419Y239D01*
X465Y239D02*
X472Y239D01*
X479Y239D02*
X486Y239D01*
X534Y239D02*
X543Y239D01*
X634Y239D02*
X643Y239D01*
X674Y239D02*
X683Y239D01*
X1263Y239D02*
X1276Y239D01*
X1378Y239D02*
X1382Y239D01*
X2392Y239D02*
X2396Y239D01*
X2682Y239D02*
X2689Y239D01*
X0Y238D02*
X7Y238D01*
X258Y238D02*
X264Y238D01*
X322Y238D02*
X328Y238D01*
X358Y238D02*
X364Y238D01*
X411Y238D02*
X418Y238D01*
X466Y238D02*
X473Y238D01*
X478Y238D02*
X485Y238D01*
X534Y238D02*
X543Y238D01*
X634Y238D02*
X643Y238D01*
X674Y238D02*
X683Y238D01*
X1264Y238D02*
X1277Y238D01*
X1378Y238D02*
X1383Y238D01*
X2391Y238D02*
X2396Y238D01*
X2682Y238D02*
X2689Y238D01*
X0Y237D02*
X7Y237D01*
X258Y237D02*
X264Y237D01*
X322Y237D02*
X328Y237D01*
X358Y237D02*
X364Y237D01*
X411Y237D02*
X418Y237D01*
X466Y237D02*
X473Y237D01*
X478Y237D02*
X485Y237D01*
X534Y237D02*
X543Y237D01*
X634Y237D02*
X643Y237D01*
X674Y237D02*
X683Y237D01*
X1265Y237D02*
X1278Y237D01*
X1379Y237D02*
X1383Y237D01*
X1967Y237D02*
X1984Y237D01*
X2010Y237D02*
X2033Y237D01*
X2063Y237D02*
X2079Y237D01*
X2391Y237D02*
X2395Y237D01*
X2682Y237D02*
X2689Y237D01*
X0Y236D02*
X7Y236D01*
X258Y236D02*
X264Y236D01*
X321Y236D02*
X328Y236D01*
X358Y236D02*
X365Y236D01*
X410Y236D02*
X418Y236D01*
X467Y236D02*
X484Y236D01*
X534Y236D02*
X543Y236D01*
X634Y236D02*
X643Y236D01*
X674Y236D02*
X683Y236D01*
X1266Y236D02*
X1279Y236D01*
X1379Y236D02*
X1384Y236D01*
X1964Y236D02*
X1988Y236D01*
X2010Y236D02*
X2037Y236D01*
X2061Y236D02*
X2080Y236D01*
X2390Y236D02*
X2395Y236D01*
X2682Y236D02*
X2689Y236D01*
X0Y235D02*
X7Y235D01*
X258Y235D02*
X264Y235D01*
X309Y235D02*
X341Y235D01*
X358Y235D02*
X391Y235D01*
X409Y235D02*
X441Y235D01*
X467Y235D02*
X484Y235D01*
X534Y235D02*
X543Y235D01*
X634Y235D02*
X643Y235D01*
X674Y235D02*
X683Y235D01*
X1267Y235D02*
X1280Y235D01*
X1380Y235D02*
X1384Y235D01*
X1962Y235D02*
X1990Y235D01*
X2010Y235D02*
X2039Y235D01*
X2060Y235D02*
X2080Y235D01*
X2390Y235D02*
X2394Y235D01*
X2682Y235D02*
X2689Y235D01*
X0Y234D02*
X7Y234D01*
X258Y234D02*
X264Y234D01*
X309Y234D02*
X341Y234D01*
X358Y234D02*
X392Y234D01*
X409Y234D02*
X442Y234D01*
X468Y234D02*
X483Y234D01*
X534Y234D02*
X543Y234D01*
X634Y234D02*
X643Y234D01*
X674Y234D02*
X683Y234D01*
X1268Y234D02*
X1281Y234D01*
X1381Y234D02*
X1385Y234D01*
X1961Y234D02*
X1991Y234D01*
X2010Y234D02*
X2040Y234D01*
X2060Y234D02*
X2080Y234D01*
X2389Y234D02*
X2394Y234D01*
X2682Y234D02*
X2689Y234D01*
X0Y233D02*
X7Y233D01*
X258Y233D02*
X264Y233D01*
X308Y233D02*
X342Y233D01*
X358Y233D02*
X392Y233D01*
X409Y233D02*
X442Y233D01*
X469Y233D02*
X483Y233D01*
X534Y233D02*
X543Y233D01*
X634Y233D02*
X643Y233D01*
X674Y233D02*
X683Y233D01*
X1269Y233D02*
X1282Y233D01*
X1381Y233D02*
X1386Y233D01*
X1961Y233D02*
X1992Y233D01*
X2010Y233D02*
X2041Y233D01*
X2060Y233D02*
X2080Y233D01*
X2389Y233D02*
X2393Y233D01*
X2682Y233D02*
X2689Y233D01*
X0Y232D02*
X7Y232D01*
X258Y232D02*
X264Y232D01*
X308Y232D02*
X342Y232D01*
X358Y232D02*
X392Y232D01*
X409Y232D02*
X442Y232D01*
X469Y232D02*
X482Y232D01*
X534Y232D02*
X543Y232D01*
X634Y232D02*
X643Y232D01*
X674Y232D02*
X683Y232D01*
X1270Y232D02*
X1283Y232D01*
X1382Y232D02*
X1386Y232D01*
X1960Y232D02*
X1992Y232D01*
X2010Y232D02*
X2042Y232D01*
X2061Y232D02*
X2080Y232D01*
X2388Y232D02*
X2393Y232D01*
X2682Y232D02*
X2689Y232D01*
X0Y231D02*
X7Y231D01*
X258Y231D02*
X264Y231D01*
X309Y231D02*
X341Y231D01*
X358Y231D02*
X392Y231D01*
X409Y231D02*
X442Y231D01*
X470Y231D02*
X481Y231D01*
X534Y231D02*
X543Y231D01*
X634Y231D02*
X643Y231D01*
X674Y231D02*
X683Y231D01*
X1271Y231D02*
X1284Y231D01*
X1382Y231D02*
X1387Y231D01*
X1960Y231D02*
X1993Y231D01*
X2010Y231D02*
X2042Y231D01*
X2061Y231D02*
X2080Y231D01*
X2388Y231D02*
X2392Y231D01*
X2682Y231D02*
X2689Y231D01*
X0Y230D02*
X7Y230D01*
X259Y230D02*
X263Y230D01*
X309Y230D02*
X341Y230D01*
X358Y230D02*
X391Y230D01*
X409Y230D02*
X441Y230D01*
X472Y230D02*
X479Y230D01*
X534Y230D02*
X543Y230D01*
X634Y230D02*
X643Y230D01*
X674Y230D02*
X683Y230D01*
X1272Y230D02*
X1285Y230D01*
X1383Y230D02*
X1387Y230D01*
X1960Y230D02*
X1967Y230D01*
X1985Y230D02*
X1993Y230D01*
X2010Y230D02*
X2016Y230D01*
X2034Y230D02*
X2043Y230D01*
X2073Y230D02*
X2080Y230D01*
X2387Y230D02*
X2391Y230D01*
X2682Y230D02*
X2689Y230D01*
X0Y229D02*
X7Y229D01*
X312Y229D02*
X338Y229D01*
X359Y229D02*
X389Y229D01*
X409Y229D02*
X439Y229D01*
X534Y229D02*
X543Y229D01*
X634Y229D02*
X643Y229D01*
X674Y229D02*
X683Y229D01*
X1273Y229D02*
X1286Y229D01*
X1383Y229D02*
X1388Y229D01*
X1960Y229D02*
X1966Y229D01*
X1987Y229D02*
X1993Y229D01*
X2010Y229D02*
X2016Y229D01*
X2036Y229D02*
X2043Y229D01*
X2074Y229D02*
X2080Y229D01*
X2386Y229D02*
X2391Y229D01*
X2682Y229D02*
X2689Y229D01*
X0Y228D02*
X7Y228D01*
X534Y228D02*
X543Y228D01*
X634Y228D02*
X643Y228D01*
X674Y228D02*
X683Y228D01*
X1274Y228D02*
X1287Y228D01*
X1384Y228D02*
X1388Y228D01*
X1960Y228D02*
X1966Y228D01*
X1987Y228D02*
X1993Y228D01*
X2010Y228D02*
X2016Y228D01*
X2037Y228D02*
X2043Y228D01*
X2074Y228D02*
X2080Y228D01*
X2386Y228D02*
X2390Y228D01*
X2682Y228D02*
X2689Y228D01*
X0Y227D02*
X7Y227D01*
X534Y227D02*
X543Y227D01*
X634Y227D02*
X643Y227D01*
X674Y227D02*
X683Y227D01*
X1275Y227D02*
X1288Y227D01*
X1384Y227D02*
X1389Y227D01*
X1960Y227D02*
X1967Y227D01*
X1987Y227D02*
X1993Y227D01*
X2010Y227D02*
X2016Y227D01*
X2037Y227D02*
X2043Y227D01*
X2074Y227D02*
X2080Y227D01*
X2385Y227D02*
X2390Y227D01*
X2682Y227D02*
X2689Y227D01*
X0Y226D02*
X7Y226D01*
X534Y226D02*
X543Y226D01*
X634Y226D02*
X643Y226D01*
X674Y226D02*
X683Y226D01*
X1276Y226D02*
X1289Y226D01*
X1385Y226D02*
X1389Y226D01*
X1960Y226D02*
X1968Y226D01*
X1988Y226D02*
X1993Y226D01*
X2010Y226D02*
X2016Y226D01*
X2037Y226D02*
X2044Y226D01*
X2074Y226D02*
X2080Y226D01*
X2385Y226D02*
X2389Y226D01*
X2682Y226D02*
X2689Y226D01*
X0Y225D02*
X7Y225D01*
X534Y225D02*
X543Y225D01*
X634Y225D02*
X643Y225D01*
X674Y225D02*
X683Y225D01*
X1277Y225D02*
X1290Y225D01*
X1386Y225D02*
X1390Y225D01*
X1961Y225D02*
X1969Y225D01*
X1989Y225D02*
X1992Y225D01*
X2010Y225D02*
X2016Y225D01*
X2037Y225D02*
X2044Y225D01*
X2074Y225D02*
X2080Y225D01*
X2384Y225D02*
X2389Y225D01*
X2682Y225D02*
X2689Y225D01*
X0Y224D02*
X7Y224D01*
X534Y224D02*
X543Y224D01*
X634Y224D02*
X643Y224D01*
X674Y224D02*
X683Y224D01*
X1278Y224D02*
X1291Y224D01*
X1386Y224D02*
X1391Y224D01*
X1962Y224D02*
X1970Y224D01*
X2010Y224D02*
X2016Y224D01*
X2037Y224D02*
X2044Y224D01*
X2074Y224D02*
X2080Y224D01*
X2384Y224D02*
X2388Y224D01*
X2682Y224D02*
X2689Y224D01*
X0Y223D02*
X7Y223D01*
X534Y223D02*
X543Y223D01*
X634Y223D02*
X643Y223D01*
X674Y223D02*
X683Y223D01*
X1279Y223D02*
X1292Y223D01*
X1387Y223D02*
X1391Y223D01*
X1962Y223D02*
X1970Y223D01*
X2010Y223D02*
X2016Y223D01*
X2037Y223D02*
X2044Y223D01*
X2074Y223D02*
X2080Y223D01*
X2383Y223D02*
X2387Y223D01*
X2682Y223D02*
X2689Y223D01*
X0Y222D02*
X7Y222D01*
X534Y222D02*
X543Y222D01*
X634Y222D02*
X643Y222D01*
X674Y222D02*
X683Y222D01*
X1280Y222D02*
X1293Y222D01*
X1387Y222D02*
X1392Y222D01*
X1963Y222D02*
X1971Y222D01*
X2010Y222D02*
X2016Y222D01*
X2037Y222D02*
X2044Y222D01*
X2074Y222D02*
X2080Y222D01*
X2382Y222D02*
X2387Y222D01*
X2682Y222D02*
X2689Y222D01*
X0Y221D02*
X7Y221D01*
X534Y221D02*
X543Y221D01*
X634Y221D02*
X643Y221D01*
X674Y221D02*
X683Y221D01*
X1281Y221D02*
X1294Y221D01*
X1388Y221D02*
X1392Y221D01*
X1964Y221D02*
X1972Y221D01*
X2010Y221D02*
X2016Y221D01*
X2037Y221D02*
X2044Y221D01*
X2074Y221D02*
X2080Y221D01*
X2382Y221D02*
X2386Y221D01*
X2682Y221D02*
X2689Y221D01*
X0Y220D02*
X7Y220D01*
X534Y220D02*
X543Y220D01*
X634Y220D02*
X643Y220D01*
X674Y220D02*
X683Y220D01*
X1282Y220D02*
X1295Y220D01*
X1388Y220D02*
X1393Y220D01*
X1965Y220D02*
X1973Y220D01*
X2010Y220D02*
X2016Y220D01*
X2037Y220D02*
X2044Y220D01*
X2074Y220D02*
X2080Y220D01*
X2381Y220D02*
X2386Y220D01*
X2682Y220D02*
X2689Y220D01*
X0Y219D02*
X7Y219D01*
X534Y219D02*
X543Y219D01*
X634Y219D02*
X643Y219D01*
X674Y219D02*
X683Y219D01*
X1283Y219D02*
X1296Y219D01*
X1389Y219D02*
X1394Y219D01*
X1965Y219D02*
X1973Y219D01*
X2010Y219D02*
X2016Y219D01*
X2037Y219D02*
X2044Y219D01*
X2074Y219D02*
X2080Y219D01*
X2381Y219D02*
X2385Y219D01*
X2682Y219D02*
X2689Y219D01*
X0Y218D02*
X7Y218D01*
X534Y218D02*
X543Y218D01*
X634Y218D02*
X643Y218D01*
X674Y218D02*
X683Y218D01*
X1284Y218D02*
X1297Y218D01*
X1390Y218D02*
X1394Y218D01*
X1966Y218D02*
X1974Y218D01*
X2010Y218D02*
X2016Y218D01*
X2037Y218D02*
X2044Y218D01*
X2074Y218D02*
X2080Y218D01*
X2380Y218D02*
X2385Y218D01*
X2682Y218D02*
X2689Y218D01*
X0Y217D02*
X7Y217D01*
X534Y217D02*
X543Y217D01*
X634Y217D02*
X643Y217D01*
X674Y217D02*
X683Y217D01*
X1285Y217D02*
X1298Y217D01*
X1390Y217D02*
X1395Y217D01*
X1967Y217D02*
X1975Y217D01*
X2010Y217D02*
X2016Y217D01*
X2037Y217D02*
X2044Y217D01*
X2074Y217D02*
X2080Y217D01*
X2379Y217D02*
X2384Y217D01*
X2682Y217D02*
X2689Y217D01*
X0Y216D02*
X7Y216D01*
X534Y216D02*
X543Y216D01*
X634Y216D02*
X643Y216D01*
X674Y216D02*
X683Y216D01*
X1286Y216D02*
X1299Y216D01*
X1391Y216D02*
X1395Y216D01*
X1968Y216D02*
X1976Y216D01*
X2010Y216D02*
X2016Y216D01*
X2037Y216D02*
X2044Y216D01*
X2074Y216D02*
X2080Y216D01*
X2379Y216D02*
X2383Y216D01*
X2682Y216D02*
X2689Y216D01*
X0Y215D02*
X7Y215D01*
X534Y215D02*
X543Y215D01*
X634Y215D02*
X643Y215D01*
X674Y215D02*
X683Y215D01*
X1287Y215D02*
X1300Y215D01*
X1391Y215D02*
X1396Y215D01*
X1969Y215D02*
X1977Y215D01*
X2010Y215D02*
X2016Y215D01*
X2037Y215D02*
X2044Y215D01*
X2074Y215D02*
X2080Y215D01*
X2378Y215D02*
X2383Y215D01*
X2682Y215D02*
X2689Y215D01*
X0Y214D02*
X7Y214D01*
X534Y214D02*
X543Y214D01*
X634Y214D02*
X643Y214D01*
X674Y214D02*
X683Y214D01*
X1288Y214D02*
X1301Y214D01*
X1392Y214D02*
X1397Y214D01*
X1969Y214D02*
X1977Y214D01*
X2010Y214D02*
X2016Y214D01*
X2037Y214D02*
X2043Y214D01*
X2074Y214D02*
X2080Y214D01*
X2378Y214D02*
X2382Y214D01*
X2682Y214D02*
X2689Y214D01*
X0Y213D02*
X7Y213D01*
X534Y213D02*
X543Y213D01*
X634Y213D02*
X643Y213D01*
X674Y213D02*
X683Y213D01*
X1289Y213D02*
X1302Y213D01*
X1393Y213D02*
X1397Y213D01*
X1970Y213D02*
X1978Y213D01*
X2010Y213D02*
X2016Y213D01*
X2037Y213D02*
X2043Y213D01*
X2074Y213D02*
X2080Y213D01*
X2377Y213D02*
X2382Y213D01*
X2682Y213D02*
X2689Y213D01*
X0Y212D02*
X7Y212D01*
X674Y212D02*
X683Y212D01*
X1290Y212D02*
X1303Y212D01*
X1393Y212D02*
X1398Y212D01*
X1971Y212D02*
X1979Y212D01*
X2010Y212D02*
X2016Y212D01*
X2037Y212D02*
X2043Y212D01*
X2074Y212D02*
X2080Y212D01*
X2376Y212D02*
X2381Y212D01*
X2682Y212D02*
X2689Y212D01*
X0Y211D02*
X7Y211D01*
X674Y211D02*
X683Y211D01*
X1291Y211D02*
X1304Y211D01*
X1394Y211D02*
X1398Y211D01*
X1972Y211D02*
X1980Y211D01*
X2010Y211D02*
X2016Y211D01*
X2036Y211D02*
X2043Y211D01*
X2074Y211D02*
X2080Y211D01*
X2376Y211D02*
X2380Y211D01*
X2682Y211D02*
X2689Y211D01*
X0Y210D02*
X7Y210D01*
X674Y210D02*
X683Y210D01*
X1292Y210D02*
X1305Y210D01*
X1394Y210D02*
X1399Y210D01*
X1972Y210D02*
X1980Y210D01*
X2010Y210D02*
X2043Y210D01*
X2074Y210D02*
X2080Y210D01*
X2375Y210D02*
X2380Y210D01*
X2682Y210D02*
X2689Y210D01*
X0Y209D02*
X7Y209D01*
X674Y209D02*
X683Y209D01*
X1293Y209D02*
X1306Y209D01*
X1395Y209D02*
X1400Y209D01*
X1973Y209D02*
X1981Y209D01*
X2010Y209D02*
X2042Y209D01*
X2074Y209D02*
X2080Y209D01*
X2375Y209D02*
X2379Y209D01*
X2682Y209D02*
X2689Y209D01*
X0Y208D02*
X7Y208D01*
X674Y208D02*
X683Y208D01*
X1294Y208D02*
X1307Y208D01*
X1396Y208D02*
X1400Y208D01*
X1974Y208D02*
X1982Y208D01*
X2010Y208D02*
X2041Y208D01*
X2074Y208D02*
X2080Y208D01*
X2374Y208D02*
X2379Y208D01*
X2682Y208D02*
X2689Y208D01*
X0Y207D02*
X7Y207D01*
X674Y207D02*
X683Y207D01*
X1295Y207D02*
X1308Y207D01*
X1396Y207D02*
X1401Y207D01*
X1975Y207D02*
X1983Y207D01*
X2010Y207D02*
X2041Y207D01*
X2074Y207D02*
X2080Y207D01*
X2089Y207D02*
X2092Y207D01*
X2373Y207D02*
X2378Y207D01*
X2682Y207D02*
X2689Y207D01*
X0Y206D02*
X7Y206D01*
X674Y206D02*
X683Y206D01*
X1296Y206D02*
X1309Y206D01*
X1397Y206D02*
X1401Y206D01*
X1976Y206D02*
X1984Y206D01*
X2010Y206D02*
X2040Y206D01*
X2074Y206D02*
X2080Y206D01*
X2088Y206D02*
X2093Y206D01*
X2373Y206D02*
X2377Y206D01*
X2682Y206D02*
X2689Y206D01*
X0Y205D02*
X7Y205D01*
X674Y205D02*
X683Y205D01*
X1297Y205D02*
X1310Y205D01*
X1398Y205D02*
X1402Y205D01*
X1976Y205D02*
X1984Y205D01*
X2010Y205D02*
X2038Y205D01*
X2074Y205D02*
X2080Y205D01*
X2088Y205D02*
X2094Y205D01*
X2372Y205D02*
X2377Y205D01*
X2682Y205D02*
X2689Y205D01*
X0Y204D02*
X7Y204D01*
X674Y204D02*
X683Y204D01*
X1298Y204D02*
X1311Y204D01*
X1398Y204D02*
X1403Y204D01*
X1977Y204D02*
X1985Y204D01*
X2010Y204D02*
X2036Y204D01*
X2074Y204D02*
X2080Y204D01*
X2088Y204D02*
X2094Y204D01*
X2371Y204D02*
X2376Y204D01*
X2682Y204D02*
X2689Y204D01*
X0Y203D02*
X7Y203D01*
X674Y203D02*
X683Y203D01*
X1299Y203D02*
X1310Y203D01*
X1399Y203D02*
X1403Y203D01*
X1978Y203D02*
X1986Y203D01*
X2010Y203D02*
X2016Y203D01*
X2074Y203D02*
X2080Y203D01*
X2088Y203D02*
X2094Y203D01*
X2371Y203D02*
X2375Y203D01*
X2682Y203D02*
X2689Y203D01*
X0Y202D02*
X7Y202D01*
X674Y202D02*
X683Y202D01*
X1300Y202D02*
X1309Y202D01*
X1399Y202D02*
X1404Y202D01*
X1979Y202D02*
X1987Y202D01*
X2010Y202D02*
X2016Y202D01*
X2074Y202D02*
X2080Y202D01*
X2088Y202D02*
X2094Y202D01*
X2370Y202D02*
X2375Y202D01*
X2682Y202D02*
X2689Y202D01*
X0Y201D02*
X7Y201D01*
X674Y201D02*
X683Y201D01*
X1301Y201D02*
X1308Y201D01*
X1400Y201D02*
X1405Y201D01*
X1979Y201D02*
X1987Y201D01*
X2010Y201D02*
X2016Y201D01*
X2074Y201D02*
X2080Y201D01*
X2088Y201D02*
X2094Y201D01*
X2370Y201D02*
X2374Y201D01*
X2682Y201D02*
X2689Y201D01*
X0Y200D02*
X7Y200D01*
X674Y200D02*
X683Y200D01*
X1302Y200D02*
X1307Y200D01*
X1401Y200D02*
X1405Y200D01*
X1980Y200D02*
X1988Y200D01*
X2010Y200D02*
X2016Y200D01*
X2074Y200D02*
X2080Y200D01*
X2088Y200D02*
X2094Y200D01*
X2369Y200D02*
X2374Y200D01*
X2682Y200D02*
X2689Y200D01*
X0Y199D02*
X7Y199D01*
X674Y199D02*
X683Y199D01*
X1303Y199D02*
X1306Y199D01*
X1401Y199D02*
X1406Y199D01*
X1981Y199D02*
X1989Y199D01*
X2010Y199D02*
X2016Y199D01*
X2074Y199D02*
X2080Y199D01*
X2088Y199D02*
X2094Y199D01*
X2368Y199D02*
X2373Y199D01*
X2682Y199D02*
X2689Y199D01*
X0Y198D02*
X7Y198D01*
X674Y198D02*
X683Y198D01*
X1304Y198D02*
X1305Y198D01*
X1402Y198D02*
X1407Y198D01*
X1982Y198D02*
X1990Y198D01*
X2010Y198D02*
X2016Y198D01*
X2074Y198D02*
X2080Y198D01*
X2088Y198D02*
X2094Y198D01*
X2368Y198D02*
X2372Y198D01*
X2682Y198D02*
X2689Y198D01*
X0Y197D02*
X7Y197D01*
X674Y197D02*
X683Y197D01*
X1305Y197D02*
X1305Y197D01*
X1403Y197D02*
X1407Y197D01*
X1982Y197D02*
X1991Y197D01*
X2010Y197D02*
X2016Y197D01*
X2074Y197D02*
X2080Y197D01*
X2088Y197D02*
X2094Y197D01*
X2367Y197D02*
X2372Y197D01*
X2682Y197D02*
X2689Y197D01*
X0Y196D02*
X7Y196D01*
X674Y196D02*
X683Y196D01*
X1403Y196D02*
X1408Y196D01*
X1983Y196D02*
X1991Y196D01*
X2010Y196D02*
X2016Y196D01*
X2074Y196D02*
X2080Y196D01*
X2088Y196D02*
X2094Y196D01*
X2366Y196D02*
X2371Y196D01*
X2682Y196D02*
X2689Y196D01*
X0Y195D02*
X7Y195D01*
X674Y195D02*
X683Y195D01*
X1404Y195D02*
X1409Y195D01*
X1961Y195D02*
X1964Y195D01*
X1984Y195D02*
X1992Y195D01*
X2010Y195D02*
X2016Y195D01*
X2074Y195D02*
X2080Y195D01*
X2088Y195D02*
X2094Y195D01*
X2366Y195D02*
X2370Y195D01*
X2682Y195D02*
X2689Y195D01*
X0Y194D02*
X7Y194D01*
X674Y194D02*
X683Y194D01*
X1405Y194D02*
X1409Y194D01*
X1960Y194D02*
X1965Y194D01*
X1985Y194D02*
X1993Y194D01*
X2010Y194D02*
X2016Y194D01*
X2074Y194D02*
X2080Y194D01*
X2088Y194D02*
X2094Y194D01*
X2365Y194D02*
X2370Y194D01*
X2682Y194D02*
X2689Y194D01*
X0Y193D02*
X7Y193D01*
X675Y193D02*
X683Y193D01*
X1405Y193D02*
X1410Y193D01*
X1960Y193D02*
X1966Y193D01*
X1986Y193D02*
X1993Y193D01*
X2010Y193D02*
X2016Y193D01*
X2074Y193D02*
X2080Y193D01*
X2088Y193D02*
X2094Y193D01*
X2364Y193D02*
X2369Y193D01*
X2682Y193D02*
X2689Y193D01*
X0Y192D02*
X7Y192D01*
X675Y192D02*
X683Y192D01*
X1406Y192D02*
X1411Y192D01*
X1960Y192D02*
X1966Y192D01*
X1986Y192D02*
X1993Y192D01*
X2010Y192D02*
X2016Y192D01*
X2074Y192D02*
X2080Y192D01*
X2088Y192D02*
X2094Y192D01*
X2364Y192D02*
X2368Y192D01*
X2682Y192D02*
X2689Y192D01*
X0Y191D02*
X7Y191D01*
X676Y191D02*
X683Y191D01*
X1407Y191D02*
X1411Y191D01*
X1960Y191D02*
X1966Y191D01*
X1987Y191D02*
X1993Y191D01*
X2010Y191D02*
X2016Y191D01*
X2074Y191D02*
X2080Y191D01*
X2088Y191D02*
X2094Y191D01*
X2363Y191D02*
X2368Y191D01*
X2682Y191D02*
X2689Y191D01*
X0Y190D02*
X7Y190D01*
X676Y190D02*
X683Y190D01*
X1407Y190D02*
X1412Y190D01*
X1960Y190D02*
X1968Y190D01*
X1986Y190D02*
X1993Y190D01*
X2010Y190D02*
X2016Y190D01*
X2073Y190D02*
X2080Y190D01*
X2087Y190D02*
X2094Y190D01*
X2362Y190D02*
X2367Y190D01*
X2682Y190D02*
X2689Y190D01*
X0Y189D02*
X7Y189D01*
X677Y189D02*
X683Y189D01*
X1408Y189D02*
X1413Y189D01*
X1960Y189D02*
X1993Y189D01*
X2010Y189D02*
X2016Y189D01*
X2061Y189D02*
X2094Y189D01*
X2362Y189D02*
X2366Y189D01*
X2682Y189D02*
X2689Y189D01*
X0Y188D02*
X7Y188D01*
X677Y188D02*
X683Y188D01*
X1409Y188D02*
X1413Y188D01*
X1961Y188D02*
X1993Y188D01*
X2010Y188D02*
X2016Y188D01*
X2061Y188D02*
X2094Y188D01*
X2361Y188D02*
X2366Y188D01*
X2682Y188D02*
X2689Y188D01*
X0Y187D02*
X7Y187D01*
X678Y187D02*
X683Y187D01*
X1409Y187D02*
X1414Y187D01*
X1961Y187D02*
X1992Y187D01*
X2010Y187D02*
X2016Y187D01*
X2060Y187D02*
X2094Y187D01*
X2360Y187D02*
X2365Y187D01*
X2682Y187D02*
X2689Y187D01*
X0Y186D02*
X7Y186D01*
X678Y186D02*
X683Y186D01*
X1410Y186D02*
X1415Y186D01*
X1962Y186D02*
X1992Y186D01*
X2010Y186D02*
X2016Y186D01*
X2060Y186D02*
X2094Y186D01*
X2360Y186D02*
X2364Y186D01*
X2682Y186D02*
X2689Y186D01*
X0Y185D02*
X7Y185D01*
X678Y185D02*
X683Y185D01*
X1411Y185D02*
X1415Y185D01*
X1963Y185D02*
X1991Y185D01*
X2010Y185D02*
X2016Y185D01*
X2060Y185D02*
X2093Y185D01*
X2359Y185D02*
X2364Y185D01*
X2682Y185D02*
X2689Y185D01*
X0Y184D02*
X7Y184D01*
X679Y184D02*
X683Y184D01*
X1411Y184D02*
X1416Y184D01*
X1965Y184D02*
X1989Y184D01*
X2011Y184D02*
X2015Y184D01*
X2061Y184D02*
X2093Y184D01*
X2358Y184D02*
X2363Y184D01*
X2682Y184D02*
X2689Y184D01*
X0Y183D02*
X7Y183D01*
X679Y183D02*
X683Y183D01*
X1412Y183D02*
X1417Y183D01*
X1968Y183D02*
X1986Y183D01*
X2013Y183D02*
X2013Y183D01*
X2063Y183D02*
X2091Y183D01*
X2357Y183D02*
X2362Y183D01*
X2682Y183D02*
X2689Y183D01*
X0Y182D02*
X7Y182D01*
X679Y182D02*
X683Y182D01*
X1413Y182D02*
X1417Y182D01*
X2357Y182D02*
X2361Y182D01*
X2682Y182D02*
X2689Y182D01*
X0Y181D02*
X7Y181D01*
X680Y181D02*
X683Y181D01*
X1413Y181D02*
X1418Y181D01*
X2356Y181D02*
X2361Y181D01*
X2682Y181D02*
X2689Y181D01*
X0Y180D02*
X7Y180D01*
X680Y180D02*
X683Y180D01*
X1414Y180D02*
X1419Y180D01*
X2355Y180D02*
X2360Y180D01*
X2682Y180D02*
X2689Y180D01*
X0Y179D02*
X7Y179D01*
X680Y179D02*
X683Y179D01*
X1415Y179D02*
X1420Y179D01*
X2355Y179D02*
X2359Y179D01*
X2682Y179D02*
X2689Y179D01*
X0Y178D02*
X7Y178D01*
X680Y178D02*
X683Y178D01*
X1416Y178D02*
X1420Y178D01*
X2354Y178D02*
X2359Y178D01*
X2682Y178D02*
X2689Y178D01*
X0Y177D02*
X7Y177D01*
X681Y177D02*
X683Y177D01*
X1416Y177D02*
X1421Y177D01*
X2353Y177D02*
X2358Y177D01*
X2682Y177D02*
X2689Y177D01*
X0Y176D02*
X7Y176D01*
X681Y176D02*
X683Y176D01*
X1417Y176D02*
X1422Y176D01*
X2353Y176D02*
X2357Y176D01*
X2682Y176D02*
X2689Y176D01*
X0Y175D02*
X7Y175D01*
X681Y175D02*
X683Y175D01*
X1418Y175D02*
X1422Y175D01*
X2352Y175D02*
X2357Y175D01*
X2682Y175D02*
X2689Y175D01*
X0Y174D02*
X7Y174D01*
X681Y174D02*
X683Y174D01*
X1418Y174D02*
X1423Y174D01*
X2351Y174D02*
X2356Y174D01*
X2682Y174D02*
X2689Y174D01*
X0Y173D02*
X7Y173D01*
X681Y173D02*
X683Y173D01*
X1419Y173D02*
X1424Y173D01*
X2350Y173D02*
X2355Y173D01*
X2682Y173D02*
X2689Y173D01*
X0Y172D02*
X7Y172D01*
X681Y172D02*
X683Y172D01*
X1420Y172D02*
X1425Y172D01*
X2350Y172D02*
X2354Y172D01*
X2682Y172D02*
X2689Y172D01*
X0Y171D02*
X7Y171D01*
X681Y171D02*
X683Y171D01*
X944Y171D02*
X967Y171D01*
X1421Y171D02*
X1425Y171D01*
X2349Y171D02*
X2354Y171D01*
X2682Y171D02*
X2689Y171D01*
X0Y170D02*
X7Y170D01*
X681Y170D02*
X683Y170D01*
X912Y170D02*
X919Y170D01*
X942Y170D02*
X971Y170D01*
X1421Y170D02*
X1426Y170D01*
X2348Y170D02*
X2353Y170D01*
X2682Y170D02*
X2689Y170D01*
X0Y169D02*
X7Y169D01*
X681Y169D02*
X683Y169D01*
X911Y169D02*
X921Y169D01*
X941Y169D02*
X972Y169D01*
X1422Y169D02*
X1427Y169D01*
X2347Y169D02*
X2352Y169D01*
X2682Y169D02*
X2689Y169D01*
X0Y168D02*
X7Y168D01*
X681Y168D02*
X683Y168D01*
X910Y168D02*
X922Y168D01*
X941Y168D02*
X973Y168D01*
X1423Y168D02*
X1428Y168D01*
X2347Y168D02*
X2351Y168D01*
X2682Y168D02*
X2689Y168D01*
X0Y167D02*
X7Y167D01*
X681Y167D02*
X683Y167D01*
X909Y167D02*
X923Y167D01*
X941Y167D02*
X974Y167D01*
X1423Y167D02*
X1428Y167D01*
X2346Y167D02*
X2351Y167D01*
X2682Y167D02*
X2689Y167D01*
X0Y166D02*
X7Y166D01*
X681Y166D02*
X683Y166D01*
X907Y166D02*
X923Y166D01*
X941Y166D02*
X974Y166D01*
X1424Y166D02*
X1429Y166D01*
X2345Y166D02*
X2350Y166D01*
X2682Y166D02*
X2689Y166D01*
X0Y165D02*
X7Y165D01*
X681Y165D02*
X683Y165D01*
X906Y165D02*
X924Y165D01*
X942Y165D02*
X974Y165D01*
X1425Y165D02*
X1430Y165D01*
X2344Y165D02*
X2349Y165D01*
X2682Y165D02*
X2689Y165D01*
X0Y164D02*
X7Y164D01*
X681Y164D02*
X683Y164D01*
X905Y164D02*
X924Y164D01*
X944Y164D02*
X974Y164D01*
X1426Y164D02*
X1431Y164D01*
X2344Y164D02*
X2349Y164D01*
X2682Y164D02*
X2689Y164D01*
X0Y163D02*
X7Y163D01*
X680Y163D02*
X683Y163D01*
X904Y163D02*
X914Y163D01*
X918Y163D02*
X924Y163D01*
X968Y163D02*
X974Y163D01*
X1426Y163D02*
X1431Y163D01*
X2343Y163D02*
X2348Y163D01*
X2682Y163D02*
X2689Y163D01*
X0Y162D02*
X7Y162D01*
X680Y162D02*
X683Y162D01*
X903Y162D02*
X913Y162D01*
X918Y162D02*
X924Y162D01*
X968Y162D02*
X974Y162D01*
X1427Y162D02*
X1432Y162D01*
X2342Y162D02*
X2347Y162D01*
X2682Y162D02*
X2689Y162D01*
X0Y161D02*
X7Y161D01*
X680Y161D02*
X683Y161D01*
X902Y161D02*
X911Y161D01*
X918Y161D02*
X924Y161D01*
X968Y161D02*
X974Y161D01*
X1428Y161D02*
X1433Y161D01*
X2341Y161D02*
X2346Y161D01*
X2682Y161D02*
X2689Y161D01*
X0Y160D02*
X7Y160D01*
X680Y160D02*
X683Y160D01*
X900Y160D02*
X910Y160D01*
X918Y160D02*
X924Y160D01*
X968Y160D02*
X974Y160D01*
X1429Y160D02*
X1434Y160D01*
X2341Y160D02*
X2345Y160D01*
X2682Y160D02*
X2689Y160D01*
X0Y159D02*
X7Y159D01*
X679Y159D02*
X683Y159D01*
X899Y159D02*
X909Y159D01*
X918Y159D02*
X924Y159D01*
X968Y159D02*
X974Y159D01*
X1430Y159D02*
X1434Y159D01*
X2340Y159D02*
X2345Y159D01*
X2682Y159D02*
X2689Y159D01*
X0Y158D02*
X7Y158D01*
X679Y158D02*
X683Y158D01*
X898Y158D02*
X908Y158D01*
X918Y158D02*
X924Y158D01*
X968Y158D02*
X974Y158D01*
X1430Y158D02*
X1435Y158D01*
X2339Y158D02*
X2344Y158D01*
X2682Y158D02*
X2689Y158D01*
X0Y157D02*
X7Y157D01*
X679Y157D02*
X683Y157D01*
X897Y157D02*
X907Y157D01*
X918Y157D02*
X924Y157D01*
X968Y157D02*
X974Y157D01*
X1431Y157D02*
X1436Y157D01*
X2338Y157D02*
X2343Y157D01*
X2682Y157D02*
X2689Y157D01*
X0Y156D02*
X7Y156D01*
X679Y156D02*
X683Y156D01*
X896Y156D02*
X906Y156D01*
X918Y156D02*
X924Y156D01*
X968Y156D02*
X974Y156D01*
X1432Y156D02*
X1437Y156D01*
X2337Y156D02*
X2342Y156D01*
X2682Y156D02*
X2689Y156D01*
X0Y155D02*
X7Y155D01*
X678Y155D02*
X683Y155D01*
X895Y155D02*
X904Y155D01*
X918Y155D02*
X924Y155D01*
X968Y155D02*
X974Y155D01*
X1433Y155D02*
X1438Y155D01*
X2337Y155D02*
X2342Y155D01*
X2682Y155D02*
X2689Y155D01*
X0Y154D02*
X7Y154D01*
X678Y154D02*
X683Y154D01*
X894Y154D02*
X903Y154D01*
X918Y154D02*
X924Y154D01*
X968Y154D02*
X974Y154D01*
X1433Y154D02*
X1438Y154D01*
X2336Y154D02*
X2341Y154D01*
X2682Y154D02*
X2689Y154D01*
X0Y153D02*
X7Y153D01*
X677Y153D02*
X683Y153D01*
X893Y153D02*
X902Y153D01*
X918Y153D02*
X924Y153D01*
X968Y153D02*
X974Y153D01*
X1434Y153D02*
X1439Y153D01*
X2335Y153D02*
X2340Y153D01*
X2682Y153D02*
X2689Y153D01*
X0Y152D02*
X7Y152D01*
X677Y152D02*
X683Y152D01*
X892Y152D02*
X901Y152D01*
X918Y152D02*
X924Y152D01*
X968Y152D02*
X974Y152D01*
X1435Y152D02*
X1440Y152D01*
X2334Y152D02*
X2339Y152D01*
X2682Y152D02*
X2689Y152D01*
X0Y151D02*
X7Y151D01*
X676Y151D02*
X683Y151D01*
X892Y151D02*
X900Y151D01*
X918Y151D02*
X924Y151D01*
X968Y151D02*
X974Y151D01*
X1436Y151D02*
X1441Y151D01*
X2333Y151D02*
X2338Y151D01*
X2682Y151D02*
X2689Y151D01*
X0Y150D02*
X7Y150D01*
X676Y150D02*
X683Y150D01*
X891Y150D02*
X898Y150D01*
X918Y150D02*
X924Y150D01*
X968Y150D02*
X974Y150D01*
X1437Y150D02*
X1442Y150D01*
X2333Y150D02*
X2338Y150D01*
X2682Y150D02*
X2689Y150D01*
X0Y149D02*
X7Y149D01*
X675Y149D02*
X683Y149D01*
X891Y149D02*
X898Y149D01*
X918Y149D02*
X924Y149D01*
X968Y149D02*
X974Y149D01*
X1437Y149D02*
X1442Y149D01*
X2332Y149D02*
X2337Y149D01*
X2682Y149D02*
X2689Y149D01*
X0Y148D02*
X7Y148D01*
X675Y148D02*
X683Y148D01*
X891Y148D02*
X897Y148D01*
X918Y148D02*
X924Y148D01*
X968Y148D02*
X974Y148D01*
X1438Y148D02*
X1443Y148D01*
X2331Y148D02*
X2336Y148D01*
X2682Y148D02*
X2689Y148D01*
X0Y147D02*
X7Y147D01*
X674Y147D02*
X683Y147D01*
X891Y147D02*
X897Y147D01*
X918Y147D02*
X924Y147D01*
X945Y147D02*
X974Y147D01*
X1439Y147D02*
X1444Y147D01*
X2330Y147D02*
X2335Y147D01*
X2682Y147D02*
X2689Y147D01*
X0Y146D02*
X7Y146D01*
X674Y146D02*
X683Y146D01*
X891Y146D02*
X897Y146D01*
X918Y146D02*
X924Y146D01*
X944Y146D02*
X974Y146D01*
X1440Y146D02*
X1445Y146D01*
X2329Y146D02*
X2334Y146D01*
X2682Y146D02*
X2689Y146D01*
X0Y145D02*
X7Y145D01*
X674Y145D02*
X683Y145D01*
X890Y145D02*
X897Y145D01*
X918Y145D02*
X924Y145D01*
X942Y145D02*
X974Y145D01*
X1441Y145D02*
X1446Y145D01*
X2329Y145D02*
X2334Y145D01*
X2682Y145D02*
X2689Y145D01*
X0Y144D02*
X7Y144D01*
X674Y144D02*
X683Y144D01*
X890Y144D02*
X896Y144D01*
X918Y144D02*
X924Y144D01*
X942Y144D02*
X973Y144D01*
X1441Y144D02*
X1447Y144D01*
X2328Y144D02*
X2333Y144D01*
X2682Y144D02*
X2689Y144D01*
X0Y143D02*
X7Y143D01*
X674Y143D02*
X683Y143D01*
X890Y143D02*
X896Y143D01*
X918Y143D02*
X924Y143D01*
X941Y143D02*
X973Y143D01*
X1442Y143D02*
X1447Y143D01*
X2327Y143D02*
X2332Y143D01*
X2682Y143D02*
X2689Y143D01*
X0Y142D02*
X7Y142D01*
X674Y142D02*
X683Y142D01*
X890Y142D02*
X896Y142D01*
X918Y142D02*
X924Y142D01*
X941Y142D02*
X972Y142D01*
X1443Y142D02*
X1448Y142D01*
X2326Y142D02*
X2331Y142D01*
X2682Y142D02*
X2689Y142D01*
X0Y141D02*
X7Y141D01*
X674Y141D02*
X683Y141D01*
X890Y141D02*
X896Y141D01*
X906Y141D02*
X909Y141D01*
X918Y141D02*
X924Y141D01*
X941Y141D02*
X970Y141D01*
X1444Y141D02*
X1449Y141D01*
X2325Y141D02*
X2330Y141D01*
X2682Y141D02*
X2689Y141D01*
X0Y140D02*
X7Y140D01*
X674Y140D02*
X683Y140D01*
X890Y140D02*
X896Y140D01*
X905Y140D02*
X909Y140D01*
X917Y140D02*
X924Y140D01*
X941Y140D02*
X947Y140D01*
X1445Y140D02*
X1450Y140D01*
X2324Y140D02*
X2329Y140D01*
X2682Y140D02*
X2689Y140D01*
X0Y139D02*
X7Y139D01*
X674Y139D02*
X683Y139D01*
X890Y139D02*
X896Y139D01*
X904Y139D02*
X910Y139D01*
X917Y139D02*
X923Y139D01*
X941Y139D02*
X947Y139D01*
X1446Y139D02*
X1451Y139D01*
X2323Y139D02*
X2329Y139D01*
X2682Y139D02*
X2689Y139D01*
X0Y138D02*
X7Y138D01*
X674Y138D02*
X683Y138D01*
X890Y138D02*
X896Y138D01*
X904Y138D02*
X911Y138D01*
X916Y138D02*
X923Y138D01*
X941Y138D02*
X947Y138D01*
X1447Y138D02*
X1452Y138D01*
X2323Y138D02*
X2328Y138D01*
X2682Y138D02*
X2689Y138D01*
X0Y137D02*
X7Y137D01*
X674Y137D02*
X683Y137D01*
X890Y137D02*
X896Y137D01*
X904Y137D02*
X911Y137D01*
X915Y137D02*
X923Y137D01*
X941Y137D02*
X947Y137D01*
X1447Y137D02*
X1452Y137D01*
X2322Y137D02*
X2327Y137D01*
X2682Y137D02*
X2689Y137D01*
X0Y136D02*
X7Y136D01*
X674Y136D02*
X683Y136D01*
X890Y136D02*
X896Y136D01*
X905Y136D02*
X911Y136D01*
X914Y136D02*
X922Y136D01*
X941Y136D02*
X947Y136D01*
X1448Y136D02*
X1453Y136D01*
X2321Y136D02*
X2326Y136D01*
X2682Y136D02*
X2689Y136D01*
X0Y135D02*
X7Y135D01*
X674Y135D02*
X683Y135D01*
X890Y135D02*
X896Y135D01*
X905Y135D02*
X922Y135D01*
X941Y135D02*
X947Y135D01*
X1449Y135D02*
X1454Y135D01*
X2320Y135D02*
X2325Y135D01*
X2682Y135D02*
X2689Y135D01*
X0Y134D02*
X7Y134D01*
X674Y134D02*
X683Y134D01*
X890Y134D02*
X896Y134D01*
X906Y134D02*
X921Y134D01*
X941Y134D02*
X947Y134D01*
X1450Y134D02*
X1455Y134D01*
X2319Y134D02*
X2324Y134D01*
X2682Y134D02*
X2689Y134D01*
X0Y133D02*
X7Y133D01*
X674Y133D02*
X683Y133D01*
X890Y133D02*
X896Y133D01*
X906Y133D02*
X920Y133D01*
X941Y133D02*
X947Y133D01*
X1451Y133D02*
X1456Y133D01*
X2318Y133D02*
X2323Y133D01*
X2682Y133D02*
X2689Y133D01*
X0Y132D02*
X7Y132D01*
X674Y132D02*
X683Y132D01*
X890Y132D02*
X896Y132D01*
X906Y132D02*
X919Y132D01*
X941Y132D02*
X947Y132D01*
X1452Y132D02*
X1457Y132D01*
X2317Y132D02*
X2323Y132D01*
X2682Y132D02*
X2689Y132D01*
X0Y131D02*
X7Y131D01*
X674Y131D02*
X683Y131D01*
X890Y131D02*
X896Y131D01*
X907Y131D02*
X918Y131D01*
X941Y131D02*
X947Y131D01*
X1452Y131D02*
X1458Y131D01*
X2317Y131D02*
X2322Y131D01*
X2682Y131D02*
X2689Y131D01*
X0Y130D02*
X7Y130D01*
X674Y130D02*
X683Y130D01*
X890Y130D02*
X896Y130D01*
X907Y130D02*
X917Y130D01*
X941Y130D02*
X947Y130D01*
X1453Y130D02*
X1459Y130D01*
X2316Y130D02*
X2321Y130D01*
X2682Y130D02*
X2689Y130D01*
X0Y129D02*
X7Y129D01*
X674Y129D02*
X683Y129D01*
X890Y129D02*
X896Y129D01*
X905Y129D02*
X915Y129D01*
X941Y129D02*
X947Y129D01*
X1454Y129D02*
X1459Y129D01*
X2315Y129D02*
X2320Y129D01*
X2682Y129D02*
X2689Y129D01*
X0Y128D02*
X7Y128D01*
X674Y128D02*
X683Y128D01*
X890Y128D02*
X896Y128D01*
X904Y128D02*
X914Y128D01*
X941Y128D02*
X947Y128D01*
X1455Y128D02*
X1460Y128D01*
X2314Y128D02*
X2319Y128D01*
X2682Y128D02*
X2689Y128D01*
X0Y127D02*
X7Y127D01*
X674Y127D02*
X683Y127D01*
X890Y127D02*
X896Y127D01*
X903Y127D02*
X915Y127D01*
X941Y127D02*
X947Y127D01*
X1456Y127D02*
X1461Y127D01*
X2313Y127D02*
X2318Y127D01*
X2682Y127D02*
X2689Y127D01*
X0Y126D02*
X7Y126D01*
X674Y126D02*
X683Y126D01*
X890Y126D02*
X896Y126D01*
X902Y126D02*
X915Y126D01*
X941Y126D02*
X947Y126D01*
X1457Y126D02*
X1462Y126D01*
X2312Y126D02*
X2317Y126D01*
X2682Y126D02*
X2689Y126D01*
X0Y125D02*
X7Y125D01*
X674Y125D02*
X683Y125D01*
X891Y125D02*
X897Y125D01*
X901Y125D02*
X916Y125D01*
X941Y125D02*
X947Y125D01*
X1458Y125D02*
X1463Y125D01*
X2311Y125D02*
X2316Y125D01*
X2682Y125D02*
X2689Y125D01*
X0Y124D02*
X7Y124D01*
X674Y124D02*
X683Y124D01*
X891Y124D02*
X897Y124D01*
X899Y124D02*
X916Y124D01*
X941Y124D02*
X947Y124D01*
X1459Y124D02*
X1464Y124D01*
X2310Y124D02*
X2316Y124D01*
X2682Y124D02*
X2689Y124D01*
X0Y123D02*
X7Y123D01*
X674Y123D02*
X683Y123D01*
X891Y123D02*
X908Y123D01*
X910Y123D02*
X923Y123D01*
X941Y123D02*
X973Y123D01*
X1460Y123D02*
X1465Y123D01*
X2309Y123D02*
X2315Y123D01*
X2682Y123D02*
X2689Y123D01*
X0Y122D02*
X7Y122D01*
X674Y122D02*
X683Y122D01*
X891Y122D02*
X907Y122D01*
X910Y122D02*
X924Y122D01*
X941Y122D02*
X974Y122D01*
X1460Y122D02*
X1466Y122D01*
X2308Y122D02*
X2314Y122D01*
X2682Y122D02*
X2689Y122D01*
X0Y121D02*
X7Y121D01*
X674Y121D02*
X683Y121D01*
X892Y121D02*
X906Y121D01*
X911Y121D02*
X924Y121D01*
X941Y121D02*
X974Y121D01*
X1461Y121D02*
X1467Y121D01*
X2307Y121D02*
X2313Y121D01*
X2682Y121D02*
X2689Y121D01*
X0Y120D02*
X7Y120D01*
X674Y120D02*
X683Y120D01*
X892Y120D02*
X905Y120D01*
X911Y120D02*
X924Y120D01*
X941Y120D02*
X974Y120D01*
X1462Y120D02*
X1468Y120D01*
X2307Y120D02*
X2312Y120D01*
X2682Y120D02*
X2689Y120D01*
X0Y119D02*
X7Y119D01*
X674Y119D02*
X683Y119D01*
X893Y119D02*
X903Y119D01*
X911Y119D02*
X924Y119D01*
X941Y119D02*
X974Y119D01*
X1463Y119D02*
X1469Y119D01*
X2306Y119D02*
X2311Y119D01*
X2682Y119D02*
X2689Y119D01*
X0Y118D02*
X7Y118D01*
X674Y118D02*
X683Y118D01*
X895Y118D02*
X902Y118D01*
X912Y118D02*
X923Y118D01*
X941Y118D02*
X973Y118D01*
X1464Y118D02*
X1470Y118D01*
X2305Y118D02*
X2310Y118D01*
X2682Y118D02*
X2689Y118D01*
X0Y117D02*
X7Y117D01*
X674Y117D02*
X683Y117D01*
X898Y117D02*
X899Y117D01*
X912Y117D02*
X921Y117D01*
X941Y117D02*
X971Y117D01*
X1465Y117D02*
X1470Y117D01*
X2304Y117D02*
X2309Y117D01*
X2682Y117D02*
X2689Y117D01*
X0Y116D02*
X7Y116D01*
X674Y116D02*
X683Y116D01*
X1466Y116D02*
X1471Y116D01*
X2303Y116D02*
X2308Y116D01*
X2682Y116D02*
X2689Y116D01*
X0Y115D02*
X7Y115D01*
X674Y115D02*
X683Y115D01*
X1467Y115D02*
X1472Y115D01*
X2302Y115D02*
X2307Y115D01*
X2682Y115D02*
X2689Y115D01*
X0Y114D02*
X7Y114D01*
X674Y114D02*
X683Y114D01*
X1468Y114D02*
X1473Y114D01*
X2301Y114D02*
X2306Y114D01*
X2682Y114D02*
X2689Y114D01*
X0Y113D02*
X7Y113D01*
X674Y113D02*
X683Y113D01*
X1469Y113D02*
X1474Y113D01*
X2300Y113D02*
X2305Y113D01*
X2682Y113D02*
X2689Y113D01*
X0Y112D02*
X7Y112D01*
X674Y112D02*
X683Y112D01*
X1470Y112D02*
X1475Y112D01*
X2299Y112D02*
X2304Y112D01*
X2682Y112D02*
X2689Y112D01*
X0Y111D02*
X7Y111D01*
X674Y111D02*
X683Y111D01*
X1471Y111D02*
X1476Y111D01*
X2298Y111D02*
X2303Y111D01*
X2682Y111D02*
X2689Y111D01*
X0Y110D02*
X7Y110D01*
X674Y110D02*
X683Y110D01*
X1472Y110D02*
X1477Y110D01*
X2297Y110D02*
X2302Y110D01*
X2682Y110D02*
X2689Y110D01*
X0Y109D02*
X7Y109D01*
X674Y109D02*
X683Y109D01*
X1473Y109D02*
X1478Y109D01*
X2296Y109D02*
X2301Y109D01*
X2682Y109D02*
X2689Y109D01*
X0Y108D02*
X7Y108D01*
X674Y108D02*
X683Y108D01*
X1474Y108D02*
X1479Y108D01*
X2295Y108D02*
X2301Y108D01*
X2682Y108D02*
X2689Y108D01*
X0Y107D02*
X7Y107D01*
X674Y107D02*
X683Y107D01*
X1475Y107D02*
X1480Y107D01*
X2294Y107D02*
X2300Y107D01*
X2682Y107D02*
X2689Y107D01*
X0Y106D02*
X7Y106D01*
X674Y106D02*
X683Y106D01*
X1476Y106D02*
X1481Y106D01*
X2293Y106D02*
X2299Y106D01*
X2682Y106D02*
X2689Y106D01*
X0Y105D02*
X7Y105D01*
X674Y105D02*
X683Y105D01*
X1477Y105D02*
X1482Y105D01*
X2292Y105D02*
X2298Y105D01*
X2682Y105D02*
X2689Y105D01*
X0Y104D02*
X7Y104D01*
X674Y104D02*
X683Y104D01*
X1478Y104D02*
X1483Y104D01*
X2291Y104D02*
X2297Y104D01*
X2682Y104D02*
X2689Y104D01*
X0Y103D02*
X7Y103D01*
X674Y103D02*
X683Y103D01*
X1479Y103D02*
X1484Y103D01*
X2290Y103D02*
X2296Y103D01*
X2682Y103D02*
X2689Y103D01*
X0Y102D02*
X7Y102D01*
X674Y102D02*
X683Y102D01*
X1480Y102D02*
X1485Y102D01*
X2289Y102D02*
X2295Y102D01*
X2682Y102D02*
X2689Y102D01*
X0Y101D02*
X7Y101D01*
X674Y101D02*
X683Y101D01*
X1481Y101D02*
X1486Y101D01*
X2288Y101D02*
X2294Y101D01*
X2682Y101D02*
X2689Y101D01*
X0Y100D02*
X7Y100D01*
X674Y100D02*
X683Y100D01*
X1482Y100D02*
X1487Y100D01*
X2287Y100D02*
X2293Y100D01*
X2682Y100D02*
X2689Y100D01*
X0Y99D02*
X7Y99D01*
X674Y99D02*
X683Y99D01*
X1483Y99D02*
X1488Y99D01*
X2286Y99D02*
X2292Y99D01*
X2682Y99D02*
X2689Y99D01*
X0Y98D02*
X7Y98D01*
X674Y98D02*
X683Y98D01*
X1484Y98D02*
X1489Y98D01*
X2285Y98D02*
X2291Y98D01*
X2682Y98D02*
X2689Y98D01*
X0Y97D02*
X7Y97D01*
X674Y97D02*
X683Y97D01*
X1485Y97D02*
X1490Y97D01*
X2284Y97D02*
X2290Y97D01*
X2682Y97D02*
X2689Y97D01*
X0Y96D02*
X7Y96D01*
X674Y96D02*
X683Y96D01*
X1486Y96D02*
X1491Y96D01*
X2283Y96D02*
X2288Y96D01*
X2682Y96D02*
X2689Y96D01*
X0Y95D02*
X7Y95D01*
X674Y95D02*
X683Y95D01*
X1487Y95D02*
X1492Y95D01*
X2282Y95D02*
X2287Y95D01*
X2682Y95D02*
X2689Y95D01*
X0Y94D02*
X7Y94D01*
X674Y94D02*
X683Y94D01*
X1488Y94D02*
X1494Y94D01*
X2281Y94D02*
X2286Y94D01*
X2682Y94D02*
X2689Y94D01*
X0Y93D02*
X7Y93D01*
X674Y93D02*
X683Y93D01*
X1489Y93D02*
X1495Y93D01*
X2280Y93D02*
X2285Y93D01*
X2682Y93D02*
X2689Y93D01*
X0Y92D02*
X7Y92D01*
X674Y92D02*
X683Y92D01*
X1490Y92D02*
X1496Y92D01*
X2279Y92D02*
X2284Y92D01*
X2682Y92D02*
X2689Y92D01*
X0Y91D02*
X7Y91D01*
X674Y91D02*
X683Y91D01*
X1491Y91D02*
X1497Y91D01*
X2277Y91D02*
X2283Y91D01*
X2682Y91D02*
X2689Y91D01*
X0Y90D02*
X7Y90D01*
X674Y90D02*
X683Y90D01*
X1492Y90D02*
X1498Y90D01*
X2276Y90D02*
X2282Y90D01*
X2682Y90D02*
X2689Y90D01*
X0Y89D02*
X7Y89D01*
X674Y89D02*
X683Y89D01*
X1493Y89D02*
X1499Y89D01*
X2275Y89D02*
X2281Y89D01*
X2682Y89D02*
X2689Y89D01*
X0Y88D02*
X7Y88D01*
X674Y88D02*
X683Y88D01*
X1494Y88D02*
X1500Y88D01*
X2274Y88D02*
X2280Y88D01*
X2682Y88D02*
X2689Y88D01*
X0Y87D02*
X7Y87D01*
X674Y87D02*
X683Y87D01*
X1495Y87D02*
X1501Y87D01*
X2273Y87D02*
X2279Y87D01*
X2682Y87D02*
X2689Y87D01*
X0Y86D02*
X7Y86D01*
X674Y86D02*
X683Y86D01*
X1496Y86D02*
X1502Y86D01*
X2272Y86D02*
X2278Y86D01*
X2682Y86D02*
X2689Y86D01*
X0Y85D02*
X7Y85D01*
X674Y85D02*
X683Y85D01*
X1497Y85D02*
X1503Y85D01*
X2271Y85D02*
X2277Y85D01*
X2682Y85D02*
X2689Y85D01*
X0Y84D02*
X7Y84D01*
X674Y84D02*
X683Y84D01*
X1498Y84D02*
X1504Y84D01*
X2270Y84D02*
X2276Y84D01*
X2682Y84D02*
X2689Y84D01*
X0Y83D02*
X7Y83D01*
X674Y83D02*
X683Y83D01*
X1500Y83D02*
X1506Y83D01*
X2269Y83D02*
X2275Y83D01*
X2682Y83D02*
X2689Y83D01*
X0Y82D02*
X7Y82D01*
X674Y82D02*
X683Y82D01*
X1501Y82D02*
X1507Y82D01*
X2268Y82D02*
X2274Y82D01*
X2682Y82D02*
X2689Y82D01*
X0Y81D02*
X7Y81D01*
X674Y81D02*
X683Y81D01*
X1502Y81D02*
X1508Y81D01*
X2266Y81D02*
X2272Y81D01*
X2682Y81D02*
X2689Y81D01*
X0Y80D02*
X7Y80D01*
X674Y80D02*
X683Y80D01*
X1503Y80D02*
X1509Y80D01*
X2265Y80D02*
X2271Y80D01*
X2682Y80D02*
X2689Y80D01*
X0Y79D02*
X7Y79D01*
X674Y79D02*
X683Y79D01*
X1504Y79D02*
X1510Y79D01*
X2264Y79D02*
X2270Y79D01*
X2682Y79D02*
X2689Y79D01*
X0Y78D02*
X7Y78D01*
X674Y78D02*
X683Y78D01*
X1505Y78D02*
X1511Y78D01*
X2263Y78D02*
X2269Y78D01*
X2682Y78D02*
X2689Y78D01*
X0Y77D02*
X7Y77D01*
X674Y77D02*
X683Y77D01*
X1506Y77D02*
X1512Y77D01*
X2262Y77D02*
X2268Y77D01*
X2682Y77D02*
X2689Y77D01*
X0Y76D02*
X7Y76D01*
X674Y76D02*
X683Y76D01*
X1507Y76D02*
X1514Y76D01*
X2261Y76D02*
X2267Y76D01*
X2682Y76D02*
X2689Y76D01*
X0Y75D02*
X7Y75D01*
X674Y75D02*
X683Y75D01*
X1509Y75D02*
X1515Y75D01*
X2260Y75D02*
X2266Y75D01*
X2682Y75D02*
X2689Y75D01*
X0Y74D02*
X7Y74D01*
X674Y74D02*
X683Y74D01*
X1510Y74D02*
X1516Y74D01*
X2258Y74D02*
X2265Y74D01*
X2682Y74D02*
X2689Y74D01*
X0Y73D02*
X7Y73D01*
X674Y73D02*
X683Y73D01*
X1511Y73D02*
X1517Y73D01*
X2257Y73D02*
X2263Y73D01*
X2682Y73D02*
X2689Y73D01*
X0Y72D02*
X7Y72D01*
X674Y72D02*
X683Y72D01*
X1512Y72D02*
X1518Y72D01*
X2256Y72D02*
X2262Y72D01*
X2682Y72D02*
X2689Y72D01*
X0Y71D02*
X7Y71D01*
X674Y71D02*
X683Y71D01*
X1513Y71D02*
X1519Y71D01*
X2255Y71D02*
X2261Y71D01*
X2682Y71D02*
X2689Y71D01*
X0Y70D02*
X7Y70D01*
X1514Y70D02*
X1521Y70D01*
X2254Y70D02*
X2260Y70D01*
X2682Y70D02*
X2689Y70D01*
X0Y69D02*
X7Y69D01*
X1516Y69D02*
X1522Y69D01*
X2252Y69D02*
X2259Y69D01*
X2682Y69D02*
X2689Y69D01*
X0Y68D02*
X7Y68D01*
X1517Y68D02*
X1523Y68D01*
X2251Y68D02*
X2257Y68D01*
X2682Y68D02*
X2689Y68D01*
X0Y67D02*
X7Y67D01*
X1518Y67D02*
X1524Y67D01*
X2250Y67D02*
X2256Y67D01*
X2682Y67D02*
X2689Y67D01*
X0Y66D02*
X7Y66D01*
X1519Y66D02*
X1525Y66D01*
X2249Y66D02*
X2255Y66D01*
X2682Y66D02*
X2689Y66D01*
X0Y65D02*
X7Y65D01*
X1520Y65D02*
X1527Y65D01*
X2247Y65D02*
X2254Y65D01*
X2682Y65D02*
X2689Y65D01*
X0Y64D02*
X7Y64D01*
X1522Y64D02*
X1528Y64D01*
X2246Y64D02*
X2253Y64D01*
X2682Y64D02*
X2689Y64D01*
X0Y63D02*
X7Y63D01*
X1523Y63D02*
X1529Y63D01*
X2245Y63D02*
X2251Y63D01*
X2682Y63D02*
X2689Y63D01*
X0Y62D02*
X7Y62D01*
X1524Y62D02*
X1530Y62D01*
X2244Y62D02*
X2250Y62D01*
X2682Y62D02*
X2689Y62D01*
X0Y61D02*
X7Y61D01*
X1525Y61D02*
X1532Y61D01*
X2243Y61D02*
X2249Y61D01*
X2682Y61D02*
X2689Y61D01*
X0Y60D02*
X7Y60D01*
X1527Y60D02*
X1533Y60D01*
X2241Y60D02*
X2248Y60D01*
X2682Y60D02*
X2689Y60D01*
X0Y59D02*
X7Y59D01*
X1528Y59D02*
X1534Y59D01*
X2240Y59D02*
X2246Y59D01*
X2682Y59D02*
X2689Y59D01*
X0Y58D02*
X7Y58D01*
X1529Y58D02*
X1536Y58D01*
X2239Y58D02*
X2245Y58D01*
X2682Y58D02*
X2689Y58D01*
X0Y57D02*
X7Y57D01*
X1530Y57D02*
X1537Y57D01*
X2237Y57D02*
X2244Y57D01*
X2682Y57D02*
X2689Y57D01*
X0Y56D02*
X7Y56D01*
X1532Y56D02*
X1538Y56D01*
X2236Y56D02*
X2243Y56D01*
X2682Y56D02*
X2689Y56D01*
X0Y55D02*
X7Y55D01*
X1533Y55D02*
X1539Y55D01*
X2235Y55D02*
X2241Y55D01*
X2682Y55D02*
X2689Y55D01*
X0Y54D02*
X7Y54D01*
X1534Y54D02*
X1541Y54D01*
X2233Y54D02*
X2240Y54D01*
X2682Y54D02*
X2689Y54D01*
X0Y53D02*
X7Y53D01*
X1535Y53D02*
X1542Y53D01*
X2232Y53D02*
X2239Y53D01*
X2682Y53D02*
X2689Y53D01*
X0Y52D02*
X7Y52D01*
X1537Y52D02*
X1543Y52D01*
X2231Y52D02*
X2237Y52D01*
X2682Y52D02*
X2689Y52D01*
X0Y51D02*
X7Y51D01*
X1538Y51D02*
X1545Y51D01*
X2229Y51D02*
X2236Y51D01*
X2682Y51D02*
X2689Y51D01*
X0Y50D02*
X7Y50D01*
X1539Y50D02*
X1546Y50D01*
X2228Y50D02*
X2235Y50D01*
X2682Y50D02*
X2689Y50D01*
X0Y49D02*
X7Y49D01*
X1541Y49D02*
X1547Y49D01*
X2227Y49D02*
X2234Y49D01*
X2682Y49D02*
X2689Y49D01*
X0Y48D02*
X7Y48D01*
X1542Y48D02*
X1549Y48D01*
X2225Y48D02*
X2232Y48D01*
X2682Y48D02*
X2689Y48D01*
X0Y47D02*
X7Y47D01*
X1543Y47D02*
X1550Y47D01*
X2224Y47D02*
X2231Y47D01*
X2682Y47D02*
X2689Y47D01*
X0Y46D02*
X7Y46D01*
X1545Y46D02*
X1552Y46D01*
X2223Y46D02*
X2230Y46D01*
X2682Y46D02*
X2689Y46D01*
X0Y45D02*
X7Y45D01*
X1546Y45D02*
X1553Y45D01*
X2221Y45D02*
X2228Y45D01*
X2682Y45D02*
X2689Y45D01*
X0Y44D02*
X7Y44D01*
X1547Y44D02*
X1554Y44D01*
X2220Y44D02*
X2227Y44D01*
X2682Y44D02*
X2689Y44D01*
X0Y43D02*
X7Y43D01*
X1549Y43D02*
X1556Y43D01*
X2218Y43D02*
X2225Y43D01*
X2682Y43D02*
X2689Y43D01*
X0Y42D02*
X7Y42D01*
X1550Y42D02*
X1557Y42D01*
X2217Y42D02*
X2224Y42D01*
X2682Y42D02*
X2689Y42D01*
X0Y41D02*
X7Y41D01*
X1552Y41D02*
X1559Y41D01*
X2216Y41D02*
X2223Y41D01*
X2682Y41D02*
X2689Y41D01*
X0Y40D02*
X7Y40D01*
X1553Y40D02*
X1560Y40D01*
X2214Y40D02*
X2221Y40D01*
X2682Y40D02*
X2689Y40D01*
X0Y39D02*
X7Y39D01*
X1554Y39D02*
X1562Y39D01*
X2213Y39D02*
X2220Y39D01*
X2682Y39D02*
X2689Y39D01*
X0Y38D02*
X7Y38D01*
X1556Y38D02*
X1563Y38D01*
X2211Y38D02*
X2218Y38D01*
X2682Y38D02*
X2689Y38D01*
X0Y37D02*
X7Y37D01*
X1557Y37D02*
X1564Y37D01*
X2210Y37D02*
X2217Y37D01*
X2682Y37D02*
X2689Y37D01*
X0Y36D02*
X7Y36D01*
X1559Y36D02*
X1566Y36D01*
X2208Y36D02*
X2216Y36D01*
X2682Y36D02*
X2689Y36D01*
X0Y35D02*
X7Y35D01*
X1560Y35D02*
X1567Y35D01*
X2207Y35D02*
X2214Y35D01*
X2682Y35D02*
X2689Y35D01*
X0Y34D02*
X7Y34D01*
X1562Y34D02*
X1569Y34D01*
X2205Y34D02*
X2213Y34D01*
X2682Y34D02*
X2689Y34D01*
X0Y33D02*
X7Y33D01*
X1563Y33D02*
X1570Y33D01*
X2204Y33D02*
X2211Y33D01*
X2682Y33D02*
X2689Y33D01*
X0Y32D02*
X7Y32D01*
X1564Y32D02*
X1572Y32D01*
X2202Y32D02*
X2210Y32D01*
X2682Y32D02*
X2689Y32D01*
X0Y31D02*
X7Y31D01*
X1566Y31D02*
X1573Y31D01*
X2201Y31D02*
X2208Y31D01*
X2682Y31D02*
X2689Y31D01*
X0Y30D02*
X7Y30D01*
X1567Y30D02*
X1575Y30D01*
X2199Y30D02*
X2207Y30D01*
X2682Y30D02*
X2689Y30D01*
X0Y29D02*
X7Y29D01*
X1569Y29D02*
X1576Y29D01*
X2198Y29D02*
X2205Y29D01*
X2682Y29D02*
X2689Y29D01*
X0Y28D02*
X7Y28D01*
X1570Y28D02*
X1578Y28D01*
X2196Y28D02*
X2204Y28D01*
X2682Y28D02*
X2689Y28D01*
X0Y27D02*
X7Y27D01*
X1572Y27D02*
X1580Y27D01*
X2195Y27D02*
X2202Y27D01*
X2682Y27D02*
X2689Y27D01*
X0Y26D02*
X7Y26D01*
X1574Y26D02*
X1581Y26D01*
X2193Y26D02*
X2201Y26D01*
X2682Y26D02*
X2689Y26D01*
X0Y25D02*
X7Y25D01*
X1575Y25D02*
X1583Y25D01*
X2191Y25D02*
X2199Y25D01*
X2682Y25D02*
X2689Y25D01*
X0Y24D02*
X7Y24D01*
X1577Y24D02*
X1584Y24D01*
X2190Y24D02*
X2198Y24D01*
X2682Y24D02*
X2689Y24D01*
X0Y23D02*
X7Y23D01*
X1578Y23D02*
X1586Y23D01*
X2188Y23D02*
X2196Y23D01*
X2682Y23D02*
X2689Y23D01*
X0Y22D02*
X7Y22D01*
X1580Y22D02*
X1588Y22D01*
X2187Y22D02*
X2194Y22D01*
X2682Y22D02*
X2689Y22D01*
X0Y21D02*
X7Y21D01*
X1581Y21D02*
X1589Y21D01*
X2185Y21D02*
X2193Y21D01*
X2682Y21D02*
X2689Y21D01*
X0Y20D02*
X7Y20D01*
X1583Y20D02*
X1591Y20D01*
X2183Y20D02*
X2191Y20D01*
X2682Y20D02*
X2689Y20D01*
X0Y19D02*
X7Y19D01*
X1585Y19D02*
X1593Y19D01*
X2182Y19D02*
X2190Y19D01*
X2682Y19D02*
X2689Y19D01*
X0Y18D02*
X7Y18D01*
X1586Y18D02*
X1594Y18D01*
X2180Y18D02*
X2188Y18D01*
X2682Y18D02*
X2689Y18D01*
X0Y17D02*
X7Y17D01*
X1588Y17D02*
X1596Y17D01*
X2178Y17D02*
X2186Y17D01*
X2682Y17D02*
X2689Y17D01*
X0Y16D02*
X7Y16D01*
X1589Y16D02*
X1598Y16D01*
X2177Y16D02*
X2185Y16D01*
X2682Y16D02*
X2689Y16D01*
X0Y15D02*
X7Y15D01*
X1591Y15D02*
X1599Y15D01*
X2175Y15D02*
X2183Y15D01*
X2682Y15D02*
X2689Y15D01*
X0Y14D02*
X7Y14D01*
X1593Y14D02*
X1601Y14D01*
X2173Y14D02*
X2181Y14D01*
X2682Y14D02*
X2689Y14D01*
X0Y13D02*
X7Y13D01*
X1595Y13D02*
X1603Y13D01*
X2171Y13D02*
X2180Y13D01*
X2682Y13D02*
X2689Y13D01*
X0Y12D02*
X7Y12D01*
X1596Y12D02*
X1605Y12D01*
X2170Y12D02*
X2178Y12D01*
X2682Y12D02*
X2689Y12D01*
X0Y11D02*
X7Y11D01*
X1598Y11D02*
X1606Y11D01*
X2168Y11D02*
X2176Y11D01*
X2682Y11D02*
X2689Y11D01*
X0Y10D02*
X7Y10D01*
X1600Y10D02*
X1608Y10D01*
X2166Y10D02*
X2175Y10D01*
X2682Y10D02*
X2689Y10D01*
X0Y9D02*
X2689Y9D01*
X0Y8D02*
X2689Y8D01*
X0Y7D02*
X2689Y7D01*
X0Y6D02*
X2689Y6D01*
X0Y5D02*
X2689Y5D01*
X0Y4D02*
X2689Y4D01*
X0Y3D02*
X2689Y3D01*
X0Y2D02*
X2689Y2D01*
X1616Y1D02*
X1625Y1D01*
X2149Y1D02*
X2158Y1D01*
X1618Y0D02*
X1627Y0D01*
X2147Y0D02*
X2157Y0D01*
D02*
G04 End of Silk1*
M02*